<svg width="2258" height="1492" viewBox="0 0 2258 1492" fill="none" xmlns="http://www.w3.org/2000/svg">
<g clip-path="url(#clip0_91_132)">
<path d="M654.296 4.42428e-05C715.636 4.42428e-05 776.976 5.85101 835.395 17.553C885.052 29.255 931.787 49.7335 975.602 78.9886C1013.57 108.244 1045.7 146.275 1066.15 190.158C1089.52 245.742 1101.2 304.252 1098.28 362.763C1101.2 427.124 1083.68 491.485 1051.55 547.069C1016.49 599.728 966.839 640.685 911.34 667.015C990.206 687.494 1057.39 737.227 1101.2 801.588C1145.02 871.8 1165.46 953.714 1165.46 1035.63C1165.46 1102.91 1153.78 1167.28 1124.57 1225.79C1098.28 1278.45 1060.31 1322.33 1016.5 1360.36C969.76 1395.47 914.261 1421.8 858.763 1436.42C800.344 1453.98 739.003 1459.83 677.663 1459.83H0V-2.92542H654.296V4.42428e-05ZM613.402 590.952C660.138 593.877 709.794 579.25 747.766 549.995C785.739 517.814 806.186 468.081 800.344 415.422C800.344 386.166 794.502 356.912 782.818 330.582C771.134 310.104 756.529 292.55 736.082 280.848C715.636 269.146 692.268 257.444 668.9 254.519C642.612 248.668 616.323 248.668 590.034 248.668H303.78V590.952H613.402ZM630.928 1217.01C660.137 1217.01 689.347 1214.08 715.636 1208.23C741.924 1202.38 765.292 1190.68 788.66 1176.05C809.107 1161.43 826.632 1140.95 838.316 1117.54C852.921 1088.29 858.763 1056.11 855.842 1023.93C861.684 962.491 838.316 903.981 794.502 863.024C747.766 827.918 692.268 813.29 633.849 816.215H303.78V1219.94H630.928V1217.01Z" fill="#7E3E00"/>
<path d="M1597.77 1211.16C1647.42 1255.04 1711.68 1278.45 1775.95 1275.52C1828.52 1275.52 1878.18 1260.89 1919.07 1231.64C1954.12 1208.23 1977.49 1176.05 1992.1 1138.02H2234.54C2208.25 1246.26 2143.99 1342.81 2056.36 1410.09C1971.65 1468.6 1869.42 1494.93 1764.26 1492.01C1691.24 1492.01 1618.21 1480.31 1548.11 1451.05C1486.77 1424.72 1431.27 1386.69 1387.46 1336.96C1343.64 1284.3 1308.59 1225.79 1285.22 1161.42C1258.94 1088.29 1247.25 1012.22 1250.17 936.161C1250.17 860.098 1261.86 786.961 1288.14 713.823C1358.25 509.038 1551.03 371.539 1767.18 374.465C1846.05 371.539 1921.99 392.017 1992.1 427.123C2053.44 462.23 2108.94 509.038 2149.83 567.548C2190.72 628.983 2222.85 696.27 2237.46 769.408C2254.98 845.471 2260.83 927.384 2257.9 1006.37H1533.51C1524.74 1079.51 1548.11 1152.65 1597.77 1211.16ZM1913.23 652.387C1872.34 611.43 1816.84 590.952 1758.42 593.877C1720.45 593.877 1682.47 599.728 1650.34 617.281C1624.06 631.909 1600.69 652.387 1580.24 675.791C1562.72 699.195 1551.03 722.599 1542.27 751.854C1536.43 775.258 1530.58 798.663 1530.58 822.067H1980.41C1974.57 760.631 1951.2 702.121 1913.23 652.387Z" fill="#7E3E00"/>
<path d="M2032.99 96.5417H1472.17V239.891H2032.99V96.5417Z" fill="#7E3E00"/>
</g>
<defs>
<clipPath id="clip0_91_132">
<rect width="2257.9" height="1492.01" fill="white"/>
</clipPath>
</defs>
</svg>
