<svg width="96" height="92" viewBox="0 0 96 92" fill="none" xmlns="http://www.w3.org/2000/svg">
<path d="M48 0C74.5097 0 96 20.5949 96 46C96 71.4051 74.5097 92 48 92C21.4903 92 0 71.4051 0 46C0 20.5949 21.4903 0 48 0ZM48 6C24.5608 6 6 24.1467 6 46C6 67.8533 24.5608 86 48 86C71.4392 86 90 67.8533 90 46C90 43.19 89.6902 40.4419 89.1055 37.7852L92.4854 36.9404C93.5568 36.6724 94.2083 35.5862 93.9404 34.5146C93.6724 33.4432 92.5862 32.7917 91.5146 33.0596L88.042 33.9268C82.691 17.8488 66.9394 6 48 6ZM48 11C64.0668 11 77.6733 21.2334 82.3047 35.3613L76.46 36.8223C72.5051 25.3758 61.355 17 48 17C31.271 17 18 30.142 18 46C18 61.858 31.271 75 48 75C64.729 75 78 61.858 78 46C78 44.1887 77.8248 42.4133 77.4932 40.6885L83.3242 39.2305C83.7658 41.4208 84 43.6839 84 46C84 65.33 67.8823 81 48 81C28.1177 81 12 65.33 12 46C12 26.67 28.1177 11 48 11ZM48 24C57.6076 24 65.7751 30.1593 68.7734 38.7441L62.9189 40.208C61.8724 37.5141 60.1177 35.1736 57.8828 33.416L58.9766 31.5947C59.5448 30.6476 59.2372 29.4179 58.29 28.8496C57.3431 28.2816 56.1143 28.5886 55.5459 29.5352L54.4531 31.3555C52.4792 30.4844 50.2962 30 48 30C39.1634 30 32 37.1634 32 46C32 54.8366 39.1634 62 48 62C53.1063 62 57.6535 59.6075 60.583 55.8828L62.4062 56.9766C63.3533 57.5444 64.5822 57.2369 65.1504 56.29C65.7184 55.3429 65.4109 54.1141 64.4639 53.5459L62.6436 52.4531C63.5147 50.4791 64 48.2964 64 46C64 45.3536 63.9603 44.7162 63.8857 44.0898L69.7422 42.626C69.9115 43.7259 70 44.8527 70 46C70 58.1503 60.1503 68 48 68C35.8497 68 26 58.1503 26 46C26 33.8497 35.8497 24 48 24ZM54.4531 31.3555C55.6856 31.8994 56.837 32.5935 57.8828 33.416L52.1992 42.8887L62.9189 40.208C63.3959 41.4357 63.7248 42.7369 63.8857 44.0898L53.1699 46.7695L62.6436 52.4531C62.0996 53.6857 61.4056 54.8369 60.583 55.8828L46.9707 47.7148C46.0239 47.1466 45.7173 45.9187 46.2852 44.9717L54.4531 31.3555ZM76.46 36.8223C76.8933 38.0764 77.2392 39.3675 77.4932 40.6885L69.7422 42.626C69.5363 41.2883 69.2089 39.9909 68.7734 38.7441L76.46 36.8223ZM88.042 33.9268C88.4618 35.1882 88.8172 36.4754 89.1055 37.7852L83.3242 39.2305C83.0586 37.9127 82.7178 36.6216 82.3047 35.3613L88.042 33.9268Z" fill="#7E3E00"/>
</svg>
