<svg width="2258" height="2258" viewBox="0 0 2258 2258" fill="none" xmlns="http://www.w3.org/2000/svg">
<path d="M661.387 7.89562C541.267 13.563 459.237 32.7326 387.526 60.9112C313.309 89.835 250.403 128.648 187.814 191.463C125.225 254.278 86.6828 317.228 57.9622 391.559C30.1674 463.428 11.3365 545.525 6.03043 665.713C0.724361 785.902 -0.44975 824.534 0.137305 1131.11C0.72436 1437.69 2.0791 1476.12 7.9045 1596.56C13.6396 1716.65 32.7414 1798.66 60.9201 1870.4C89.889 1944.61 128.657 2007.5 191.495 2070.11C254.332 2132.72 317.237 2171.17 391.748 2199.94C463.55 2227.69 545.67 2246.61 665.835 2251.87C786.001 2257.13 824.679 2258.35 1131.17 2257.76C1437.65 2257.17 1476.24 2255.82 1596.66 2250.11C1717.07 2244.39 1798.65 2225.16 1870.4 2197.11C1944.62 2168.08 2007.55 2129.38 2070.12 2066.52C2132.68 2003.66 2171.2 1940.66 2199.9 1866.29C2227.72 1794.48 2246.62 1712.36 2251.83 1592.29C2257.09 1471.79 2258.33 1433.31 2257.75 1126.78C2257.16 820.244 2255.78 781.815 2250.07 661.423C2244.36 541.032 2225.23 459.273 2197.08 387.494C2168.06 313.277 2129.34 250.44 2066.53 187.783C2003.71 125.126 1940.67 86.6287 1866.32 57.9985C1794.47 30.2037 1712.4 11.2599 1592.23 6.06672C1472.06 0.873539 1433.39 -0.458624 1126.79 0.128431C820.186 0.715486 781.801 2.02507 661.387 7.89562ZM674.573 2048.77C564.5 2043.98 504.734 2025.69 464.904 2010.39C412.16 1990.06 374.588 1965.5 334.894 1926.19C295.2 1886.88 270.815 1849.17 250.223 1796.54C234.756 1756.71 216.128 1697.01 210.98 1586.94C205.381 1467.97 204.207 1432.25 203.552 1130.84C202.897 829.434 204.049 793.759 209.264 674.745C213.961 564.763 232.363 504.928 247.649 465.121C267.97 412.309 292.446 374.805 331.846 335.134C371.246 295.462 408.84 271.032 461.517 250.44C501.302 234.905 561.001 216.436 671.028 211.197C790.088 205.553 825.763 204.424 1127.12 203.769C1428.49 203.114 1464.25 204.243 1583.36 209.481C1693.34 214.268 1753.2 232.489 1792.96 247.866C1845.73 268.187 1883.27 292.595 1922.95 332.063C1962.62 371.531 1987.07 408.99 2007.66 461.78C2023.22 501.451 2041.69 561.127 2046.88 671.223C2052.55 790.282 2053.84 825.979 2054.38 1127.32C2054.92 1428.66 2053.86 1464.45 2048.64 1583.42C2043.83 1693.49 2025.59 1753.28 2010.26 1793.15C1989.94 1845.87 1965.44 1883.47 1926.02 1923.12C1886.59 1962.77 1849.04 1987.2 1796.35 2007.79C1756.61 2023.3 1696.84 2041.82 1586.9 2047.05C1467.84 2052.65 1432.17 2053.83 1130.69 2054.48C829.217 2055.14 793.655 2053.92 674.596 2048.77M1594.92 525.565C1594.96 552.361 1602.95 578.542 1617.88 600.797C1632.8 623.052 1653.99 640.381 1678.77 650.592C1703.54 660.803 1730.79 663.438 1757.06 658.163C1783.33 652.888 1807.45 639.941 1826.36 620.958C1845.27 601.976 1858.13 577.811 1863.31 551.52C1868.49 525.229 1865.76 497.993 1855.45 473.256C1845.15 448.519 1827.75 427.393 1805.44 412.549C1783.13 397.706 1756.92 389.812 1730.12 389.865C1694.2 389.937 1659.78 404.273 1634.42 429.72C1609.07 455.168 1594.86 489.643 1594.92 525.565ZM549.282 1130.07C549.914 1450.24 809.935 1709.2 1130.04 1708.59C1450.14 1707.98 1709.28 1447.99 1708.67 1127.82C1708.06 807.645 1447.97 548.618 1127.82 549.251C807.677 549.883 548.673 809.948 549.282 1130.07ZM752.629 1129.67C752.482 1055.24 774.409 982.436 815.637 920.468C856.866 858.5 915.544 810.149 984.252 781.53C1052.96 752.911 1128.61 745.309 1201.64 759.685C1274.67 774.061 1341.79 809.769 1394.53 862.295C1447.26 914.821 1483.24 981.804 1497.9 1054.77C1512.57 1127.75 1505.26 1203.43 1476.92 1272.25C1448.57 1341.07 1400.45 1399.94 1338.65 1441.41C1276.84 1482.88 1204.13 1505.1 1129.7 1505.25C1080.28 1505.35 1031.32 1495.72 985.622 1476.9C939.924 1458.08 898.381 1430.44 863.365 1395.56C828.35 1360.69 800.548 1319.25 781.548 1273.63C762.548 1228.01 752.721 1179.09 752.629 1129.67Z" fill="#7E3E00"/>
</svg>
