<svg width="400" height="400" viewBox="0 0 400 400" fill="none" xmlns="http://www.w3.org/2000/svg">
<rect width="400" height="400" fill="white"/>
<path d="M84.0976 182.537V184.878H81.7561V182.537H84.0976ZM84.0976 180.195V182.537H81.7561V180.195H84.0976ZM84.0976 177.854V180.195H81.7561V177.854H84.0976ZM81.7561 177.854V180.195H79.4146V177.854H81.7561ZM81.7561 175.512V177.854H79.4146V175.512H81.7561ZM81.7561 180.195V182.537H79.4146V180.195H81.7561ZM79.4146 180.195V182.537H77.0732V180.195H79.4146ZM79.4146 182.537V184.878H77.0732V182.537H79.4146ZM81.7561 182.537V184.878H79.4146V182.537H81.7561ZM77.0732 182.537V184.878H74.7317V182.537H77.0732ZM77.0732 180.195V182.537H74.7317V180.195H77.0732ZM77.0732 177.854V180.195H74.7317V177.854H77.0732ZM77.0732 175.512V177.854H74.7317V175.512H77.0732ZM79.4146 175.512V177.854H77.0732V175.512H79.4146ZM79.4146 177.854V180.195H77.0732V177.854H79.4146ZM74.7317 175.512V177.854H72.3902V175.512H74.7317ZM72.3902 175.512V177.854H70.0488V175.512H72.3902ZM70.0488 175.512V177.854H67.7073V175.512H70.0488ZM70.0488 177.854V180.195H67.7073V177.854H70.0488ZM70.0488 180.195V182.537H67.7073V180.195H70.0488ZM70.0488 182.537V184.878H67.7073V182.537H70.0488ZM72.3902 182.537V184.878H70.0488V182.537H72.3902ZM74.7317 182.537V184.878H72.3902V182.537H74.7317ZM74.7317 180.195V182.537H72.3902V180.195H74.7317ZM74.7317 177.854V180.195H72.3902V177.854H74.7317ZM72.3902 177.854V180.195H70.0488V177.854H72.3902ZM72.3902 180.195V182.537H70.0488V180.195H72.3902ZM67.7073 180.195V182.537H65.3659V180.195H67.7073ZM67.7073 177.854V180.195H65.3659V177.854H67.7073ZM65.3659 177.854V180.195H63.0244V177.854H65.3659ZM65.3659 180.195V182.537H63.0244V180.195H65.3659ZM63.0244 180.195V182.537H60.6829V180.195H63.0244ZM63.0244 182.537V184.878H60.6829V182.537H63.0244ZM63.0244 184.878V187.22H60.6829V184.878H63.0244ZM65.3659 184.878V187.22H63.0244V184.878H65.3659ZM65.3659 182.537V184.878H63.0244V182.537H65.3659ZM67.7073 182.537V184.878H65.3659V182.537H67.7073ZM67.7073 184.878V187.22H65.3659V184.878H67.7073ZM70.0488 184.878V187.22H67.7073V184.878H70.0488ZM72.3902 184.878V187.22H70.0488V184.878H72.3902ZM60.6829 184.878V187.22H58.3415V184.878H60.6829ZM60.6829 187.22V189.561H58.3415V187.22H60.6829ZM60.6829 189.561V191.902H58.3415V189.561H60.6829ZM60.6829 191.902V194.244H58.3415V191.902H60.6829ZM60.6829 194.244V196.585H58.3415V194.244H60.6829ZM60.6829 196.585V198.927H58.3415V196.585H60.6829ZM60.6829 198.927V201.268H58.3415V198.927H60.6829ZM60.6829 201.268V203.61H58.3415V201.268H60.6829ZM60.6829 203.61V205.951H58.3415V203.61H60.6829ZM60.6829 205.951V208.293H58.3415V205.951H60.6829ZM63.0244 205.951V208.293H60.6829V205.951H63.0244ZM63.0244 208.293V210.634H60.6829V208.293H63.0244ZM60.6829 208.293V210.634H58.3415V208.293H60.6829ZM65.3659 208.293V210.634H63.0244V208.293H65.3659ZM67.7073 208.293V210.634H65.3659V208.293H67.7073ZM70.0488 208.293V210.634H67.7073V208.293H70.0488ZM72.3902 208.293V210.634H70.0488V208.293H72.3902ZM70.0488 205.951V208.293H67.7073V205.951H70.0488ZM70.0488 203.61V205.951H67.7073V203.61H70.0488ZM70.0488 201.268V203.61H67.7073V201.268H70.0488ZM70.0488 198.927V201.268H67.7073V198.927H70.0488ZM70.0488 196.585V198.927H67.7073V196.585H70.0488ZM70.0488 194.244V196.585H67.7073V194.244H70.0488ZM70.0488 191.902V194.244H67.7073V191.902H70.0488ZM70.0488 189.561V191.902H67.7073V189.561H70.0488ZM70.0488 187.22V189.561H67.7073V187.22H70.0488ZM67.7073 187.22V189.561H65.3659V187.22H67.7073ZM65.3659 187.22V189.561H63.0244V187.22H65.3659ZM63.0244 187.22V189.561H60.6829V187.22H63.0244ZM63.0244 189.561V191.902H60.6829V189.561H63.0244ZM63.0244 191.902V194.244H60.6829V191.902H63.0244ZM63.0244 194.244V196.585H60.6829V194.244H63.0244ZM63.0244 196.585V198.927H60.6829V196.585H63.0244ZM63.0244 198.927V201.268H60.6829V198.927H63.0244ZM63.0244 201.268V203.61H60.6829V201.268H63.0244ZM63.0244 203.61V205.951H60.6829V203.61H63.0244ZM65.3659 205.951V208.293H63.0244V205.951H65.3659ZM67.7073 205.951V208.293H65.3659V205.951H67.7073ZM67.7073 203.61V205.951H65.3659V203.61H67.7073ZM67.7073 201.268V203.61H65.3659V201.268H67.7073ZM67.7073 198.927V201.268H65.3659V198.927H67.7073ZM67.7073 196.585V198.927H65.3659V196.585H67.7073ZM65.3659 196.585V198.927H63.0244V196.585H65.3659ZM65.3659 194.244V196.585H63.0244V194.244H65.3659ZM65.3659 191.902V194.244H63.0244V191.902H65.3659ZM65.3659 189.561V191.902H63.0244V189.561H65.3659ZM67.7073 189.561V191.902H65.3659V189.561H67.7073ZM67.7073 191.902V194.244H65.3659V191.902H67.7073ZM67.7073 194.244V196.585H65.3659V194.244H67.7073ZM65.3659 201.268V203.61H63.0244V201.268H65.3659ZM65.3659 203.61V205.951H63.0244V203.61H65.3659ZM65.3659 198.927V201.268H63.0244V198.927H65.3659ZM84.0976 210.634V212.976H81.7561V210.634H84.0976ZM81.7561 217.659V220H79.4146V217.659H81.7561ZM79.4146 217.659V220H77.0732V217.659H79.4146ZM77.0732 217.659V220H74.7317V217.659H77.0732ZM74.7317 217.659V220H72.3902V217.659H74.7317ZM72.3902 217.659V220H70.0488V217.659H72.3902ZM70.0488 217.659V220H67.7073V217.659H70.0488ZM72.3902 215.317V217.659H70.0488V215.317H72.3902ZM74.7317 215.317V217.659H72.3902V215.317H74.7317ZM77.0732 215.317V217.659H74.7317V215.317H77.0732ZM79.4146 215.317V217.659H77.0732V215.317H79.4146ZM81.7561 215.317V217.659H79.4146V215.317H81.7561ZM84.0976 215.317V217.659H81.7561V215.317H84.0976ZM84.0976 212.976V215.317H81.7561V212.976H84.0976ZM81.7561 212.976V215.317H79.4146V212.976H81.7561ZM79.4146 212.976V215.317H77.0732V212.976H79.4146ZM77.0732 212.976V215.317H74.7317V212.976H77.0732ZM74.7317 212.976V215.317H72.3902V212.976H74.7317ZM72.3902 212.976V215.317H70.0488V212.976H72.3902ZM70.0488 215.317V217.659H67.7073V215.317H70.0488ZM67.7073 215.317V217.659H65.3659V215.317H67.7073ZM65.3659 215.317V217.659H63.0244V215.317H65.3659ZM65.3659 212.976V215.317H63.0244V212.976H65.3659ZM63.0244 212.976V215.317H60.6829V212.976H63.0244ZM63.0244 210.634V212.976H60.6829V210.634H63.0244ZM65.3659 210.634V212.976H63.0244V210.634H65.3659ZM67.7073 210.634V212.976H65.3659V210.634H67.7073ZM70.0488 210.634V212.976H67.7073V210.634H70.0488ZM72.3902 210.634V212.976H70.0488V210.634H72.3902ZM74.7317 210.634V212.976H72.3902V210.634H74.7317ZM77.0732 210.634V212.976H74.7317V210.634H77.0732ZM79.4146 210.634V212.976H77.0732V210.634H79.4146ZM81.7561 210.634V212.976H79.4146V210.634H81.7561ZM70.0488 212.976V215.317H67.7073V212.976H70.0488ZM67.7073 212.976V215.317H65.3659V212.976H67.7073ZM86.439 212.976V215.317H84.0976V212.976H86.439ZM86.439 210.634V212.976H84.0976V210.634H86.439ZM86.439 208.293V210.634H84.0976V208.293H86.439ZM86.439 205.951V208.293H84.0976V205.951H86.439ZM86.439 203.61V205.951H84.0976V203.61H86.439ZM86.439 201.268V203.61H84.0976V201.268H86.439ZM86.439 198.927V201.268H84.0976V198.927H86.439ZM86.439 196.585V198.927H84.0976V196.585H86.439ZM86.439 194.244V196.585H84.0976V194.244H86.439ZM86.439 191.902V194.244H84.0976V191.902H86.439ZM86.439 189.561V191.902H84.0976V189.561H86.439ZM86.439 187.22V189.561H84.0976V187.22H86.439ZM86.439 184.878V187.22H84.0976V184.878H86.439ZM88.7805 184.878V187.22H86.439V184.878H88.7805ZM88.7805 187.22V189.561H86.439V187.22H88.7805ZM88.7805 189.561V191.902H86.439V189.561H88.7805ZM88.7805 191.902V194.244H86.439V191.902H88.7805ZM88.7805 194.244V196.585H86.439V194.244H88.7805ZM88.7805 196.585V198.927H86.439V196.585H88.7805ZM88.7805 198.927V201.268H86.439V198.927H88.7805ZM91.1219 201.268V203.61H88.7805V201.268H91.1219ZM91.1219 203.61V205.951H88.7805V203.61H91.1219ZM91.1219 205.951V208.293H88.7805V205.951H91.1219ZM91.1219 208.293V210.634H88.7805V208.293H91.1219ZM91.1219 210.634V212.976H88.7805V210.634H91.1219ZM91.1219 212.976V215.317H88.7805V212.976H91.1219ZM91.1219 215.317V217.659H88.7805V215.317H91.1219ZM91.1219 217.659V220H88.7805V217.659H91.1219ZM93.4634 217.659V220H91.1219V217.659H93.4634ZM95.8049 217.659V220H93.4634V217.659H95.8049ZM95.8049 215.317V217.659H93.4634V215.317H95.8049ZM95.8049 212.976V215.317H93.4634V212.976H95.8049ZM95.8049 210.634V212.976H93.4634V210.634H95.8049ZM95.8049 208.293V210.634H93.4634V208.293H95.8049ZM95.8049 205.951V208.293H93.4634V205.951H95.8049ZM95.8049 203.61V205.951H93.4634V203.61H95.8049ZM95.8049 201.268V203.61H93.4634V201.268H95.8049ZM93.4634 201.268V203.61H91.1219V201.268H93.4634ZM93.4634 198.927V201.268H91.1219V198.927H93.4634ZM93.4634 203.61V205.951H91.1219V203.61H93.4634ZM93.4634 205.951V208.293H91.1219V205.951H93.4634ZM93.4634 208.293V210.634H91.1219V208.293H93.4634ZM93.4634 210.634V212.976H91.1219V210.634H93.4634ZM93.4634 212.976V215.317H91.1219V212.976H93.4634ZM93.4634 215.317V217.659H91.1219V215.317H93.4634ZM88.7805 212.976V215.317H86.439V212.976H88.7805ZM88.7805 210.634V212.976H86.439V210.634H88.7805ZM88.7805 208.293V210.634H86.439V208.293H88.7805ZM88.7805 205.951V208.293H86.439V205.951H88.7805ZM88.7805 203.61V205.951H86.439V203.61H88.7805ZM88.7805 201.268V203.61H86.439V201.268H88.7805ZM86.439 220V222.341H84.0976V220H86.439ZM86.439 222.341V224.683H84.0976V222.341H86.439ZM86.439 224.683V227.024H84.0976V224.683H86.439ZM86.439 227.024V229.366H84.0976V227.024H86.439ZM86.439 229.366V231.707H84.0976V229.366H86.439ZM86.439 231.707V234.049H84.0976V231.707H86.439ZM86.439 177.854V180.195H84.0976V177.854H86.439ZM86.439 182.537V184.878H84.0976V182.537H86.439ZM93.4634 220V222.341H91.1219V220H93.4634ZM93.4634 222.341V224.683H91.1219V222.341H93.4634ZM93.4634 224.683V227.024H91.1219V224.683H93.4634ZM93.4634 227.024V229.366H91.1219V227.024H93.4634ZM93.4634 229.366V231.707H91.1219V229.366H93.4634ZM93.4634 231.707V234.049H91.1219V231.707H93.4634ZM93.4634 177.854V180.195H91.1219V177.854H93.4634ZM93.4634 180.195V182.537H91.1219V180.195H93.4634ZM93.4634 182.537V184.878H91.1219V182.537H93.4634ZM93.4634 187.22V189.561H91.1219V187.22H93.4634ZM93.4634 189.561V191.902H91.1219V189.561H93.4634ZM93.4634 191.902V194.244H91.1219V191.902H93.4634ZM95.8049 194.244V196.585H93.4634V194.244H95.8049ZM95.8049 196.585V198.927H93.4634V196.585H95.8049ZM95.8049 198.927V201.268H93.4634V198.927H95.8049ZM95.8049 191.902V194.244H93.4634V191.902H95.8049ZM95.8049 189.561V191.902H93.4634V189.561H95.8049ZM95.8049 184.878V187.22H93.4634V184.878H95.8049ZM95.8049 182.537V184.878H93.4634V182.537H95.8049ZM95.8049 180.195V182.537H93.4634V180.195H95.8049ZM95.8049 177.854V180.195H93.4634V177.854H95.8049ZM95.8049 175.512V177.854H93.4634V175.512H95.8049ZM95.8049 231.707V234.049H93.4634V231.707H95.8049ZM95.8049 229.366V231.707H93.4634V229.366H95.8049ZM93.4634 175.512V177.854H91.1219V175.512H93.4634ZM95.8049 227.024V229.366H93.4634V227.024H95.8049ZM95.8049 224.683V227.024H93.4634V224.683H95.8049ZM95.8049 222.341V224.683H93.4634V222.341H95.8049ZM95.8049 220V222.341H93.4634V220H95.8049ZM91.1219 220V222.341H88.7805V220H91.1219ZM88.7805 220V222.341H86.439V220H88.7805ZM88.7805 222.341V224.683H86.439V222.341H88.7805ZM91.1219 222.341V224.683H88.7805V222.341H91.1219ZM91.1219 224.683V227.024H88.7805V224.683H91.1219ZM91.1219 227.024V229.366H88.7805V227.024H91.1219ZM91.1219 229.366V231.707H88.7805V229.366H91.1219ZM91.1219 231.707V234.049H88.7805V231.707H91.1219ZM91.1219 175.512V177.854H88.7805V175.512H91.1219ZM91.1219 177.854V180.195H88.7805V177.854H91.1219ZM88.7805 180.195V182.537H86.439V180.195H88.7805ZM88.7805 182.537V184.878H86.439V182.537H88.7805ZM88.7805 177.854V180.195H86.439V177.854H88.7805ZM88.7805 175.512V177.854H86.439V175.512H88.7805ZM88.7805 231.707V234.049H86.439V231.707H88.7805ZM88.7805 229.366V231.707H86.439V229.366H88.7805ZM88.7805 227.024V229.366H86.439V227.024H88.7805ZM88.7805 224.683V227.024H86.439V224.683H88.7805ZM91.1219 182.537V184.878H88.7805V182.537H91.1219ZM91.1219 187.22V189.561H88.7805V187.22H91.1219ZM91.1219 189.561V191.902H88.7805V189.561H91.1219ZM91.1219 191.902V194.244H88.7805V191.902H91.1219ZM91.1219 194.244V196.585H88.7805V194.244H91.1219ZM91.1219 196.585V198.927H88.7805V196.585H91.1219ZM91.1219 198.927V201.268H88.7805V198.927H91.1219ZM93.4634 196.585V198.927H91.1219V196.585H93.4634ZM93.4634 194.244V196.585H91.1219V194.244H93.4634ZM86.439 175.512V177.854H84.0976V175.512H86.439ZM95.8049 187.22V189.561H93.4634V187.22H95.8049ZM86.439 180.195V182.537H84.0976V180.195H86.439ZM91.1219 180.195V182.537H88.7805V180.195H91.1219ZM91.1219 184.878V187.22H88.7805V184.878H91.1219ZM93.4634 184.878V187.22H91.1219V184.878H93.4634ZM86.439 215.317V217.659H84.0976V215.317H86.439ZM88.7805 215.317V217.659H86.439V215.317H88.7805ZM88.7805 217.659V220H86.439V217.659H88.7805ZM86.439 217.659V220H84.0976V217.659H86.439ZM84.0976 175.512V177.854H81.7561V175.512H84.0976ZM84.0976 208.293V210.634H81.7561V208.293H84.0976ZM107.556 175.512V177.854H105.214V175.512H107.556ZM109.897 175.512V177.854H107.556V175.512H109.897ZM112.239 175.512V177.854H109.897V175.512H112.239ZM114.58 175.512V177.854H112.239V175.512H114.58ZM114.58 177.854V180.195H112.239V177.854H114.58ZM116.921 177.854V180.195H114.58V177.854H116.921ZM116.921 180.195V182.537H114.58V180.195H116.921ZM116.921 175.512V177.854H114.58V175.512H116.921ZM116.921 182.537V184.878H114.58V182.537H116.921ZM116.921 184.878V187.22H114.58V184.878H116.921ZM116.921 187.22V189.561H114.58V187.22H116.921ZM116.921 189.561V191.902H114.58V189.561H116.921ZM116.921 191.902V194.244H114.58V191.902H116.921ZM116.921 194.244V196.585H114.58V194.244H116.921ZM116.921 196.585V198.927H114.58V196.585H116.921ZM116.921 198.927V201.268H114.58V198.927H116.921ZM116.921 201.268V203.61H114.58V201.268H116.921ZM114.58 201.268V203.61H112.239V201.268H114.58ZM112.239 203.61V205.951H109.897V203.61H112.239ZM109.897 203.61V205.951H107.556V203.61H109.897ZM107.556 203.61V205.951H105.214V203.61H107.556ZM107.556 201.268V203.61H105.214V201.268H107.556ZM107.556 198.927V201.268H105.214V198.927H107.556ZM107.556 196.585V198.927H105.214V196.585H107.556ZM107.556 194.244V196.585H105.214V194.244H107.556ZM109.897 194.244V196.585H107.556V194.244H109.897ZM109.897 191.902V194.244H107.556V191.902H109.897ZM109.897 189.561V191.902H107.556V189.561H109.897ZM109.897 187.22V189.561H107.556V187.22H109.897ZM109.897 184.878V187.22H107.556V184.878H109.897ZM109.897 182.537V184.878H107.556V182.537H109.897ZM109.897 180.195V182.537H107.556V180.195H109.897ZM109.897 177.854V180.195H107.556V177.854H109.897ZM107.556 177.854V180.195H105.214V177.854H107.556ZM107.556 180.195V182.537H105.214V180.195H107.556ZM107.556 182.537V184.878H105.214V182.537H107.556ZM107.556 184.878V187.22H105.214V184.878H107.556ZM107.556 187.22V189.561H105.214V187.22H107.556ZM107.556 189.561V191.902H105.214V189.561H107.556ZM107.556 191.902V194.244H105.214V191.902H107.556ZM112.239 187.22V189.561H109.897V187.22H112.239ZM112.239 184.878V187.22H109.897V184.878H112.239ZM112.239 182.537V184.878H109.897V182.537H112.239ZM112.239 180.195V182.537H109.897V180.195H112.239ZM112.239 177.854V180.195H109.897V177.854H112.239ZM114.58 187.22V189.561H112.239V187.22H114.58ZM114.58 189.561V191.902H112.239V189.561H114.58ZM114.58 184.878V187.22H112.239V184.878H114.58ZM114.58 182.537V184.878H112.239V182.537H114.58ZM114.58 180.195V182.537H112.239V180.195H114.58ZM112.239 194.244V196.585H109.897V194.244H112.239ZM112.239 191.902V194.244H109.897V191.902H112.239ZM112.239 189.561V191.902H109.897V189.561H112.239ZM114.58 191.902V194.244H112.239V191.902H114.58ZM114.58 194.244V196.585H112.239V194.244H114.58ZM114.58 196.585V198.927H112.239V196.585H114.58ZM112.239 198.927V201.268H109.897V198.927H112.239ZM112.239 201.268V203.61H109.897V201.268H112.239ZM112.239 196.585V198.927H109.897V196.585H112.239ZM109.897 196.585V198.927H107.556V196.585H109.897ZM109.897 198.927V201.268H107.556V198.927H109.897ZM109.897 201.268V203.61H107.556V201.268H109.897ZM114.58 198.927V201.268H112.239V198.927H114.58ZM112.239 205.951V208.293H109.897V205.951H112.239ZM109.897 205.951V208.293H107.556V205.951H109.897ZM114.58 205.951V208.293H112.239V205.951H114.58ZM114.58 203.61V205.951H112.239V203.61H114.58ZM116.921 203.61V205.951H114.58V203.61H116.921ZM119.263 203.61V205.951H116.921V203.61H119.263ZM119.263 205.951V208.293H116.921V205.951H119.263ZM116.921 205.951V208.293H114.58V205.951H116.921ZM121.604 205.951V208.293H119.263V205.951H121.604ZM112.239 208.293V210.634H109.897V208.293H112.239ZM114.58 208.293V210.634H112.239V208.293H114.58ZM116.921 208.293V210.634H114.58V208.293H116.921ZM119.263 208.293V210.634H116.921V208.293H119.263ZM121.604 208.293V210.634H119.263V208.293H121.604ZM123.946 208.293V210.634H121.604V208.293H123.946ZM126.287 208.293V210.634H123.946V208.293H126.287ZM128.629 208.293V210.634H126.287V208.293H128.629ZM130.97 208.293V210.634H128.629V208.293H130.97ZM133.312 208.293V210.634H130.97V208.293H133.312ZM130.97 205.951V208.293H128.629V205.951H130.97ZM128.629 205.951V208.293H126.287V205.951H128.629ZM126.287 205.951V208.293H123.946V205.951H126.287ZM128.629 203.61V205.951H126.287V203.61H128.629ZM121.604 217.659V220H119.263V217.659H121.604ZM121.604 215.317V217.659H119.263V215.317H121.604ZM121.604 212.976V215.317H119.263V212.976H121.604ZM123.946 210.634V212.976H121.604V210.634H123.946ZM126.287 210.634V212.976H123.946V210.634H126.287ZM126.287 212.976V215.317H123.946V212.976H126.287ZM126.287 215.317V217.659H123.946V215.317H126.287ZM126.287 217.659V220H123.946V217.659H126.287ZM123.946 217.659V220H121.604V217.659H123.946ZM123.946 212.976V215.317H121.604V212.976H123.946ZM123.946 215.317V217.659H121.604V215.317H123.946ZM128.629 212.976V215.317H126.287V212.976H128.629ZM128.629 210.634V212.976H126.287V210.634H128.629ZM130.97 210.634V212.976H128.629V210.634H130.97ZM133.312 210.634V212.976H130.97V210.634H133.312ZM130.97 212.976V215.317H128.629V212.976H130.97ZM128.629 215.317V217.659H126.287V215.317H128.629ZM114.58 210.634V212.976H112.239V210.634H114.58ZM116.921 210.634V212.976H114.58V210.634H116.921ZM116.921 212.976V215.317H114.58V212.976H116.921ZM119.263 212.976V215.317H116.921V212.976H119.263ZM119.263 215.317V217.659H116.921V215.317H119.263ZM121.604 210.634V212.976H119.263V210.634H121.604ZM119.263 210.634V212.976H116.921V210.634H119.263ZM130.97 175.512V177.854H128.629V175.512H130.97ZM133.312 175.512V177.854H130.97V175.512H133.312ZM135.653 175.512V177.854H133.312V175.512H135.653ZM137.995 177.854V180.195H135.653V177.854H137.995ZM140.336 182.537V184.878H137.995V182.537H140.336ZM140.336 184.878V187.22H137.995V184.878H140.336ZM140.336 187.22V189.561H137.995V187.22H140.336ZM140.336 191.902V194.244H137.995V191.902H140.336ZM140.336 194.244V196.585H137.995V194.244H140.336ZM140.336 196.585V198.927H137.995V196.585H140.336ZM140.336 198.927V201.268H137.995V198.927H140.336ZM140.336 201.268V203.61H137.995V201.268H140.336ZM137.995 201.268V203.61H135.653V201.268H137.995ZM135.653 203.61V205.951H133.312V203.61H135.653ZM133.312 203.61V205.951H130.97V203.61H133.312ZM130.97 203.61V205.951H128.629V203.61H130.97ZM130.97 201.268V203.61H128.629V201.268H130.97ZM130.97 198.927V201.268H128.629V198.927H130.97ZM130.97 194.244V196.585H128.629V194.244H130.97ZM133.312 194.244V196.585H130.97V194.244H133.312ZM133.312 191.902V194.244H130.97V191.902H133.312ZM133.312 189.561V191.902H130.97V189.561H133.312ZM133.312 187.22V189.561H130.97V187.22H133.312ZM133.312 184.878V187.22H130.97V184.878H133.312ZM133.312 182.537V184.878H130.97V182.537H133.312ZM133.312 180.195V182.537H130.97V180.195H133.312ZM133.312 177.854V180.195H130.97V177.854H133.312ZM130.97 177.854V180.195H128.629V177.854H130.97ZM130.97 180.195V182.537H128.629V180.195H130.97ZM130.97 182.537V184.878H128.629V182.537H130.97ZM130.97 184.878V187.22H128.629V184.878H130.97ZM130.97 187.22V189.561H128.629V187.22H130.97ZM130.97 191.902V194.244H128.629V191.902H130.97ZM135.653 187.22V189.561H133.312V187.22H135.653ZM135.653 184.878V187.22H133.312V184.878H135.653ZM135.653 182.537V184.878H133.312V182.537H135.653ZM135.653 180.195V182.537H133.312V180.195H135.653ZM137.995 187.22V189.561H135.653V187.22H137.995ZM137.995 189.561V191.902H135.653V189.561H137.995ZM137.995 184.878V187.22H135.653V184.878H137.995ZM137.995 182.537V184.878H135.653V182.537H137.995ZM135.653 194.244V196.585H133.312V194.244H135.653ZM135.653 191.902V194.244H133.312V191.902H135.653ZM135.653 189.561V191.902H133.312V189.561H135.653ZM137.995 191.902V194.244H135.653V191.902H137.995ZM137.995 194.244V196.585H135.653V194.244H137.995ZM137.995 196.585V198.927H135.653V196.585H137.995ZM135.653 198.927V201.268H133.312V198.927H135.653ZM135.653 201.268V203.61H133.312V201.268H135.653ZM135.653 196.585V198.927H133.312V196.585H135.653ZM133.312 196.585V198.927H130.97V196.585H133.312ZM133.312 198.927V201.268H130.97V198.927H133.312ZM133.312 201.268V203.61H130.97V201.268H133.312ZM137.995 198.927V201.268H135.653V198.927H137.995ZM135.653 205.951V208.293H133.312V205.951H135.653ZM137.995 205.951V208.293H135.653V205.951H137.995ZM137.995 203.61V205.951H135.653V203.61H137.995ZM140.336 203.61V205.951H137.995V203.61H140.336ZM142.678 203.61V205.951H140.336V203.61H142.678ZM142.678 205.951V208.293H140.336V205.951H142.678ZM140.336 205.951V208.293H137.995V205.951H140.336ZM145.019 205.951V208.293H142.678V205.951H145.019ZM137.995 208.293V210.634H135.653V208.293H137.995ZM140.336 208.293V210.634H137.995V208.293H140.336ZM142.678 208.293V210.634H140.336V208.293H142.678ZM145.019 208.293V210.634H142.678V208.293H145.019ZM147.361 208.293V210.634H145.019V208.293H147.361ZM149.702 208.293V210.634H147.361V208.293H149.702ZM152.043 208.293V210.634H149.702V208.293H152.043ZM154.385 208.293V210.634H152.043V208.293H154.385ZM156.726 208.293V210.634H154.385V208.293H156.726ZM159.068 208.293V210.634H156.726V208.293H159.068ZM156.726 205.951V208.293H154.385V205.951H156.726ZM154.385 205.951V208.293H152.043V205.951H154.385ZM152.043 205.951V208.293H149.702V205.951H152.043ZM149.702 205.951V208.293H147.361V205.951H149.702ZM152.043 203.61V205.951H149.702V203.61H152.043ZM154.385 203.61V205.951H152.043V203.61H154.385ZM156.726 203.61V205.951H154.385V203.61H156.726ZM159.068 203.61V205.951H156.726V203.61H159.068ZM161.409 203.61V205.951H159.068V203.61H161.409ZM161.409 205.951V208.293H159.068V205.951H161.409ZM159.068 205.951V208.293H156.726V205.951H159.068ZM163.751 203.61V205.951H161.409V203.61H163.751ZM145.019 217.659V220H142.678V217.659H145.019ZM145.019 215.317V217.659H142.678V215.317H145.019ZM145.019 212.976V215.317H142.678V212.976H145.019ZM147.361 210.634V212.976H145.019V210.634H147.361ZM149.702 210.634V212.976H147.361V210.634H149.702ZM149.702 212.976V215.317H147.361V212.976H149.702ZM149.702 215.317V217.659H147.361V215.317H149.702ZM149.702 217.659V220H147.361V217.659H149.702ZM147.361 217.659V220H145.019V217.659H147.361ZM147.361 212.976V215.317H145.019V212.976H147.361ZM147.361 215.317V217.659H145.019V215.317H147.361ZM152.043 212.976V215.317H149.702V212.976H152.043ZM152.043 210.634V212.976H149.702V210.634H152.043ZM154.385 210.634V212.976H152.043V210.634H154.385ZM156.726 210.634V212.976H154.385V210.634H156.726ZM154.385 212.976V215.317H152.043V212.976H154.385ZM152.043 215.317V217.659H149.702V215.317H152.043ZM137.995 210.634V212.976H135.653V210.634H137.995ZM140.336 210.634V212.976H137.995V210.634H140.336ZM140.336 212.976V215.317H137.995V212.976H140.336ZM142.678 212.976V215.317H140.336V212.976H142.678ZM142.678 215.317V217.659H140.336V215.317H142.678ZM145.019 210.634V212.976H142.678V210.634H145.019ZM142.678 210.634V212.976H140.336V210.634H142.678ZM154.385 201.268V203.61H152.043V201.268H154.385ZM154.385 198.927V201.268H152.043V198.927H154.385ZM154.385 196.585V198.927H152.043V196.585H154.385ZM154.385 194.244V196.585H152.043V194.244H154.385ZM156.726 194.244V196.585H154.385V194.244H156.726ZM159.068 194.244V196.585H156.726V194.244H159.068ZM161.409 194.244V196.585H159.068V194.244H161.409ZM163.751 194.244V196.585H161.409V194.244H163.751ZM163.751 196.585V198.927H161.409V196.585H163.751ZM163.751 198.927V201.268H161.409V198.927H163.751ZM163.751 201.268V203.61H161.409V201.268H163.751ZM161.409 201.268V203.61H159.068V201.268H161.409ZM159.068 201.268V203.61H156.726V201.268H159.068ZM156.726 201.268V203.61H154.385V201.268H156.726ZM159.068 198.927V201.268H156.726V198.927H159.068ZM161.409 198.927V201.268H159.068V198.927H161.409ZM161.409 196.585V198.927H159.068V196.585H161.409ZM159.068 196.585V198.927H156.726V196.585H159.068ZM156.726 196.585V198.927H154.385V196.585H156.726ZM156.726 198.927V201.268H154.385V198.927H156.726ZM154.385 191.902V194.244H152.043V191.902H154.385ZM154.385 189.561V191.902H152.043V189.561H154.385ZM154.385 187.22V189.561H152.043V187.22H154.385ZM154.385 184.878V187.22H152.043V184.878H154.385ZM154.385 182.537V184.878H152.043V182.537H154.385ZM154.385 180.195V182.537H152.043V180.195H154.385ZM154.385 177.854V180.195H152.043V177.854H154.385ZM154.385 175.512V177.854H152.043V175.512H154.385ZM156.726 177.854V180.195H154.385V177.854H156.726ZM156.726 175.512V177.854H154.385V175.512H156.726ZM159.068 175.512V177.854H156.726V175.512H159.068ZM161.409 175.512V177.854H159.068V175.512H161.409ZM161.409 177.854V180.195H159.068V177.854H161.409ZM161.409 180.195V182.537H159.068V180.195H161.409ZM163.751 180.195V182.537H161.409V180.195H163.751ZM163.751 182.537V184.878H161.409V182.537H163.751ZM163.751 184.878V187.22H161.409V184.878H163.751ZM163.751 187.22V189.561H161.409V187.22H163.751ZM163.751 189.561V191.902H161.409V189.561H163.751ZM163.751 191.902V194.244H161.409V191.902H163.751ZM163.751 177.854V180.195H161.409V177.854H163.751ZM163.751 175.512V177.854H161.409V175.512H163.751ZM159.068 177.854V180.195H156.726V177.854H159.068ZM159.068 180.195V182.537H156.726V180.195H159.068ZM159.068 182.537V184.878H156.726V182.537H159.068ZM159.068 184.878V187.22H156.726V184.878H159.068ZM159.068 187.22V189.561H156.726V187.22H159.068ZM159.068 189.561V191.902H156.726V189.561H159.068ZM156.726 189.561V191.902H154.385V189.561H156.726ZM156.726 191.902V194.244H154.385V191.902H156.726ZM156.726 187.22V189.561H154.385V187.22H156.726ZM156.726 184.878V187.22H154.385V184.878H156.726ZM156.726 182.537V184.878H154.385V182.537H156.726ZM156.726 180.195V182.537H154.385V180.195H156.726ZM161.409 182.537V184.878H159.068V182.537H161.409ZM161.409 184.878V187.22H159.068V184.878H161.409ZM161.409 187.22V189.561H159.068V187.22H161.409ZM161.409 189.561V191.902H159.068V189.561H161.409ZM161.409 191.902V194.244H159.068V191.902H161.409ZM159.068 191.902V194.244H156.726V191.902H159.068ZM137.995 175.512V177.854H135.653V175.512H137.995ZM140.336 175.512V177.854H137.995V175.512H140.336ZM140.336 177.854V180.195H137.995V177.854H140.336ZM140.336 180.195V182.537H137.995V180.195H140.336ZM137.995 180.195V182.537H135.653V180.195H137.995ZM130.97 189.561V191.902H128.629V189.561H130.97ZM130.97 196.585V198.927H128.629V196.585H130.97ZM140.336 189.561V191.902H137.995V189.561H140.336ZM135.653 177.854V180.195H133.312V177.854H135.653ZM135.653 208.293V210.634H133.312V208.293H135.653ZM133.312 205.951V208.293H130.97V205.951H133.312ZM175.431 175.512V177.854H173.089V175.512H175.431ZM177.772 175.512V177.854H175.431V175.512H177.772ZM180.114 175.512V177.854H177.772V175.512H180.114ZM182.455 175.512V177.854H180.114V175.512H182.455ZM182.455 177.854V180.195H180.114V177.854H182.455ZM184.796 177.854V180.195H182.455V177.854H184.796ZM184.796 180.195V182.537H182.455V180.195H184.796ZM184.796 175.512V177.854H182.455V175.512H184.796ZM184.796 182.537V184.878H182.455V182.537H184.796ZM184.796 184.878V187.22H182.455V184.878H184.796ZM184.796 187.22V189.561H182.455V187.22H184.796ZM184.796 189.561V191.902H182.455V189.561H184.796ZM184.796 191.902V194.244H182.455V191.902H184.796ZM184.796 194.244V196.585H182.455V194.244H184.796ZM184.796 196.585V198.927H182.455V196.585H184.796ZM184.796 198.927V201.268H182.455V198.927H184.796ZM184.796 201.268V203.61H182.455V201.268H184.796ZM182.455 201.268V203.61H180.114V201.268H182.455ZM180.114 203.61V205.951H177.772V203.61H180.114ZM177.772 203.61V205.951H175.431V203.61H177.772ZM175.431 203.61V205.951H173.089V203.61H175.431ZM175.431 201.268V203.61H173.089V201.268H175.431ZM175.431 198.927V201.268H173.089V198.927H175.431ZM175.431 196.585V198.927H173.089V196.585H175.431ZM175.431 194.244V196.585H173.089V194.244H175.431ZM177.772 194.244V196.585H175.431V194.244H177.772ZM177.772 191.902V194.244H175.431V191.902H177.772ZM177.772 189.561V191.902H175.431V189.561H177.772ZM177.772 187.22V189.561H175.431V187.22H177.772ZM177.772 184.878V187.22H175.431V184.878H177.772ZM177.772 182.537V184.878H175.431V182.537H177.772ZM177.772 180.195V182.537H175.431V180.195H177.772ZM177.772 177.854V180.195H175.431V177.854H177.772ZM175.431 177.854V180.195H173.089V177.854H175.431ZM175.431 180.195V182.537H173.089V180.195H175.431ZM175.431 182.537V184.878H173.089V182.537H175.431ZM175.431 184.878V187.22H173.089V184.878H175.431ZM175.431 187.22V189.561H173.089V187.22H175.431ZM175.431 189.561V191.902H173.089V189.561H175.431ZM175.431 191.902V194.244H173.089V191.902H175.431ZM180.114 187.22V189.561H177.772V187.22H180.114ZM180.114 184.878V187.22H177.772V184.878H180.114ZM180.114 182.537V184.878H177.772V182.537H180.114ZM180.114 180.195V182.537H177.772V180.195H180.114ZM180.114 177.854V180.195H177.772V177.854H180.114ZM182.455 187.22V189.561H180.114V187.22H182.455ZM182.455 189.561V191.902H180.114V189.561H182.455ZM182.455 184.878V187.22H180.114V184.878H182.455ZM182.455 182.537V184.878H180.114V182.537H182.455ZM182.455 180.195V182.537H180.114V180.195H182.455ZM180.114 194.244V196.585H177.772V194.244H180.114ZM180.114 191.902V194.244H177.772V191.902H180.114ZM180.114 189.561V191.902H177.772V189.561H180.114ZM182.455 191.902V194.244H180.114V191.902H182.455ZM182.455 194.244V196.585H180.114V194.244H182.455ZM182.455 196.585V198.927H180.114V196.585H182.455ZM180.114 198.927V201.268H177.772V198.927H180.114ZM180.114 201.268V203.61H177.772V201.268H180.114ZM180.114 196.585V198.927H177.772V196.585H180.114ZM177.772 196.585V198.927H175.431V196.585H177.772ZM177.772 198.927V201.268H175.431V198.927H177.772ZM177.772 201.268V203.61H175.431V201.268H177.772ZM182.455 198.927V201.268H180.114V198.927H182.455ZM180.114 205.951V208.293H177.772V205.951H180.114ZM177.772 205.951V208.293H175.431V205.951H177.772ZM182.455 205.951V208.293H180.114V205.951H182.455ZM182.455 203.61V205.951H180.114V203.61H182.455ZM184.796 203.61V205.951H182.455V203.61H184.796ZM187.138 203.61V205.951H184.796V203.61H187.138ZM187.138 205.951V208.293H184.796V205.951H187.138ZM184.796 205.951V208.293H182.455V205.951H184.796ZM189.479 205.951V208.293H187.138V205.951H189.479ZM180.114 208.293V210.634H177.772V208.293H180.114ZM182.455 208.293V210.634H180.114V208.293H182.455ZM184.796 208.293V210.634H182.455V208.293H184.796ZM187.138 208.293V210.634H184.796V208.293H187.138ZM189.479 208.293V210.634H187.138V208.293H189.479ZM191.821 208.293V210.634H189.479V208.293H191.821ZM194.162 208.293V210.634H191.821V208.293H194.162ZM196.504 208.293V210.634H194.162V208.293H196.504ZM198.845 208.293V210.634H196.504V208.293H198.845ZM201.187 208.293V210.634H198.845V208.293H201.187ZM198.845 205.951V208.293H196.504V205.951H198.845ZM196.504 205.951V208.293H194.162V205.951H196.504ZM194.162 205.951V208.293H191.821V205.951H194.162ZM196.504 203.61V205.951H194.162V203.61H196.504ZM189.479 217.659V220H187.138V217.659H189.479ZM189.479 215.317V217.659H187.138V215.317H189.479ZM189.479 212.976V215.317H187.138V212.976H189.479ZM191.821 210.634V212.976H189.479V210.634H191.821ZM194.162 210.634V212.976H191.821V210.634H194.162ZM194.162 212.976V215.317H191.821V212.976H194.162ZM194.162 215.317V217.659H191.821V215.317H194.162ZM194.162 217.659V220H191.821V217.659H194.162ZM191.821 217.659V220H189.479V217.659H191.821ZM191.821 212.976V215.317H189.479V212.976H191.821ZM191.821 215.317V217.659H189.479V215.317H191.821ZM196.504 212.976V215.317H194.162V212.976H196.504ZM196.504 210.634V212.976H194.162V210.634H196.504ZM198.845 210.634V212.976H196.504V210.634H198.845ZM201.187 210.634V212.976H198.845V210.634H201.187ZM198.845 212.976V215.317H196.504V212.976H198.845ZM196.504 215.317V217.659H194.162V215.317H196.504ZM182.455 210.634V212.976H180.114V210.634H182.455ZM184.796 210.634V212.976H182.455V210.634H184.796ZM184.796 212.976V215.317H182.455V212.976H184.796ZM187.138 212.976V215.317H184.796V212.976H187.138ZM187.138 215.317V217.659H184.796V215.317H187.138ZM189.479 210.634V212.976H187.138V210.634H189.479ZM187.138 210.634V212.976H184.796V210.634H187.138ZM198.845 175.512V177.854H196.504V175.512H198.845ZM201.187 175.512V177.854H198.845V175.512H201.187ZM203.528 175.512V177.854H201.187V175.512H203.528ZM205.87 177.854V180.195H203.528V177.854H205.87ZM208.211 182.537V184.878H205.87V182.537H208.211ZM208.211 184.878V187.22H205.87V184.878H208.211ZM208.211 187.22V189.561H205.87V187.22H208.211ZM208.211 191.902V194.244H205.87V191.902H208.211ZM208.211 194.244V196.585H205.87V194.244H208.211ZM208.211 196.585V198.927H205.87V196.585H208.211ZM208.211 198.927V201.268H205.87V198.927H208.211ZM208.211 201.268V203.61H205.87V201.268H208.211ZM205.87 201.268V203.61H203.528V201.268H205.87ZM203.528 203.61V205.951H201.187V203.61H203.528ZM201.187 203.61V205.951H198.845V203.61H201.187ZM198.845 203.61V205.951H196.504V203.61H198.845ZM198.845 201.268V203.61H196.504V201.268H198.845ZM198.845 198.927V201.268H196.504V198.927H198.845ZM198.845 194.244V196.585H196.504V194.244H198.845ZM201.187 194.244V196.585H198.845V194.244H201.187ZM201.187 191.902V194.244H198.845V191.902H201.187ZM201.187 189.561V191.902H198.845V189.561H201.187ZM201.187 187.22V189.561H198.845V187.22H201.187ZM201.187 184.878V187.22H198.845V184.878H201.187ZM201.187 182.537V184.878H198.845V182.537H201.187ZM201.187 180.195V182.537H198.845V180.195H201.187ZM201.187 177.854V180.195H198.845V177.854H201.187ZM198.845 177.854V180.195H196.504V177.854H198.845ZM198.845 180.195V182.537H196.504V180.195H198.845ZM198.845 182.537V184.878H196.504V182.537H198.845ZM198.845 184.878V187.22H196.504V184.878H198.845ZM198.845 187.22V189.561H196.504V187.22H198.845ZM198.845 191.902V194.244H196.504V191.902H198.845ZM203.528 187.22V189.561H201.187V187.22H203.528ZM203.528 184.878V187.22H201.187V184.878H203.528ZM203.528 182.537V184.878H201.187V182.537H203.528ZM203.528 180.195V182.537H201.187V180.195H203.528ZM205.87 187.22V189.561H203.528V187.22H205.87ZM205.87 189.561V191.902H203.528V189.561H205.87ZM205.87 184.878V187.22H203.528V184.878H205.87ZM205.87 182.537V184.878H203.528V182.537H205.87ZM203.528 194.244V196.585H201.187V194.244H203.528ZM203.528 191.902V194.244H201.187V191.902H203.528ZM203.528 189.561V191.902H201.187V189.561H203.528ZM205.87 191.902V194.244H203.528V191.902H205.87ZM205.87 194.244V196.585H203.528V194.244H205.87ZM205.87 196.585V198.927H203.528V196.585H205.87ZM203.528 198.927V201.268H201.187V198.927H203.528ZM203.528 201.268V203.61H201.187V201.268H203.528ZM203.528 196.585V198.927H201.187V196.585H203.528ZM201.187 196.585V198.927H198.845V196.585H201.187ZM201.187 198.927V201.268H198.845V198.927H201.187ZM201.187 201.268V203.61H198.845V201.268H201.187ZM205.87 198.927V201.268H203.528V198.927H205.87ZM203.528 205.951V208.293H201.187V205.951H203.528ZM205.87 205.951V208.293H203.528V205.951H205.87ZM205.87 203.61V205.951H203.528V203.61H205.87ZM208.211 203.61V205.951H205.87V203.61H208.211ZM210.553 203.61V205.951H208.211V203.61H210.553ZM210.553 205.951V208.293H208.211V205.951H210.553ZM208.211 205.951V208.293H205.87V205.951H208.211ZM212.894 205.951V208.293H210.553V205.951H212.894ZM205.87 208.293V210.634H203.528V208.293H205.87ZM208.211 208.293V210.634H205.87V208.293H208.211ZM210.553 208.293V210.634H208.211V208.293H210.553ZM212.894 208.293V210.634H210.553V208.293H212.894ZM215.236 208.293V210.634H212.894V208.293H215.236ZM217.577 208.293V210.634H215.236V208.293H217.577ZM219.918 208.293V210.634H217.577V208.293H219.918ZM222.26 208.293V210.634H219.918V208.293H222.26ZM224.601 208.293V210.634H222.26V208.293H224.601ZM226.943 208.293V210.634H224.601V208.293H226.943ZM224.601 205.951V208.293H222.26V205.951H224.601ZM222.26 205.951V208.293H219.918V205.951H222.26ZM219.918 205.951V208.293H217.577V205.951H219.918ZM217.577 205.951V208.293H215.236V205.951H217.577ZM219.918 203.61V205.951H217.577V203.61H219.918ZM222.26 203.61V205.951H219.918V203.61H222.26ZM224.601 203.61V205.951H222.26V203.61H224.601ZM226.943 203.61V205.951H224.601V203.61H226.943ZM229.284 203.61V205.951H226.943V203.61H229.284ZM229.284 205.951V208.293H226.943V205.951H229.284ZM226.943 205.951V208.293H224.601V205.951H226.943ZM231.626 203.61V205.951H229.284V203.61H231.626ZM212.894 217.659V220H210.553V217.659H212.894ZM212.894 215.317V217.659H210.553V215.317H212.894ZM212.894 212.976V215.317H210.553V212.976H212.894ZM215.236 210.634V212.976H212.894V210.634H215.236ZM217.577 210.634V212.976H215.236V210.634H217.577ZM217.577 212.976V215.317H215.236V212.976H217.577ZM217.577 215.317V217.659H215.236V215.317H217.577ZM217.577 217.659V220H215.236V217.659H217.577ZM215.236 217.659V220H212.894V217.659H215.236ZM215.236 212.976V215.317H212.894V212.976H215.236ZM215.236 215.317V217.659H212.894V215.317H215.236ZM219.918 212.976V215.317H217.577V212.976H219.918ZM219.918 210.634V212.976H217.577V210.634H219.918ZM222.26 210.634V212.976H219.918V210.634H222.26ZM224.601 210.634V212.976H222.26V210.634H224.601ZM222.26 212.976V215.317H219.918V212.976H222.26ZM219.918 215.317V217.659H217.577V215.317H219.918ZM205.87 210.634V212.976H203.528V210.634H205.87ZM208.211 210.634V212.976H205.87V210.634H208.211ZM208.211 212.976V215.317H205.87V212.976H208.211ZM210.553 212.976V215.317H208.211V212.976H210.553ZM210.553 215.317V217.659H208.211V215.317H210.553ZM212.894 210.634V212.976H210.553V210.634H212.894ZM210.553 210.634V212.976H208.211V210.634H210.553ZM222.26 201.268V203.61H219.918V201.268H222.26ZM222.26 198.927V201.268H219.918V198.927H222.26ZM222.26 196.585V198.927H219.918V196.585H222.26ZM222.26 194.244V196.585H219.918V194.244H222.26ZM224.601 194.244V196.585H222.26V194.244H224.601ZM226.943 194.244V196.585H224.601V194.244H226.943ZM229.284 194.244V196.585H226.943V194.244H229.284ZM231.626 194.244V196.585H229.284V194.244H231.626ZM231.626 196.585V198.927H229.284V196.585H231.626ZM231.626 198.927V201.268H229.284V198.927H231.626ZM231.626 201.268V203.61H229.284V201.268H231.626ZM229.284 201.268V203.61H226.943V201.268H229.284ZM226.943 201.268V203.61H224.601V201.268H226.943ZM224.601 201.268V203.61H222.26V201.268H224.601ZM226.943 198.927V201.268H224.601V198.927H226.943ZM229.284 198.927V201.268H226.943V198.927H229.284ZM229.284 196.585V198.927H226.943V196.585H229.284ZM226.943 196.585V198.927H224.601V196.585H226.943ZM224.601 196.585V198.927H222.26V196.585H224.601ZM224.601 198.927V201.268H222.26V198.927H224.601ZM222.26 191.902V194.244H219.918V191.902H222.26ZM222.26 189.561V191.902H219.918V189.561H222.26ZM222.26 187.22V189.561H219.918V187.22H222.26ZM222.26 184.878V187.22H219.918V184.878H222.26ZM222.26 182.537V184.878H219.918V182.537H222.26ZM222.26 180.195V182.537H219.918V180.195H222.26ZM222.26 177.854V180.195H219.918V177.854H222.26ZM222.26 175.512V177.854H219.918V175.512H222.26ZM224.601 177.854V180.195H222.26V177.854H224.601ZM224.601 175.512V177.854H222.26V175.512H224.601ZM226.943 175.512V177.854H224.601V175.512H226.943ZM229.284 175.512V177.854H226.943V175.512H229.284ZM229.284 177.854V180.195H226.943V177.854H229.284ZM229.284 180.195V182.537H226.943V180.195H229.284ZM231.626 180.195V182.537H229.284V180.195H231.626ZM231.626 182.537V184.878H229.284V182.537H231.626ZM231.626 184.878V187.22H229.284V184.878H231.626ZM231.626 187.22V189.561H229.284V187.22H231.626ZM231.626 189.561V191.902H229.284V189.561H231.626ZM231.626 191.902V194.244H229.284V191.902H231.626ZM231.626 177.854V180.195H229.284V177.854H231.626ZM231.626 175.512V177.854H229.284V175.512H231.626ZM226.943 177.854V180.195H224.601V177.854H226.943ZM226.943 180.195V182.537H224.601V180.195H226.943ZM226.943 182.537V184.878H224.601V182.537H226.943ZM226.943 184.878V187.22H224.601V184.878H226.943ZM226.943 187.22V189.561H224.601V187.22H226.943ZM226.943 189.561V191.902H224.601V189.561H226.943ZM224.601 189.561V191.902H222.26V189.561H224.601ZM224.601 191.902V194.244H222.26V191.902H224.601ZM224.601 187.22V189.561H222.26V187.22H224.601ZM224.601 184.878V187.22H222.26V184.878H224.601ZM224.601 182.537V184.878H222.26V182.537H224.601ZM224.601 180.195V182.537H222.26V180.195H224.601ZM229.284 182.537V184.878H226.943V182.537H229.284ZM229.284 184.878V187.22H226.943V184.878H229.284ZM229.284 187.22V189.561H226.943V187.22H229.284ZM229.284 189.561V191.902H226.943V189.561H229.284ZM229.284 191.902V194.244H226.943V191.902H229.284ZM226.943 191.902V194.244H224.601V191.902H226.943ZM205.87 175.512V177.854H203.528V175.512H205.87ZM208.211 175.512V177.854H205.87V175.512H208.211ZM208.211 177.854V180.195H205.87V177.854H208.211ZM208.211 180.195V182.537H205.87V180.195H208.211ZM205.87 180.195V182.537H203.528V180.195H205.87ZM198.845 189.561V191.902H196.504V189.561H198.845ZM198.845 196.585V198.927H196.504V196.585H198.845ZM208.211 189.561V191.902H205.87V189.561H208.211ZM203.528 177.854V180.195H201.187V177.854H203.528ZM203.528 208.293V210.634H201.187V208.293H203.528ZM201.187 205.951V208.293H198.845V205.951H201.187ZM273.745 184.878V187.22H271.403V184.878H273.745ZM271.403 184.878V187.22H269.062V184.878H271.403ZM269.062 184.878V187.22H266.72V184.878H269.062ZM266.72 184.878V187.22H264.379V184.878H266.72ZM264.379 182.537V184.878H262.037V182.537H264.379ZM266.72 182.537V184.878H264.379V182.537H266.72ZM269.062 182.537V184.878H266.72V182.537H269.062ZM271.403 182.537V184.878H269.062V182.537H271.403ZM273.745 182.537V184.878H271.403V182.537H273.745ZM273.745 180.195V182.537H271.403V180.195H273.745ZM271.403 180.195V182.537H269.062V180.195H271.403ZM269.062 180.195V182.537H266.72V180.195H269.062ZM266.72 180.195V182.537H264.379V180.195H266.72ZM264.379 180.195V182.537H262.037V180.195H264.379ZM269.062 177.854V180.195H266.72V177.854H269.062ZM271.403 177.854V180.195H269.062V177.854H271.403ZM266.72 177.854V180.195H264.379V177.854H266.72ZM266.72 175.512V177.854H264.379V175.512H266.72ZM264.379 175.512V177.854H262.037V175.512H264.379ZM264.379 177.854V180.195H262.037V177.854H264.379ZM262.037 177.854V180.195H259.696V177.854H262.037ZM262.037 175.512V177.854H259.696V175.512H262.037ZM262.037 180.195V182.537H259.696V180.195H262.037ZM259.696 180.195V182.537H257.354V180.195H259.696ZM259.696 182.537V184.878H257.354V182.537H259.696ZM262.037 182.537V184.878H259.696V182.537H262.037ZM257.354 182.537V184.878H255.013V182.537H257.354ZM257.354 180.195V182.537H255.013V180.195H257.354ZM257.354 177.854V180.195H255.013V177.854H257.354ZM257.354 175.512V177.854H255.013V175.512H257.354ZM259.696 175.512V177.854H257.354V175.512H259.696ZM259.696 177.854V180.195H257.354V177.854H259.696ZM255.013 175.512V177.854H252.671V175.512H255.013ZM252.671 175.512V177.854H250.33V175.512H252.671ZM250.33 175.512V177.854H247.989V175.512H250.33ZM250.33 177.854V180.195H247.989V177.854H250.33ZM250.33 180.195V182.537H247.989V180.195H250.33ZM250.33 182.537V184.878H247.989V182.537H250.33ZM252.671 182.537V184.878H250.33V182.537H252.671ZM255.013 182.537V184.878H252.671V182.537H255.013ZM255.013 180.195V182.537H252.671V180.195H255.013ZM255.013 177.854V180.195H252.671V177.854H255.013ZM252.671 177.854V180.195H250.33V177.854H252.671ZM252.671 180.195V182.537H250.33V180.195H252.671ZM247.989 180.195V182.537H245.647V180.195H247.989ZM247.989 177.854V180.195H245.647V177.854H247.989ZM245.647 177.854V180.195H243.306V177.854H245.647ZM245.647 180.195V182.537H243.306V180.195H245.647ZM243.306 180.195V182.537H240.964V180.195H243.306ZM243.306 182.537V184.878H240.964V182.537H243.306ZM243.306 184.878V187.22H240.964V184.878H243.306ZM245.647 184.878V187.22H243.306V184.878H245.647ZM245.647 182.537V184.878H243.306V182.537H245.647ZM247.989 182.537V184.878H245.647V182.537H247.989ZM247.989 184.878V187.22H245.647V184.878H247.989ZM250.33 184.878V187.22H247.989V184.878H250.33ZM252.671 184.878V187.22H250.33V184.878H252.671ZM240.964 184.878V187.22H238.623V184.878H240.964ZM240.964 187.22V189.561H238.623V187.22H240.964ZM240.964 189.561V191.902H238.623V189.561H240.964ZM240.964 205.951V208.293H238.623V205.951H240.964ZM243.306 205.951V208.293H240.964V205.951H243.306ZM243.306 208.293V210.634H240.964V208.293H243.306ZM240.964 208.293V210.634H238.623V208.293H240.964ZM245.647 208.293V210.634H243.306V208.293H245.647ZM247.989 208.293V210.634H245.647V208.293H247.989ZM250.33 208.293V210.634H247.989V208.293H250.33ZM252.671 208.293V210.634H250.33V208.293H252.671ZM250.33 205.951V208.293H247.989V205.951H250.33ZM250.33 189.561V191.902H247.989V189.561H250.33ZM250.33 187.22V189.561H247.989V187.22H250.33ZM247.989 187.22V189.561H245.647V187.22H247.989ZM245.647 187.22V189.561H243.306V187.22H245.647ZM243.306 187.22V189.561H240.964V187.22H243.306ZM243.306 189.561V191.902H240.964V189.561H243.306ZM245.647 205.951V208.293H243.306V205.951H245.647ZM247.989 205.951V208.293H245.647V205.951H247.989ZM245.647 189.561V191.902H243.306V189.561H245.647ZM247.989 189.561V191.902H245.647V189.561H247.989ZM266.72 203.61V205.951H264.379V203.61H266.72ZM266.72 205.951V208.293H264.379V205.951H266.72ZM269.062 205.951V208.293H266.72V205.951H269.062ZM271.403 205.951V208.293H269.062V205.951H271.403ZM273.745 205.951V208.293H271.403V205.951H273.745ZM276.086 205.951V208.293H273.745V205.951H276.086ZM276.086 203.61V205.951H273.745V203.61H276.086ZM273.745 203.61V205.951H271.403V203.61H273.745ZM271.403 203.61V205.951H269.062V203.61H271.403ZM269.062 203.61V205.951H266.72V203.61H269.062ZM276.086 208.293V210.634H273.745V208.293H276.086ZM273.745 208.293V210.634H271.403V208.293H273.745ZM271.403 208.293V210.634H269.062V208.293H271.403ZM269.062 208.293V210.634H266.72V208.293H269.062ZM266.72 208.293V210.634H264.379V208.293H266.72ZM264.379 208.293V210.634H262.037V208.293H264.379ZM264.379 210.634V212.976H262.037V210.634H264.379ZM266.72 210.634V212.976H264.379V210.634H266.72ZM269.062 210.634V212.976H266.72V210.634H269.062ZM271.403 210.634V212.976H269.062V210.634H271.403ZM271.403 212.976V215.317H269.062V212.976H271.403ZM273.745 212.976V215.317H271.403V212.976H273.745ZM273.745 210.634V212.976H271.403V210.634H273.745ZM271.403 215.317V217.659H269.062V215.317H271.403ZM269.062 215.317V217.659H266.72V215.317H269.062ZM269.062 212.976V215.317H266.72V212.976H269.062ZM266.72 212.976V215.317H264.379V212.976H266.72ZM266.72 215.317V217.659H264.379V215.317H266.72ZM266.72 217.659V220H264.379V217.659H266.72ZM264.379 217.659V220H262.037V217.659H264.379ZM262.037 217.659V220H259.696V217.659H262.037ZM259.696 217.659V220H257.354V217.659H259.696ZM257.354 217.659V220H255.013V217.659H257.354ZM255.013 217.659V220H252.671V217.659H255.013ZM252.671 217.659V220H250.33V217.659H252.671ZM250.33 217.659V220H247.989V217.659H250.33ZM252.671 215.317V217.659H250.33V215.317H252.671ZM255.013 215.317V217.659H252.671V215.317H255.013ZM257.354 215.317V217.659H255.013V215.317H257.354ZM259.696 215.317V217.659H257.354V215.317H259.696ZM262.037 215.317V217.659H259.696V215.317H262.037ZM264.379 215.317V217.659H262.037V215.317H264.379ZM264.379 212.976V215.317H262.037V212.976H264.379ZM262.037 212.976V215.317H259.696V212.976H262.037ZM259.696 212.976V215.317H257.354V212.976H259.696ZM257.354 212.976V215.317H255.013V212.976H257.354ZM255.013 212.976V215.317H252.671V212.976H255.013ZM252.671 212.976V215.317H250.33V212.976H252.671ZM250.33 215.317V217.659H247.989V215.317H250.33ZM247.989 215.317V217.659H245.647V215.317H247.989ZM245.647 215.317V217.659H243.306V215.317H245.647ZM245.647 212.976V215.317H243.306V212.976H245.647ZM243.306 212.976V215.317H240.964V212.976H243.306ZM243.306 210.634V212.976H240.964V210.634H243.306ZM245.647 210.634V212.976H243.306V210.634H245.647ZM247.989 210.634V212.976H245.647V210.634H247.989ZM250.33 210.634V212.976H247.989V210.634H250.33ZM252.671 210.634V212.976H250.33V210.634H252.671ZM255.013 210.634V212.976H252.671V210.634H255.013ZM257.354 210.634V212.976H255.013V210.634H257.354ZM259.696 210.634V212.976H257.354V210.634H259.696ZM262.037 210.634V212.976H259.696V210.634H262.037ZM250.33 212.976V215.317H247.989V212.976H250.33ZM247.989 212.976V215.317H245.647V212.976H247.989ZM271.403 198.927V201.268H269.062V198.927H271.403ZM276.086 201.268V203.61H273.745V201.268H276.086ZM273.745 201.268V203.61H271.403V201.268H273.745ZM271.403 201.268V203.61H269.062V201.268H271.403ZM269.062 201.268V203.61H266.72V201.268H269.062ZM269.062 198.927V201.268H266.72V198.927H269.062ZM266.72 198.927V201.268H264.379V198.927H266.72ZM266.72 201.268V203.61H264.379V201.268H266.72ZM252.671 189.561V191.902H250.33V189.561H252.671ZM243.306 191.902V194.244H240.964V191.902H243.306ZM243.306 194.244V196.585H240.964V194.244H243.306ZM245.647 194.244V196.585H243.306V194.244H245.647ZM245.647 196.585V198.927H243.306V196.585H245.647ZM247.989 196.585V198.927H245.647V196.585H247.989ZM250.33 198.927V201.268H247.989V198.927H250.33ZM250.33 196.585V198.927H247.989V196.585H250.33ZM250.33 194.244V196.585H247.989V194.244H250.33ZM250.33 191.902V194.244H247.989V191.902H250.33ZM247.989 191.902V194.244H245.647V191.902H247.989ZM247.989 194.244V196.585H245.647V194.244H247.989ZM245.647 191.902V194.244H243.306V191.902H245.647ZM252.671 198.927V201.268H250.33V198.927H252.671ZM255.013 198.927V201.268H252.671V198.927H255.013ZM257.354 198.927V201.268H255.013V198.927H257.354ZM259.696 198.927V201.268H257.354V198.927H259.696ZM259.696 196.585V198.927H257.354V196.585H259.696ZM257.354 196.585V198.927H255.013V196.585H257.354ZM255.013 196.585V198.927H252.671V196.585H255.013ZM252.671 196.585V198.927H250.33V196.585H252.671ZM252.671 194.244V196.585H250.33V194.244H252.671ZM252.671 191.902V194.244H250.33V191.902H252.671ZM255.013 191.902V194.244H252.671V191.902H255.013ZM257.354 191.902V194.244H255.013V191.902H257.354ZM259.696 191.902V194.244H257.354V191.902H259.696ZM259.696 194.244V196.585H257.354V194.244H259.696ZM257.354 194.244V196.585H255.013V194.244H257.354ZM255.013 194.244V196.585H252.671V194.244H255.013ZM262.037 191.902V194.244H259.696V191.902H262.037ZM264.379 191.902V194.244H262.037V191.902H264.379ZM264.379 194.244V196.585H262.037V194.244H264.379ZM264.379 196.585V198.927H262.037V196.585H264.379ZM264.379 198.927V201.268H262.037V198.927H264.379ZM262.037 198.927V201.268H259.696V198.927H262.037ZM262.037 196.585V198.927H259.696V196.585H262.037ZM262.037 194.244V196.585H259.696V194.244H262.037ZM264.379 201.268V203.61H262.037V201.268H264.379ZM266.72 191.902V194.244H264.379V191.902H266.72ZM273.745 198.927V201.268H271.403V198.927H273.745ZM273.745 196.585V198.927H271.403V196.585H273.745ZM271.403 194.244V196.585H269.062V194.244H271.403ZM269.062 194.244V196.585H266.72V194.244H269.062ZM266.72 194.244V196.585H264.379V194.244H266.72ZM266.72 196.585V198.927H264.379V196.585H266.72ZM269.062 196.585V198.927H266.72V196.585H269.062ZM271.403 196.585V198.927H269.062V196.585H271.403ZM264.379 184.878V187.22H262.037V184.878H264.379ZM290.176 205.951V203.61H292.518V205.951H290.176ZM287.835 205.951V203.61H290.176V205.951H287.835ZM285.493 205.951V203.61H287.835V205.951H285.493ZM283.152 205.951V203.61H285.493V205.951H283.152ZM280.81 205.951V203.61H283.152V205.951H280.81ZM280.81 208.293V205.951H283.152V208.293H280.81ZM280.81 210.634V208.293H283.152V210.634H280.81ZM283.152 210.634V208.293H285.493V210.634H283.152ZM285.493 210.634V208.293H287.835V210.634H285.493ZM287.835 210.634V208.293H290.176V210.634H287.835ZM287.835 208.293V205.951H290.176V208.293H287.835ZM290.176 208.293V205.951H292.518V208.293H290.176ZM285.493 208.293V205.951H287.835V208.293H285.493ZM283.152 208.293V205.951H285.493V208.293H283.152ZM290.176 210.634V208.293H292.518V210.634H290.176ZM292.518 210.634V208.293H294.859V210.634H292.518ZM292.518 212.976V210.634H294.859V212.976H292.518ZM290.176 212.976V210.634H292.518V212.976H290.176ZM287.835 212.976V210.634H290.176V212.976H287.835ZM285.493 212.976V210.634H287.835V212.976H285.493ZM283.152 212.976V210.634H285.493V212.976H283.152ZM283.152 215.317V212.976H285.493V215.317H283.152ZM285.493 215.317V212.976H287.835V215.317H285.493ZM287.835 215.317V212.976H290.176V215.317H287.835ZM290.176 215.317V212.976H292.518V215.317H290.176ZM292.518 215.317V212.976H294.859V215.317H292.518ZM287.835 217.659V215.317H290.176V217.659H287.835ZM285.493 217.659V215.317H287.835V217.659H285.493ZM290.176 217.659V215.317H292.518V217.659H290.176ZM290.176 220V217.659H292.518V220H290.176ZM292.518 220V217.659H294.859V220H292.518ZM292.518 217.659V215.317H294.859V217.659H292.518ZM294.859 217.659V215.317H297.2V217.659H294.859ZM294.859 220V217.659H297.2V220H294.859ZM294.859 215.317V212.976H297.2V215.317H294.859ZM297.2 215.317V212.976H299.542V215.317H297.2ZM297.2 212.976V210.634H299.542V212.976H297.2ZM294.859 212.976V210.634H297.2V212.976H294.859ZM299.542 212.976V210.634H301.883V212.976H299.542ZM299.542 215.317V212.976H301.883V215.317H299.542ZM299.542 217.659V215.317H301.883V217.659H299.542ZM299.542 220V217.659H301.883V220H299.542ZM297.2 220V217.659H299.542V220H297.2ZM297.2 217.659V215.317H299.542V217.659H297.2ZM301.883 220V217.659H304.225V220H301.883ZM306.566 217.659V215.317H308.908V217.659H306.566ZM306.566 215.317V212.976H308.908V215.317H306.566ZM306.566 212.976V210.634H308.908V212.976H306.566ZM304.225 212.976V210.634H306.566V212.976H304.225ZM301.883 212.976V210.634H304.225V212.976H301.883ZM301.883 215.317V212.976H304.225V215.317H301.883ZM301.883 217.659V215.317H304.225V217.659H301.883ZM304.225 217.659V215.317H306.566V217.659H304.225ZM304.225 215.317V212.976H306.566V215.317H304.225ZM308.908 215.317V212.976H311.249V215.317H308.908ZM308.908 217.659V215.317H311.249V217.659H308.908ZM311.249 217.659V215.317H313.591V217.659H311.249ZM311.249 215.317V212.976H313.591V215.317H311.249ZM313.591 215.317V212.976H315.932V215.317H313.591ZM313.591 212.976V210.634H315.932V212.976H313.591ZM313.591 210.634V208.293H315.932V210.634H313.591ZM311.249 210.634V208.293H313.591V210.634H311.249ZM311.249 212.976V210.634H313.591V212.976H311.249ZM308.908 212.976V210.634H311.249V212.976H308.908ZM308.908 210.634V208.293H311.249V210.634H308.908ZM306.566 210.634V208.293H308.908V210.634H306.566ZM315.932 210.634V208.293H318.274V210.634H315.932ZM315.932 208.293V205.951H318.274V208.293H315.932ZM315.932 205.951V203.61H318.274V205.951H315.932ZM315.932 203.61V201.268H318.274V203.61H315.932ZM315.932 201.268V198.927H318.274V201.268H315.932ZM315.932 198.927V196.585H318.274V198.927H315.932ZM315.932 196.585V194.244H318.274V196.585H315.932ZM315.932 194.244V191.902H318.274V194.244H315.932ZM315.932 191.902V189.561H318.274V191.902H315.932ZM315.932 189.561V187.22H318.274V189.561H315.932ZM313.591 189.561V187.22H315.932V189.561H313.591ZM313.591 187.22V184.878H315.932V187.22H313.591ZM315.932 187.22V184.878H318.274V187.22H315.932ZM311.249 187.22V184.878H313.591V187.22H311.249ZM308.908 187.22V184.878H311.249V187.22H308.908ZM306.566 187.22V184.878H308.908V187.22H306.566ZM304.225 187.22V184.878H306.566V187.22H304.225ZM306.566 189.561V187.22H308.908V189.561H306.566ZM306.566 191.902V189.561H308.908V191.902H306.566ZM306.566 194.244V191.902H308.908V194.244H306.566ZM306.566 196.585V194.244H308.908V196.585H306.566ZM306.566 198.927V196.585H308.908V198.927H306.566ZM306.566 201.268V198.927H308.908V201.268H306.566ZM306.566 203.61V201.268H308.908V203.61H306.566ZM306.566 205.951V203.61H308.908V205.951H306.566ZM306.566 208.293V205.951H308.908V208.293H306.566ZM308.908 208.293V205.951H311.249V208.293H308.908ZM311.249 208.293V205.951H313.591V208.293H311.249ZM313.591 208.293V205.951H315.932V208.293H313.591ZM313.591 205.951V203.61H315.932V205.951H313.591ZM313.591 203.61V201.268H315.932V203.61H313.591ZM313.591 201.268V198.927H315.932V201.268H313.591ZM313.591 198.927V196.585H315.932V198.927H313.591ZM313.591 196.585V194.244H315.932V196.585H313.591ZM313.591 194.244V191.902H315.932V194.244H313.591ZM313.591 191.902V189.561H315.932V191.902H313.591ZM311.249 189.561V187.22H313.591V189.561H311.249ZM308.908 189.561V187.22H311.249V189.561H308.908ZM308.908 191.902V189.561H311.249V191.902H308.908ZM308.908 194.244V191.902H311.249V194.244H308.908ZM308.908 196.585V194.244H311.249V196.585H308.908ZM308.908 198.927V196.585H311.249V198.927H308.908ZM311.249 198.927V196.585H313.591V198.927H311.249ZM311.249 201.268V198.927H313.591V201.268H311.249ZM311.249 203.61V201.268H313.591V203.61H311.249ZM311.249 205.951V203.61H313.591V205.951H311.249ZM308.908 205.951V203.61H311.249V205.951H308.908ZM308.908 203.61V201.268H311.249V203.61H308.908ZM308.908 201.268V198.927H311.249V201.268H308.908ZM311.249 194.244V191.902H313.591V194.244H311.249ZM311.249 191.902V189.561H313.591V191.902H311.249ZM311.249 196.585V194.244H313.591V196.585H311.249ZM290.176 189.561V187.22H292.518V189.561H290.176ZM287.835 189.561V187.22H290.176V189.561H287.835ZM285.493 189.561V187.22H287.835V189.561H285.493ZM283.152 189.561V187.22H285.493V189.561H283.152ZM280.81 189.561V187.22H283.152V189.561H280.81ZM280.81 187.22V184.878H283.152V187.22H280.81ZM283.152 187.22V184.878H285.493V187.22H283.152ZM285.493 187.22V184.878H287.835V187.22H285.493ZM287.835 187.22V184.878H290.176V187.22H287.835ZM290.176 187.22V184.878H292.518V187.22H290.176ZM292.518 187.22V184.878H294.859V187.22H292.518ZM292.518 184.878V182.537H294.859V184.878H292.518ZM290.176 184.878V182.537H292.518V184.878H290.176ZM287.835 184.878V182.537H290.176V184.878H287.835ZM285.493 184.878V182.537H287.835V184.878H285.493ZM285.493 182.537V180.195H287.835V182.537H285.493ZM283.152 182.537V180.195H285.493V182.537H283.152ZM283.152 184.878V182.537H285.493V184.878H283.152ZM285.493 180.195V177.854H287.835V180.195H285.493ZM287.835 180.195V177.854H290.176V180.195H287.835ZM287.835 182.537V180.195H290.176V182.537H287.835ZM290.176 182.537V180.195H292.518V182.537H290.176ZM290.176 180.195V177.854H292.518V180.195H290.176ZM290.176 177.854V175.512H292.518V177.854H290.176ZM292.518 177.854V175.512H294.859V177.854H292.518ZM294.859 177.854V175.512H297.2V177.854H294.859ZM297.2 177.854V175.512H299.542V177.854H297.2ZM299.542 177.854V175.512H301.883V177.854H299.542ZM301.883 177.854V175.512H304.225V177.854H301.883ZM304.225 177.854V175.512H306.566V177.854H304.225ZM306.566 177.854V175.512H308.908V177.854H306.566ZM304.225 180.195V177.854H306.566V180.195H304.225ZM301.883 180.195V177.854H304.225V180.195H301.883ZM299.542 180.195V177.854H301.883V180.195H299.542ZM297.2 180.195V177.854H299.542V180.195H297.2ZM294.859 180.195V177.854H297.2V180.195H294.859ZM292.518 180.195V177.854H294.859V180.195H292.518ZM292.518 182.537V180.195H294.859V182.537H292.518ZM294.859 182.537V180.195H297.2V182.537H294.859ZM297.2 182.537V180.195H299.542V182.537H297.2ZM299.542 182.537V180.195H301.883V182.537H299.542ZM301.883 182.537V180.195H304.225V182.537H301.883ZM304.225 182.537V180.195H306.566V182.537H304.225ZM306.566 180.195V177.854H308.908V180.195H306.566ZM308.908 180.195V177.854H311.249V180.195H308.908ZM311.249 180.195V177.854H313.591V180.195H311.249ZM311.249 182.537V180.195H313.591V182.537H311.249ZM313.591 182.537V180.195H315.932V182.537H313.591ZM313.591 184.878V182.537H315.932V184.878H313.591ZM311.249 184.878V182.537H313.591V184.878H311.249ZM308.908 184.878V182.537H311.249V184.878H308.908ZM306.566 184.878V182.537H308.908V184.878H306.566ZM304.225 184.878V182.537H306.566V184.878H304.225ZM301.883 184.878V182.537H304.225V184.878H301.883ZM299.542 184.878V182.537H301.883V184.878H299.542ZM297.2 184.878V182.537H299.542V184.878H297.2ZM294.859 184.878V182.537H297.2V184.878H294.859ZM306.566 182.537V180.195H308.908V182.537H306.566ZM308.908 182.537V180.195H311.249V182.537H308.908ZM283.152 203.61V201.268H285.493V203.61H283.152ZM285.493 203.61V201.268H287.835V203.61H285.493ZM287.835 203.61V201.268H290.176V203.61H287.835ZM290.176 203.61V201.268H292.518V203.61H290.176ZM285.493 201.268V198.927H287.835V201.268H285.493ZM287.835 201.268V198.927H290.176V201.268H287.835ZM292.518 201.268V198.927H294.859V201.268H292.518ZM294.859 201.268V198.927H297.2V201.268H294.859ZM297.2 201.268V198.927H299.542V201.268H297.2ZM299.542 201.268V198.927H301.883V201.268H299.542ZM301.883 201.268V198.927H304.225V201.268H301.883ZM304.225 201.268V198.927H306.566V201.268H304.225ZM290.176 201.268V198.927H292.518V201.268H290.176ZM283.152 201.268V198.927H285.493V201.268H283.152ZM285.493 198.927V196.585H287.835V198.927H285.493ZM287.835 198.927V196.585H290.176V198.927H287.835ZM290.176 198.927V196.585H292.518V198.927H290.176ZM292.518 198.927V196.585H294.859V198.927H292.518ZM294.859 198.927V196.585H297.2V198.927H294.859ZM297.2 198.927V196.585H299.542V198.927H297.2ZM299.542 198.927V196.585H301.883V198.927H299.542ZM301.883 198.927V196.585H304.225V198.927H301.883ZM304.225 198.927V196.585H306.566V198.927H304.225ZM304.225 196.585V194.244H306.566V196.585H304.225ZM301.883 196.585V194.244H304.225V196.585H301.883ZM299.542 196.585V194.244H301.883V196.585H299.542ZM294.859 196.585V194.244H297.2V196.585H294.859ZM292.518 196.585V194.244H294.859V196.585H292.518ZM290.176 196.585V194.244H292.518V196.585H290.176ZM297.2 196.585V194.244H299.542V196.585H297.2ZM318.274 210.634V212.976H315.932V210.634H318.274ZM318.274 212.976V215.317H315.932V212.976H318.274ZM318.274 215.317V217.659H315.932V215.317H318.274ZM318.274 217.659V220H315.932V217.659H318.274ZM315.932 217.659V220H313.591V217.659H315.932ZM315.932 215.317V217.659H313.591V215.317H315.932ZM313.591 217.659V220H311.249V217.659H313.591ZM311.249 217.659V220H308.908V217.659H311.249ZM308.908 217.659V220H306.566V217.659H308.908ZM306.566 208.293V210.634H304.225V208.293H306.566ZM290.176 217.659V220H287.835V217.659H290.176ZM294.859 201.268V203.61H292.518V201.268H294.859ZM330.024 217.659V220H327.683V217.659H330.024ZM330.024 215.317V217.659H327.683V215.317H330.024ZM330.024 212.976V215.317H327.683V212.976H330.024ZM330.024 210.634V212.976H327.683V210.634H330.024ZM330.024 208.293V210.634H327.683V208.293H330.024ZM330.024 205.951V208.293H327.683V205.951H330.024ZM330.024 203.61V205.951H327.683V203.61H330.024ZM330.024 201.268V203.61H327.683V201.268H330.024ZM330.024 198.927V201.268H327.683V198.927H330.024ZM330.024 196.585V198.927H327.683V196.585H330.024ZM330.024 194.244V196.585H327.683V194.244H330.024ZM330.024 191.902V194.244H327.683V191.902H330.024ZM330.024 189.561V191.902H327.683V189.561H330.024ZM330.024 187.22V189.561H327.683V187.22H330.024ZM330.024 184.878V187.22H327.683V184.878H330.024ZM332.366 184.878V187.22H330.024V184.878H332.366ZM332.366 187.22V189.561H330.024V187.22H332.366ZM332.366 189.561V191.902H330.024V189.561H332.366ZM332.366 191.902V194.244H330.024V191.902H332.366ZM332.366 194.244V196.585H330.024V194.244H332.366ZM332.366 196.585V198.927H330.024V196.585H332.366ZM332.366 198.927V201.268H330.024V198.927H332.366ZM334.707 201.268V203.61H332.366V201.268H334.707ZM334.707 203.61V205.951H332.366V203.61H334.707ZM334.707 205.951V208.293H332.366V205.951H334.707ZM334.707 208.293V210.634H332.366V208.293H334.707ZM334.707 210.634V212.976H332.366V210.634H334.707ZM334.707 212.976V215.317H332.366V212.976H334.707ZM334.707 215.317V217.659H332.366V215.317H334.707ZM334.707 217.659V220H332.366V217.659H334.707ZM337.049 217.659V220H334.707V217.659H337.049ZM339.39 217.659V220H337.049V217.659H339.39ZM339.39 215.317V217.659H337.049V215.317H339.39ZM339.39 212.976V215.317H337.049V212.976H339.39ZM339.39 210.634V212.976H337.049V210.634H339.39ZM339.39 208.293V210.634H337.049V208.293H339.39ZM339.39 205.951V208.293H337.049V205.951H339.39ZM339.39 203.61V205.951H337.049V203.61H339.39ZM339.39 201.268V203.61H337.049V201.268H339.39ZM337.049 201.268V203.61H334.707V201.268H337.049ZM337.049 198.927V201.268H334.707V198.927H337.049ZM337.049 203.61V205.951H334.707V203.61H337.049ZM337.049 205.951V208.293H334.707V205.951H337.049ZM337.049 208.293V210.634H334.707V208.293H337.049ZM337.049 210.634V212.976H334.707V210.634H337.049ZM337.049 212.976V215.317H334.707V212.976H337.049ZM337.049 215.317V217.659H334.707V215.317H337.049ZM332.366 217.659V220H330.024V217.659H332.366ZM332.366 215.317V217.659H330.024V215.317H332.366ZM332.366 212.976V215.317H330.024V212.976H332.366ZM332.366 210.634V212.976H330.024V210.634H332.366ZM332.366 208.293V210.634H330.024V208.293H332.366ZM332.366 205.951V208.293H330.024V205.951H332.366ZM332.366 203.61V205.951H330.024V203.61H332.366ZM332.366 201.268V203.61H330.024V201.268H332.366ZM330.024 161.463V163.805H327.683V161.463H330.024ZM330.024 163.805V166.146H327.683V163.805H330.024ZM330.024 166.146V168.488H327.683V166.146H330.024ZM330.024 168.488V170.829H327.683V168.488H330.024ZM330.024 170.829V173.171H327.683V170.829H330.024ZM330.024 173.171V175.512H327.683V173.171H330.024ZM330.024 175.512V177.854H327.683V175.512H330.024ZM330.024 177.854V180.195H327.683V177.854H330.024ZM330.024 180.195V182.537H327.683V180.195H330.024ZM330.024 182.537V184.878H327.683V182.537H330.024ZM337.049 161.463V163.805H334.707V161.463H337.049ZM337.049 163.805V166.146H334.707V163.805H337.049ZM337.049 166.146V168.488H334.707V166.146H337.049ZM337.049 168.488V170.829H334.707V168.488H337.049ZM337.049 170.829V173.171H334.707V170.829H337.049ZM337.049 173.171V175.512H334.707V173.171H337.049ZM337.049 177.854V180.195H334.707V177.854H337.049ZM337.049 180.195V182.537H334.707V180.195H337.049ZM337.049 182.537V184.878H334.707V182.537H337.049ZM337.049 184.878V187.22H334.707V184.878H337.049ZM337.049 187.22V189.561H334.707V187.22H337.049ZM337.049 189.561V191.902H334.707V189.561H337.049ZM337.049 191.902V194.244H334.707V191.902H337.049ZM339.39 194.244V196.585H337.049V194.244H339.39ZM339.39 196.585V198.927H337.049V196.585H339.39ZM339.39 198.927V201.268H337.049V198.927H339.39ZM339.39 191.902V194.244H337.049V191.902H339.39ZM339.39 189.561V191.902H337.049V189.561H339.39ZM339.39 187.22V189.561H337.049V187.22H339.39ZM339.39 184.878V187.22H337.049V184.878H339.39ZM339.39 182.537V184.878H337.049V182.537H339.39ZM339.39 180.195V182.537H337.049V180.195H339.39ZM339.39 177.854V180.195H337.049V177.854H339.39ZM339.39 175.512V177.854H337.049V175.512H339.39ZM339.39 173.171V175.512H337.049V173.171H339.39ZM339.39 170.829V173.171H337.049V170.829H339.39ZM337.049 175.512V177.854H334.707V175.512H337.049ZM339.39 168.488V170.829H337.049V168.488H339.39ZM339.39 166.146V168.488H337.049V166.146H339.39ZM339.39 163.805V166.146H337.049V163.805H339.39ZM339.39 161.463V163.805H337.049V161.463H339.39ZM334.707 161.463V163.805H332.366V161.463H334.707ZM332.366 161.463V163.805H330.024V161.463H332.366ZM332.366 163.805V166.146H330.024V163.805H332.366ZM334.707 163.805V166.146H332.366V163.805H334.707ZM334.707 166.146V168.488H332.366V166.146H334.707ZM334.707 168.488V170.829H332.366V168.488H334.707ZM334.707 170.829V173.171H332.366V170.829H334.707ZM334.707 173.171V175.512H332.366V173.171H334.707ZM334.707 175.512V177.854H332.366V175.512H334.707ZM334.707 177.854V180.195H332.366V177.854H334.707ZM332.366 180.195V182.537H330.024V180.195H332.366ZM332.366 182.537V184.878H330.024V182.537H332.366ZM332.366 177.854V180.195H330.024V177.854H332.366ZM332.366 175.512V177.854H330.024V175.512H332.366ZM332.366 173.171V175.512H330.024V173.171H332.366ZM332.366 170.829V173.171H330.024V170.829H332.366ZM332.366 168.488V170.829H330.024V168.488H332.366ZM332.366 166.146V168.488H330.024V166.146H332.366ZM334.707 180.195V182.537H332.366V180.195H334.707ZM334.707 182.537V184.878H332.366V182.537H334.707ZM334.707 184.878V187.22H332.366V184.878H334.707ZM334.707 187.22V189.561H332.366V187.22H334.707ZM334.707 189.561V191.902H332.366V189.561H334.707ZM334.707 191.902V194.244H332.366V191.902H334.707ZM334.707 194.244V196.585H332.366V194.244H334.707ZM334.707 196.585V198.927H332.366V196.585H334.707ZM334.707 198.927V201.268H332.366V198.927H334.707ZM337.049 196.585V198.927H334.707V196.585H337.049ZM337.049 194.244V196.585H334.707V194.244H337.049Z" fill="#30310F"/>
<path d="M56.168 252.12C55.224 252.12 54.376 251.976 53.624 251.688C52.872 251.4 52.272 250.992 51.824 250.464C51.392 249.936 51.176 249.312 51.176 248.592C51.176 247.984 51.336 247.432 51.656 246.936C51.992 246.44 52.52 246.008 53.24 245.64C53.976 245.256 54.936 244.936 56.12 244.68C57.192 244.44 57.928 244.136 58.328 243.768C58.744 243.384 58.952 242.904 58.952 242.328C58.952 241.768 58.712 241.312 58.232 240.96C57.752 240.592 57.088 240.408 56.24 240.408C55.568 240.408 54.944 240.528 54.368 240.768C53.808 240.992 53.344 241.32 52.976 241.752C52.8 241.944 52.6 242.064 52.376 242.112C52.152 242.16 51.96 242.136 51.8 242.04C51.544 241.896 51.392 241.712 51.344 241.488C51.296 241.248 51.352 241.032 51.512 240.84C51.976 240.216 52.608 239.712 53.408 239.328C54.208 238.944 55.144 238.752 56.216 238.752C57.096 238.752 57.88 238.896 58.568 239.184C59.256 239.456 59.792 239.864 60.176 240.408C60.56 240.952 60.752 241.616 60.752 242.4C60.752 243.232 60.432 243.976 59.792 244.632C59.152 245.272 58.088 245.76 56.6 246.096C55.24 246.4 54.304 246.744 53.792 247.128C53.28 247.512 53.024 247.992 53.024 248.568C53.024 249.192 53.272 249.664 53.768 249.984C54.28 250.288 55.064 250.44 56.12 250.44C56.92 250.44 57.632 250.344 58.256 250.152C58.896 249.96 59.424 249.624 59.84 249.144C60 248.968 60.192 248.856 60.416 248.808C60.64 248.744 60.864 248.8 61.088 248.976C61.296 249.152 61.408 249.352 61.424 249.576C61.44 249.8 61.36 250.008 61.184 250.2C60.64 250.792 59.904 251.264 58.976 251.616C58.048 251.952 57.112 252.12 56.168 252.12ZM65.4944 257.616C65.2064 257.616 64.9744 257.528 64.7984 257.352C64.6384 257.192 64.5584 256.968 64.5584 256.68V245.352C64.5744 244.104 64.8704 242.984 65.4464 241.992C66.0384 240.984 66.8304 240.192 67.8224 239.616C68.8304 239.04 69.9584 238.752 71.2064 238.752C72.4864 238.752 73.6304 239.048 74.6384 239.64C75.6464 240.216 76.4384 241.008 77.0144 242.016C77.6064 243.024 77.9024 244.168 77.9024 245.448C77.9024 246.712 77.6144 247.848 77.0384 248.856C76.4784 249.864 75.7104 250.664 74.7344 251.256C73.7584 251.832 72.6544 252.12 71.4224 252.12C70.3504 252.12 69.3744 251.896 68.4944 251.448C67.6304 250.984 66.9344 250.376 66.4064 249.624V256.68C66.4064 256.968 66.3184 257.192 66.1424 257.352C65.9824 257.528 65.7664 257.616 65.4944 257.616ZM71.2064 250.44C72.1344 250.44 72.9664 250.224 73.7024 249.792C74.4384 249.36 75.0144 248.768 75.4304 248.016C75.8624 247.248 76.0784 246.392 76.0784 245.448C76.0784 244.488 75.8624 243.632 75.4304 242.88C75.0144 242.128 74.4384 241.536 73.7024 241.104C72.9664 240.656 72.1344 240.432 71.2064 240.432C70.2944 240.432 69.4704 240.656 68.7344 241.104C67.9984 241.536 67.4224 242.128 67.0064 242.88C66.5904 243.632 66.3824 244.488 66.3824 245.448C66.3824 246.392 66.5904 247.248 67.0064 248.016C67.4224 248.768 67.9984 249.36 68.7344 249.792C69.4704 250.224 70.2944 250.44 71.2064 250.44ZM87.3112 252.12C86.0792 252.12 84.9752 251.832 83.9992 251.256C83.0232 250.664 82.2472 249.864 81.6712 248.856C81.1112 247.848 80.8312 246.712 80.8312 245.448C80.8312 244.168 81.1192 243.024 81.6952 242.016C82.2872 241.008 83.0872 240.216 84.0952 239.64C85.1032 239.048 86.2392 238.752 87.5032 238.752C88.7672 238.752 89.8952 239.048 90.8872 239.64C91.8952 240.216 92.6872 241.008 93.2632 242.016C93.8552 243.024 94.1592 244.168 94.1752 245.448L93.4312 246.024C93.4312 247.176 93.1592 248.216 92.6152 249.144C92.0872 250.056 91.3592 250.784 90.4312 251.328C89.5192 251.856 88.4792 252.12 87.3112 252.12ZM87.5032 250.44C88.4312 250.44 89.2552 250.224 89.9752 249.792C90.7112 249.36 91.2872 248.768 91.7032 248.016C92.1352 247.248 92.3512 246.392 92.3512 245.448C92.3512 244.488 92.1352 243.632 91.7032 242.88C91.2872 242.128 90.7112 241.536 89.9752 241.104C89.2552 240.656 88.4312 240.432 87.5032 240.432C86.5912 240.432 85.7672 240.656 85.0312 241.104C84.2952 241.536 83.7112 242.128 83.2792 242.88C82.8472 243.632 82.6312 244.488 82.6312 245.448C82.6312 246.392 82.8472 247.248 83.2792 248.016C83.7112 248.768 84.2952 249.36 85.0312 249.792C85.7672 250.224 86.5912 250.44 87.5032 250.44ZM93.2392 252C92.9672 252 92.7432 251.92 92.5672 251.76C92.3912 251.584 92.3032 251.36 92.3032 251.088V246.984L92.7592 245.088L94.1752 245.448V251.088C94.1752 251.36 94.0872 251.584 93.9112 251.76C93.7352 251.92 93.5112 252 93.2392 252ZM105.569 252.12V250.44C106.513 250.44 107.345 250.232 108.065 249.816C108.801 249.384 109.377 248.792 109.793 248.04C110.209 247.288 110.417 246.424 110.417 245.448C110.417 244.472 110.209 243.608 109.793 242.856C109.377 242.104 108.801 241.512 108.065 241.08C107.345 240.648 106.513 240.432 105.569 240.432V238.752C106.865 238.752 108.009 239.04 109.001 239.616C110.009 240.192 110.801 240.984 111.377 241.992C111.953 242.984 112.241 244.136 112.241 245.448C112.241 246.744 111.953 247.896 111.377 248.904C110.817 249.896 110.033 250.68 109.025 251.256C108.017 251.832 106.865 252.12 105.569 252.12ZM103.721 252.12C102.409 252.12 101.249 251.832 100.241 251.256C99.2494 250.68 98.4734 249.896 97.9134 248.904C97.3534 247.896 97.0734 246.744 97.0734 245.448C97.0734 244.136 97.3534 242.984 97.9134 241.992C98.4734 240.984 99.2494 240.192 100.241 239.616C101.249 239.04 102.409 238.752 103.721 238.752V240.432C102.777 240.432 101.937 240.648 101.201 241.08C100.481 241.512 99.9134 242.104 99.4974 242.856C99.0814 243.608 98.8734 244.472 98.8734 245.448C98.8734 246.424 99.0814 247.288 99.4974 248.04C99.9134 248.792 100.481 249.384 101.201 249.816C101.937 250.232 102.777 250.44 103.721 250.44V252.12ZM104.633 257.616C104.361 257.616 104.137 257.528 103.961 257.352C103.801 257.192 103.721 256.968 103.721 256.68V234.192C103.721 233.904 103.801 233.68 103.961 233.52C104.137 233.344 104.361 233.256 104.633 233.256C104.921 233.256 105.145 233.344 105.305 233.52C105.481 233.68 105.569 233.904 105.569 234.192V256.68C105.569 256.968 105.481 257.192 105.305 257.352C105.145 257.528 104.921 257.616 104.633 257.616ZM121.552 252.144C120.416 252.144 119.4 251.912 118.504 251.448C117.608 250.968 116.896 250.272 116.368 249.36C115.856 248.448 115.6 247.336 115.6 246.024V239.784C115.6 239.528 115.688 239.312 115.864 239.136C116.04 238.96 116.256 238.872 116.512 238.872C116.784 238.872 117.008 238.96 117.184 239.136C117.36 239.312 117.448 239.528 117.448 239.784V246.024C117.448 247.016 117.632 247.832 118 248.472C118.384 249.112 118.896 249.592 119.536 249.912C120.192 250.232 120.928 250.392 121.744 250.392C122.528 250.392 123.232 250.24 123.856 249.936C124.496 249.632 125 249.216 125.368 248.688C125.736 248.16 125.92 247.56 125.92 246.888H127.24C127.192 247.896 126.912 248.8 126.4 249.6C125.904 250.384 125.232 251.008 124.384 251.472C123.536 251.92 122.592 252.144 121.552 252.144ZM126.832 252C126.56 252 126.336 251.92 126.16 251.76C126 251.584 125.92 251.352 125.92 251.064V239.784C125.92 239.512 126 239.296 126.16 239.136C126.336 238.96 126.56 238.872 126.832 238.872C127.104 238.872 127.328 238.96 127.504 239.136C127.68 239.296 127.768 239.512 127.768 239.784V251.064C127.768 251.352 127.68 251.584 127.504 251.76C127.328 251.92 127.104 252 126.832 252ZM136.378 247.944C135.21 247.944 134.226 247.704 133.426 247.224C132.642 246.744 132.042 246.064 131.626 245.184C131.21 244.304 131.002 243.272 131.002 242.088V239.808C131.002 239.52 131.082 239.296 131.242 239.136C131.418 238.96 131.65 238.872 131.938 238.872C132.21 238.872 132.426 238.96 132.586 239.136C132.762 239.296 132.85 239.52 132.85 239.808V242.088C132.85 243.352 133.154 244.352 133.762 245.088C134.386 245.824 135.322 246.192 136.57 246.192C137.578 246.192 138.394 246.016 139.018 245.664C139.658 245.296 139.978 244.832 139.978 244.272H140.914C140.898 244.976 140.69 245.608 140.29 246.168C139.89 246.712 139.354 247.144 138.682 247.464C138.01 247.784 137.242 247.944 136.378 247.944ZM140.914 252C140.626 252 140.394 251.92 140.218 251.76C140.058 251.584 139.978 251.352 139.978 251.064V239.808C139.978 239.52 140.058 239.296 140.218 239.136C140.394 238.96 140.626 238.872 140.914 238.872C141.186 238.872 141.402 238.96 141.562 239.136C141.738 239.296 141.826 239.52 141.826 239.808V251.064C141.826 251.352 141.738 251.584 141.562 251.76C141.402 251.92 141.186 252 140.914 252ZM152.096 252.12C150.8 252.12 149.648 251.84 148.64 251.28C147.648 250.704 146.864 249.912 146.288 248.904C145.728 247.896 145.448 246.744 145.448 245.448C145.448 244.136 145.712 242.984 146.24 241.992C146.784 240.984 147.528 240.192 148.472 239.616C149.416 239.04 150.504 238.752 151.736 238.752C152.952 238.752 154.008 239.032 154.904 239.592C155.816 240.136 156.52 240.896 157.016 241.872C157.512 242.848 157.76 243.96 157.76 245.208C157.76 245.464 157.68 245.672 157.52 245.832C157.36 245.976 157.152 246.048 156.896 246.048H146.696V244.512H157.088L156.056 245.256C156.072 244.328 155.904 243.496 155.552 242.76C155.2 242.024 154.696 241.448 154.04 241.032C153.4 240.616 152.632 240.408 151.736 240.408C150.824 240.408 150.024 240.624 149.336 241.056C148.648 241.488 148.112 242.088 147.728 242.856C147.36 243.608 147.176 244.472 147.176 245.448C147.176 246.424 147.384 247.288 147.8 248.04C148.232 248.792 148.816 249.384 149.552 249.816C150.288 250.248 151.136 250.464 152.096 250.464C152.672 250.464 153.248 250.368 153.824 250.176C154.416 249.968 154.888 249.712 155.24 249.408C155.416 249.264 155.616 249.192 155.84 249.192C156.064 249.176 156.256 249.232 156.416 249.36C156.624 249.552 156.728 249.76 156.728 249.984C156.744 250.208 156.656 250.4 156.464 250.56C155.936 251.008 155.264 251.384 154.448 251.688C153.632 251.976 152.848 252.12 152.096 252.12ZM166.274 252.12C165.01 252.12 163.882 251.832 162.89 251.256C161.914 250.664 161.138 249.864 160.562 248.856C160.002 247.848 159.722 246.712 159.722 245.448C159.722 244.168 159.994 243.024 160.538 242.016C161.082 241.008 161.826 240.216 162.77 239.64C163.714 239.048 164.802 238.752 166.034 238.752C167.01 238.752 167.906 238.944 168.722 239.328C169.554 239.712 170.282 240.288 170.906 241.056C171.082 241.248 171.146 241.456 171.098 241.68C171.05 241.888 170.914 242.072 170.69 242.232C170.514 242.36 170.314 242.408 170.09 242.376C169.882 242.328 169.698 242.208 169.538 242.016C168.61 240.96 167.442 240.432 166.034 240.432C165.138 240.432 164.346 240.648 163.658 241.08C162.986 241.512 162.458 242.104 162.074 242.856C161.706 243.608 161.522 244.472 161.522 245.448C161.522 246.408 161.722 247.264 162.122 248.016C162.522 248.768 163.082 249.36 163.802 249.792C164.522 250.224 165.346 250.44 166.274 250.44C166.898 250.44 167.466 250.36 167.978 250.2C168.506 250.024 168.97 249.76 169.37 249.408C169.562 249.248 169.762 249.16 169.97 249.144C170.178 249.128 170.37 249.192 170.546 249.336C170.738 249.512 170.842 249.712 170.858 249.936C170.89 250.16 170.818 250.352 170.642 250.512C169.474 251.584 168.018 252.12 166.274 252.12ZM184.891 251.76C184.731 251.92 184.515 252 184.243 252C183.987 252 183.779 251.912 183.619 251.736L177.883 245.448L183.379 239.16C183.539 238.984 183.739 238.888 183.979 238.872C184.219 238.856 184.427 238.92 184.603 239.064C184.795 239.24 184.899 239.44 184.915 239.664C184.931 239.872 184.859 240.072 184.699 240.264L180.187 245.352L184.939 250.584C185.099 250.76 185.179 250.96 185.179 251.184C185.179 251.392 185.083 251.584 184.891 251.76ZM175.579 252C175.307 252 175.091 251.92 174.931 251.76C174.771 251.584 174.691 251.36 174.691 251.088V239.808C174.691 239.52 174.771 239.296 174.931 239.136C175.091 238.96 175.307 238.872 175.579 238.872C175.867 238.872 176.091 238.96 176.251 239.136C176.427 239.296 176.515 239.52 176.515 239.808V244.56H179.443V246.24H176.515V251.088C176.515 251.36 176.427 251.584 176.251 251.76C176.091 251.92 175.867 252 175.579 252ZM193.88 252.144C192.744 252.144 191.728 251.912 190.832 251.448C189.936 250.968 189.224 250.272 188.696 249.36C188.184 248.448 187.928 247.336 187.928 246.024V239.784C187.928 239.528 188.016 239.312 188.192 239.136C188.368 238.96 188.584 238.872 188.84 238.872C189.112 238.872 189.336 238.96 189.512 239.136C189.688 239.312 189.776 239.528 189.776 239.784V246.024C189.776 247.016 189.96 247.832 190.328 248.472C190.712 249.112 191.224 249.592 191.864 249.912C192.52 250.232 193.256 250.392 194.072 250.392C194.856 250.392 195.56 250.24 196.184 249.936C196.824 249.632 197.328 249.216 197.696 248.688C198.064 248.16 198.248 247.56 198.248 246.888H199.568C199.52 247.896 199.24 248.8 198.728 249.6C198.232 250.384 197.56 251.008 196.712 251.472C195.864 251.92 194.92 252.144 193.88 252.144ZM199.16 252C198.888 252 198.664 251.92 198.488 251.76C198.328 251.584 198.248 251.352 198.248 251.064V239.784C198.248 239.512 198.328 239.296 198.488 239.136C198.664 238.96 198.888 238.872 199.16 238.872C199.432 238.872 199.656 238.96 199.832 239.136C200.008 239.296 200.096 239.512 200.096 239.784V251.064C200.096 251.352 200.008 251.584 199.832 251.76C199.656 251.92 199.432 252 199.16 252ZM210.122 252.144C208.986 252.144 207.97 251.912 207.074 251.448C206.178 250.968 205.466 250.272 204.938 249.36C204.426 248.448 204.17 247.336 204.17 246.024V239.784C204.17 239.528 204.258 239.312 204.434 239.136C204.61 238.96 204.826 238.872 205.082 238.872C205.354 238.872 205.578 238.96 205.754 239.136C205.93 239.312 206.018 239.528 206.018 239.784V246.024C206.018 247.016 206.202 247.832 206.57 248.472C206.954 249.112 207.466 249.592 208.106 249.912C208.762 250.232 209.498 250.392 210.314 250.392C211.098 250.392 211.802 250.24 212.426 249.936C213.066 249.632 213.57 249.216 213.938 248.688C214.306 248.16 214.49 247.56 214.49 246.888H215.81C215.762 247.896 215.482 248.8 214.97 249.6C214.474 250.384 213.802 251.008 212.954 251.472C212.106 251.92 211.162 252.144 210.122 252.144ZM215.402 252C215.13 252 214.906 251.92 214.73 251.76C214.57 251.584 214.49 251.352 214.49 251.064V239.784C214.49 239.512 214.57 239.296 214.73 239.136C214.906 238.96 215.13 238.872 215.402 238.872C215.674 238.872 215.898 238.96 216.074 239.136C216.25 239.296 216.338 239.512 216.338 239.784V251.064C216.338 251.352 216.25 251.584 216.074 251.76C215.898 251.92 215.674 252 215.402 252ZM210.386 237.168C209.602 237.168 208.898 237.04 208.274 236.784C207.65 236.512 207.154 236.144 206.786 235.68C206.434 235.216 206.258 234.696 206.258 234.12C206.258 233.864 206.338 233.648 206.498 233.472C206.674 233.296 206.882 233.208 207.122 233.208C207.378 233.208 207.586 233.296 207.746 233.472C207.906 233.648 207.986 233.888 207.986 234.192C207.986 234.64 208.218 235 208.682 235.272C209.146 235.544 209.714 235.68 210.386 235.68C211.074 235.68 211.642 235.544 212.09 235.272C212.554 235 212.786 234.64 212.786 234.192C212.786 233.888 212.866 233.648 213.026 233.472C213.202 233.296 213.41 233.208 213.65 233.208C213.906 233.208 214.114 233.296 214.274 233.472C214.434 233.648 214.514 233.864 214.514 234.12C214.514 234.696 214.33 235.216 213.962 235.68C213.61 236.144 213.122 236.512 212.498 236.784C211.874 237.04 211.17 237.168 210.386 237.168ZM233.467 252.12C232.203 252.12 231.083 251.84 230.107 251.28C229.131 250.704 228.363 249.912 227.803 248.904C227.259 247.896 226.987 246.744 226.987 245.448C226.987 244.136 227.275 242.976 227.851 241.968C228.427 240.96 229.219 240.176 230.227 239.616C231.235 239.04 232.379 238.752 233.659 238.752C234.955 238.752 236.099 239.04 237.091 239.616C238.099 240.176 238.883 240.96 239.443 241.968C240.019 242.976 240.315 244.136 240.331 245.448L239.251 246.024C239.251 247.208 239.003 248.264 238.507 249.192C238.011 250.104 237.323 250.824 236.443 251.352C235.579 251.864 234.587 252.12 233.467 252.12ZM233.707 257.184C232.443 257.184 231.331 256.944 230.371 256.464C229.411 256 228.619 255.36 227.995 254.544C227.819 254.352 227.739 254.144 227.755 253.92C227.787 253.696 227.907 253.512 228.115 253.368C228.323 253.224 228.555 253.176 228.811 253.224C229.067 253.272 229.267 253.392 229.411 253.584C229.875 254.16 230.467 254.624 231.187 254.976C231.923 255.328 232.771 255.504 233.731 255.504C234.627 255.504 235.435 255.288 236.155 254.856C236.875 254.424 237.443 253.816 237.859 253.032C238.291 252.248 238.507 251.328 238.507 250.272V246.624L239.203 245.232L240.331 245.448V250.344C240.331 251.64 240.043 252.8 239.467 253.824C238.891 254.864 238.107 255.68 237.115 256.272C236.123 256.88 234.987 257.184 233.707 257.184ZM233.659 250.44C234.603 250.44 235.435 250.232 236.155 249.816C236.891 249.384 237.467 248.792 237.883 248.04C238.299 247.288 238.507 246.424 238.507 245.448C238.507 244.472 238.299 243.608 237.883 242.856C237.467 242.088 236.891 241.496 236.155 241.08C235.435 240.648 234.603 240.432 233.659 240.432C232.715 240.432 231.875 240.648 231.139 241.08C230.403 241.496 229.827 242.088 229.411 242.856C228.995 243.608 228.787 244.472 228.787 245.448C228.787 246.424 228.995 247.288 229.411 248.04C229.827 248.792 230.403 249.384 231.139 249.816C231.875 250.232 232.715 250.44 233.659 250.44ZM249.638 252.144C248.502 252.144 247.486 251.912 246.59 251.448C245.694 250.968 244.982 250.272 244.454 249.36C243.942 248.448 243.686 247.336 243.686 246.024V239.784C243.686 239.528 243.774 239.312 243.95 239.136C244.126 238.96 244.342 238.872 244.598 238.872C244.87 238.872 245.094 238.96 245.27 239.136C245.446 239.312 245.534 239.528 245.534 239.784V246.024C245.534 247.016 245.718 247.832 246.086 248.472C246.47 249.112 246.982 249.592 247.622 249.912C248.278 250.232 249.014 250.392 249.83 250.392C250.614 250.392 251.318 250.24 251.942 249.936C252.582 249.632 253.086 249.216 253.454 248.688C253.822 248.16 254.006 247.56 254.006 246.888H255.326C255.278 247.896 254.998 248.8 254.486 249.6C253.99 250.384 253.318 251.008 252.47 251.472C251.622 251.92 250.678 252.144 249.638 252.144ZM254.918 252C254.646 252 254.422 251.92 254.246 251.76C254.086 251.584 254.006 251.352 254.006 251.064V239.784C254.006 239.512 254.086 239.296 254.246 239.136C254.422 238.96 254.646 238.872 254.918 238.872C255.19 238.872 255.414 238.96 255.59 239.136C255.766 239.296 255.854 239.512 255.854 239.784V251.064C255.854 251.352 255.766 251.584 255.59 251.76C255.414 251.92 255.19 252 254.918 252ZM264.32 252.216C263.632 252.216 262.96 252.128 262.304 251.952C261.648 251.76 261.056 251.504 260.528 251.184C260 250.848 259.584 250.48 259.28 250.08C259.12 249.872 259.056 249.648 259.088 249.408C259.136 249.168 259.28 248.976 259.52 248.832C259.696 248.72 259.904 248.696 260.144 248.76C260.4 248.808 260.608 248.92 260.768 249.096C261.168 249.512 261.672 249.856 262.28 250.128C262.888 250.4 263.56 250.536 264.296 250.536C265.256 250.536 266.032 250.336 266.624 249.936C267.232 249.536 267.536 248.968 267.536 248.232C267.536 247.592 267.296 247.056 266.816 246.624C266.352 246.192 265.768 245.96 265.064 245.928H263.84C263.536 245.928 263.288 245.856 263.096 245.712C262.904 245.552 262.808 245.36 262.808 245.136C262.808 244.912 262.904 244.728 263.096 244.584C263.288 244.44 263.536 244.368 263.84 244.368H265.064C265.656 244.352 266.136 244.152 266.504 243.768C266.872 243.384 267.056 242.912 267.056 242.352C267.056 241.776 266.8 241.304 266.288 240.936C265.792 240.568 265.12 240.384 264.272 240.384C263.488 240.384 262.832 240.512 262.304 240.768C261.776 241.024 261.352 241.352 261.032 241.752C260.856 241.944 260.648 242.064 260.408 242.112C260.184 242.144 259.968 242.096 259.76 241.968C259.552 241.856 259.432 241.68 259.4 241.44C259.384 241.2 259.456 240.976 259.616 240.768C260.128 240.176 260.776 239.68 261.56 239.28C262.36 238.88 263.256 238.68 264.248 238.68C265.144 238.68 265.936 238.84 266.624 239.16C267.328 239.464 267.88 239.888 268.28 240.432C268.68 240.96 268.88 241.552 268.88 242.208C268.88 242.736 268.736 243.224 268.448 243.672C268.176 244.104 267.8 244.464 267.32 244.752C266.856 245.024 266.336 245.184 265.76 245.232V244.968C266.432 244.968 267.04 245.112 267.584 245.4C268.128 245.688 268.56 246.088 268.88 246.6C269.2 247.096 269.36 247.656 269.36 248.28C269.36 249.032 269.136 249.704 268.688 250.296C268.256 250.888 267.656 251.36 266.888 251.712C266.136 252.048 265.28 252.216 264.32 252.216ZM278.28 252.12C277.048 252.12 275.944 251.832 274.968 251.256C273.992 250.664 273.216 249.864 272.64 248.856C272.08 247.848 271.8 246.712 271.8 245.448C271.8 244.168 272.088 243.024 272.664 242.016C273.256 241.008 274.056 240.216 275.064 239.64C276.072 239.048 277.208 238.752 278.472 238.752C279.736 238.752 280.864 239.048 281.856 239.64C282.864 240.216 283.656 241.008 284.232 242.016C284.824 243.024 285.128 244.168 285.144 245.448L284.4 246.024C284.4 247.176 284.128 248.216 283.584 249.144C283.056 250.056 282.328 250.784 281.4 251.328C280.488 251.856 279.448 252.12 278.28 252.12ZM278.472 250.44C279.4 250.44 280.224 250.224 280.944 249.792C281.68 249.36 282.256 248.768 282.672 248.016C283.104 247.248 283.32 246.392 283.32 245.448C283.32 244.488 283.104 243.632 282.672 242.88C282.256 242.128 281.68 241.536 280.944 241.104C280.224 240.656 279.4 240.432 278.472 240.432C277.56 240.432 276.736 240.656 276 241.104C275.264 241.536 274.68 242.128 274.248 242.88C273.816 243.632 273.6 244.488 273.6 245.448C273.6 246.392 273.816 247.248 274.248 248.016C274.68 248.768 275.264 249.36 276 249.792C276.736 250.224 277.56 250.44 278.472 250.44ZM284.208 252C283.936 252 283.712 251.92 283.536 251.76C283.36 251.584 283.272 251.36 283.272 251.088V246.984L283.728 245.088L285.144 245.448V251.088C285.144 251.36 285.056 251.584 284.88 251.76C284.704 251.92 284.48 252 284.208 252ZM294.45 252.144C293.314 252.144 292.298 251.912 291.402 251.448C290.506 250.968 289.794 250.272 289.266 249.36C288.754 248.448 288.498 247.336 288.498 246.024V239.784C288.498 239.528 288.586 239.312 288.762 239.136C288.938 238.96 289.154 238.872 289.41 238.872C289.682 238.872 289.906 238.96 290.082 239.136C290.258 239.312 290.346 239.528 290.346 239.784V246.024C290.346 247.016 290.53 247.832 290.898 248.472C291.282 249.112 291.794 249.592 292.434 249.912C293.09 250.232 293.826 250.392 294.642 250.392C295.426 250.392 296.13 250.24 296.754 249.936C297.394 249.632 297.898 249.216 298.266 248.688C298.634 248.16 298.818 247.56 298.818 246.888H300.138C300.09 247.896 299.81 248.8 299.298 249.6C298.802 250.384 298.13 251.008 297.282 251.472C296.434 251.92 295.49 252.144 294.45 252.144ZM299.73 252C299.458 252 299.234 251.92 299.058 251.76C298.898 251.584 298.818 251.352 298.818 251.064V239.784C298.818 239.512 298.898 239.296 299.058 239.136C299.234 238.96 299.458 238.872 299.73 238.872C300.002 238.872 300.226 238.96 300.402 239.136C300.578 239.296 300.666 239.512 300.666 239.784V251.064C300.666 251.352 300.578 251.584 300.402 251.76C300.226 251.92 300.002 252 299.73 252ZM294.714 237.168C293.93 237.168 293.226 237.04 292.602 236.784C291.978 236.512 291.482 236.144 291.114 235.68C290.762 235.216 290.586 234.696 290.586 234.12C290.586 233.864 290.666 233.648 290.826 233.472C291.002 233.296 291.21 233.208 291.45 233.208C291.706 233.208 291.914 233.296 292.074 233.472C292.234 233.648 292.314 233.888 292.314 234.192C292.314 234.64 292.546 235 293.01 235.272C293.474 235.544 294.042 235.68 294.714 235.68C295.402 235.68 295.97 235.544 296.418 235.272C296.882 235 297.114 234.64 297.114 234.192C297.114 233.888 297.194 233.648 297.354 233.472C297.53 233.296 297.738 233.208 297.978 233.208C298.234 233.208 298.442 233.296 298.602 233.472C298.762 233.648 298.842 233.864 298.842 234.12C298.842 234.696 298.658 235.216 298.29 235.68C297.938 236.144 297.45 236.512 296.826 236.784C296.202 237.04 295.498 237.168 294.714 237.168ZM316.212 252C315.94 252 315.716 251.92 315.54 251.76C315.364 251.584 315.276 251.352 315.276 251.064V239.808C315.276 239.52 315.364 239.296 315.54 239.136C315.716 238.96 315.94 238.872 316.212 238.872C316.484 238.872 316.7 238.96 316.86 239.136C317.02 239.296 317.1 239.52 317.1 239.808V251.064C317.1 251.352 317.02 251.584 316.86 251.76C316.7 251.92 316.484 252 316.212 252ZM305.892 252C305.62 252 305.396 251.92 305.22 251.76C305.06 251.584 304.98 251.352 304.98 251.064V239.808C304.98 239.52 305.06 239.296 305.22 239.136C305.396 238.96 305.62 238.872 305.892 238.872C306.164 238.872 306.38 238.96 306.54 239.136C306.716 239.296 306.804 239.52 306.804 239.808V251.064C306.804 251.352 306.716 251.584 306.54 251.76C306.38 251.92 306.164 252 305.892 252ZM306.492 246.216V244.56H315.924V246.216H306.492ZM327.362 252.12C326.066 252.12 324.914 251.84 323.906 251.28C322.914 250.704 322.13 249.912 321.554 248.904C320.994 247.896 320.714 246.744 320.714 245.448C320.714 244.136 320.978 242.984 321.506 241.992C322.05 240.984 322.794 240.192 323.738 239.616C324.682 239.04 325.77 238.752 327.002 238.752C328.218 238.752 329.274 239.032 330.17 239.592C331.082 240.136 331.786 240.896 332.282 241.872C332.778 242.848 333.026 243.96 333.026 245.208C333.026 245.464 332.946 245.672 332.786 245.832C332.626 245.976 332.418 246.048 332.162 246.048H321.962V244.512H332.354L331.322 245.256C331.338 244.328 331.17 243.496 330.818 242.76C330.466 242.024 329.962 241.448 329.306 241.032C328.666 240.616 327.898 240.408 327.002 240.408C326.09 240.408 325.29 240.624 324.602 241.056C323.914 241.488 323.378 242.088 322.994 242.856C322.626 243.608 322.442 244.472 322.442 245.448C322.442 246.424 322.65 247.288 323.066 248.04C323.498 248.792 324.082 249.384 324.818 249.816C325.554 250.248 326.402 250.464 327.362 250.464C327.938 250.464 328.514 250.368 329.09 250.176C329.682 249.968 330.154 249.712 330.506 249.408C330.682 249.264 330.882 249.192 331.106 249.192C331.33 249.176 331.522 249.232 331.682 249.36C331.89 249.552 331.994 249.76 331.994 249.984C332.01 250.208 331.922 250.4 331.73 250.56C331.202 251.008 330.53 251.384 329.714 251.688C328.898 251.976 328.114 252.12 327.362 252.12ZM337.088 257.616C336.8 257.616 336.568 257.528 336.392 257.352C336.232 257.192 336.152 256.968 336.152 256.68V245.352C336.168 244.104 336.464 242.984 337.04 241.992C337.632 240.984 338.424 240.192 339.416 239.616C340.424 239.04 341.552 238.752 342.8 238.752C344.08 238.752 345.224 239.048 346.232 239.64C347.24 240.216 348.032 241.008 348.608 242.016C349.2 243.024 349.496 244.168 349.496 245.448C349.496 246.712 349.208 247.848 348.632 248.856C348.072 249.864 347.304 250.664 346.328 251.256C345.352 251.832 344.248 252.12 343.016 252.12C341.944 252.12 340.968 251.896 340.088 251.448C339.224 250.984 338.528 250.376 338 249.624V256.68C338 256.968 337.912 257.192 337.736 257.352C337.576 257.528 337.36 257.616 337.088 257.616ZM342.8 250.44C343.728 250.44 344.56 250.224 345.296 249.792C346.032 249.36 346.608 248.768 347.024 248.016C347.456 247.248 347.672 246.392 347.672 245.448C347.672 244.488 347.456 243.632 347.024 242.88C346.608 242.128 346.032 241.536 345.296 241.104C344.56 240.656 343.728 240.432 342.8 240.432C341.888 240.432 341.064 240.656 340.328 241.104C339.592 241.536 339.016 242.128 338.6 242.88C338.184 243.632 337.976 244.488 337.976 245.448C337.976 246.392 338.184 247.248 338.6 248.016C339.016 248.768 339.592 249.36 340.328 249.792C341.064 250.224 341.888 250.44 342.8 250.44Z" fill="#30310F"/>
</svg>
