<svg width="97" height="90" viewBox="0 0 97 90" fill="none" xmlns="http://www.w3.org/2000/svg">
<path d="M71.5661 88.5018C70.7852 89.2825 69.519 89.2823 68.7379 88.5018C67.9571 87.7207 67.957 86.4537 68.7379 85.6727L76.5153 77.8953H82.1715L71.5661 88.5018ZM3.19986 62.657C3.39434 63.6772 4.48136 64.3267 5.62759 64.1082L8.32486 63.5936L6.944 65.7049C5.20329 68.3651 7.11251 71.8951 10.2917 71.8953H77.5876L80.0514 74.3592L76.5153 77.8953H10.2917L9.92056 77.8895C2.31828 77.6244 -2.21493 69.2382 1.7272 62.7322L1.92447 62.4197L2.87662 60.9637L3.19986 62.657ZM62.0465 12.9178L94.446 62.4197C98.7304 68.9665 94.174 77.6206 86.4489 77.8895L86.0788 77.8953H82.1715L84.2936 75.7733C85.0747 74.9922 85.0747 73.7262 84.2936 72.9451L83.2438 71.8953H86.0788C89.2581 71.8952 91.1665 68.3652 89.4254 65.7049L56.694 15.6971L57.86 11.6981L62.0465 12.9178ZM68.7379 60.2166C69.5189 59.4361 70.7851 59.4361 71.5661 60.2166L83.2438 71.8953H77.5876L68.7379 63.0457C67.9571 62.2647 67.957 60.9976 68.7379 60.2166ZM23.6022 56.8533C24.7483 56.6349 25.8363 57.2846 26.0309 58.3045C26.2253 59.3245 25.4532 60.329 24.3073 60.5477L8.32486 63.5936L11.1881 59.2195L23.6022 56.8533ZM1.75357 43.7899C2.89979 43.5714 3.98776 44.2219 4.18228 45.242L6.20767 55.8738L2.87662 60.9637L0.0299377 46.033C-0.164403 45.0131 0.607618 44.0085 1.75357 43.7899ZM39.818 4.52325C43.7658 -1.50771 52.6048 -1.50787 56.5524 4.52325L58.8805 8.08087L56.8815 7.49884C55.7607 7.17232 54.6172 7.71542 54.3268 8.71173L53.6471 11.0418L51.5319 7.80939C49.9529 5.39701 46.4177 5.39716 44.8385 7.80939L11.1881 59.2195L6.99869 60.0193L6.20767 55.8738L39.818 4.52325ZM56.694 15.6971L53.6549 26.1317C53.3646 27.1279 52.2201 27.671 51.0993 27.3445C49.9787 27.018 49.3045 25.9452 49.5944 24.949L53.6471 11.0418L56.694 15.6971ZM75.1481 12.8201C76.2688 13.1468 76.9422 14.2203 76.652 15.2166C76.3616 16.2128 75.2171 16.756 74.0963 16.4295L62.0465 12.9178L58.8805 8.08087L75.1481 12.8201Z" fill="#7E3E00"/>
</svg>
