<svg width="2258" height="2258" viewBox="0 0 2258 2258" fill="none" xmlns="http://www.w3.org/2000/svg">
<g clip-path="url(#clip0_91_139)">
<path d="M1129.83 2259.66C1753.82 2259.66 2259.66 1753.82 2259.66 1129.83C2259.66 505.843 1753.82 0 1129.83 0C505.843 0 0 505.843 0 1129.83C0 1753.82 505.843 2259.66 1129.83 2259.66Z" fill="url(#paint0_linear_91_139)"/>
<path fill-rule="evenodd" clip-rule="evenodd" d="M510.36 1117.51C839.454 973.204 1059.44 879.931 1170.31 834.175C1483.56 703.945 1548.68 681.067 1590.92 679.307C1599.72 679.307 1620.83 681.067 1634.91 691.626C1645.47 700.425 1648.99 712.744 1650.75 721.544C1652.51 730.343 1654.27 749.702 1652.51 765.54C1634.91 943.286 1562.76 1377.97 1524.04 1576.84C1508.2 1661.31 1476.52 1689.47 1446.61 1692.99C1381.49 1698.27 1330.46 1648.99 1267.1 1608.51C1168.55 1543.4 1112.23 1502.92 1015.44 1439.57C904.569 1365.65 976.724 1325.18 1040.08 1260.06C1055.92 1242.46 1346.29 980.244 1351.57 955.605C1351.57 952.086 1353.33 941.527 1346.29 936.247C1339.26 930.967 1330.46 932.727 1323.42 934.487C1312.86 936.247 1154.47 1041.84 846.494 1249.5C800.737 1281.18 760.261 1295.26 723.303 1295.26C682.827 1295.26 605.393 1272.38 547.317 1253.02C476.923 1230.14 420.607 1217.83 425.887 1179.11C429.406 1159.75 457.564 1138.63 510.36 1117.51Z" fill="white"/>
</g>
<defs>
<linearGradient id="paint0_linear_91_139" x1="0" y1="1129.01" x2="2258.03" y2="1129.01" gradientUnits="userSpaceOnUse">
<stop stop-color="#7E3E00"/>
<stop offset="1" stop-color="#7E3E00"/>
</linearGradient>
<clipPath id="clip0_91_139">
<rect width="2257.9" height="2257.9" fill="white"/>
</clipPath>
</defs>
</svg>
