<svg width="512" height="512" viewBox="0 0 512 512" fill="none" xmlns="http://www.w3.org/2000/svg">
<rect width="512" height="512" fill="white"/>
<path d="M81.4923 208.334V212.482H77.9723V208.334H81.4923ZM81.4923 204.185V208.334H77.9723V204.185H81.4923ZM81.4923 200.037V204.185H77.9723V200.037H81.4923ZM77.9723 200.037V204.185H74.4523V200.037H77.9723ZM77.9723 195.889V200.037H74.4523V195.889H77.9723ZM77.9723 204.185V208.334H74.4523V204.185H77.9723ZM74.4523 204.185V208.334H70.9323V204.185H74.4523ZM74.4523 208.334V212.482H70.9323V208.334H74.4523ZM77.9723 208.334V212.482H74.4523V208.334H77.9723ZM70.9323 208.334V212.482H67.4122V208.334H70.9323ZM70.9323 204.185V208.334H67.4122V204.185H70.9323ZM70.9323 200.037V204.185H67.4122V200.037H70.9323ZM70.9323 195.889V200.037H67.4122V195.889H70.9323ZM74.4523 195.889V200.037H70.9323V195.889H74.4523ZM74.4523 200.037V204.185H70.9323V200.037H74.4523ZM67.4122 195.889V200.037H63.8922V195.889H67.4122ZM63.8922 195.889V200.037H60.3722V195.889H63.8922ZM60.3722 195.889V200.037H56.8522V195.889H60.3722ZM60.3722 200.037V204.185H56.8522V200.037H60.3722ZM60.3722 204.185V208.334H56.8522V204.185H60.3722ZM60.3722 208.334V212.482H56.8522V208.334H60.3722ZM63.8922 208.334V212.482H60.3722V208.334H63.8922ZM67.4122 208.334V212.482H63.8922V208.334H67.4122ZM67.4122 204.185V208.334H63.8922V204.185H67.4122ZM67.4122 200.037V204.185H63.8922V200.037H67.4122ZM63.8922 200.037V204.185H60.3722V200.037H63.8922ZM63.8922 204.185V208.334H60.3722V204.185H63.8922ZM56.8522 204.185V208.334H53.3322V204.185H56.8522ZM56.8522 200.037V204.185H53.3322V200.037H56.8522ZM53.3322 200.037V204.185H49.8122V200.037H53.3322ZM53.3322 204.185V208.334H49.8122V204.185H53.3322ZM49.8122 204.185V208.334H46.2921V204.185H49.8122ZM49.8122 208.334V212.482H46.2921V208.334H49.8122ZM49.8122 212.482V216.63H46.2921V212.482H49.8122ZM53.3322 212.482V216.63H49.8122V212.482H53.3322ZM53.3322 208.334V212.482H49.8122V208.334H53.3322ZM56.8522 208.334V212.482H53.3322V208.334H56.8522ZM56.8522 212.482V216.63H53.3322V212.482H56.8522ZM60.3722 212.482V216.63H56.8522V212.482H60.3722ZM63.8922 212.482V216.63H60.3722V212.482H63.8922ZM46.2921 212.482V216.63H42.7721V212.482H46.2921ZM46.2921 216.63V220.778H42.7721V216.63H46.2921ZM46.2921 220.778V224.926H42.7721V220.778H46.2921ZM46.2921 224.926V229.075H42.7721V224.926H46.2921ZM46.2921 229.075V233.223H42.7721V229.075H46.2921ZM46.2921 233.223V237.371H42.7721V233.223H46.2921ZM46.2921 237.371V241.519H42.7721V237.371H46.2921ZM46.2921 241.519V245.667H42.7721V241.519H46.2921ZM46.2921 245.667V249.815H42.7721V245.667H46.2921ZM46.2921 249.815V253.964H42.7721V249.815H46.2921ZM49.8122 249.815V253.964H46.2921V249.815H49.8122ZM49.8122 253.964V258.112H46.2921V253.964H49.8122ZM46.2921 253.964V258.112H42.7721V253.964H46.2921ZM53.3322 253.964V258.112H49.8122V253.964H53.3322ZM56.8522 253.964V258.112H53.3322V253.964H56.8522ZM60.3722 253.964V258.112H56.8522V253.964H60.3722ZM63.8922 253.964V258.112H60.3722V253.964H63.8922ZM60.3722 249.815V253.964H56.8522V249.815H60.3722ZM60.3722 245.667V249.815H56.8522V245.667H60.3722ZM60.3722 241.519V245.667H56.8522V241.519H60.3722ZM60.3722 237.371V241.519H56.8522V237.371H60.3722ZM60.3722 233.223V237.371H56.8522V233.223H60.3722ZM60.3722 229.075V233.223H56.8522V229.075H60.3722ZM60.3722 224.926V229.075H56.8522V224.926H60.3722ZM60.3722 220.778V224.926H56.8522V220.778H60.3722ZM60.3722 216.63V220.778H56.8522V216.63H60.3722ZM56.8522 216.63V220.778H53.3322V216.63H56.8522ZM53.3322 216.63V220.778H49.8122V216.63H53.3322ZM49.8122 216.63V220.778H46.2921V216.63H49.8122ZM49.8122 220.778V224.926H46.2921V220.778H49.8122ZM49.8122 224.926V229.075H46.2921V224.926H49.8122ZM49.8122 229.075V233.223H46.2921V229.075H49.8122ZM49.8122 233.223V237.371H46.2921V233.223H49.8122ZM49.8122 237.371V241.519H46.2921V237.371H49.8122ZM49.8122 241.519V245.667H46.2921V241.519H49.8122ZM49.8122 245.667V249.815H46.2921V245.667H49.8122ZM53.3322 249.815V253.964H49.8122V249.815H53.3322ZM56.8522 249.815V253.964H53.3322V249.815H56.8522ZM56.8522 245.667V249.815H53.3322V245.667H56.8522ZM56.8522 241.519V245.667H53.3322V241.519H56.8522ZM56.8522 237.371V241.519H53.3322V237.371H56.8522ZM56.8522 233.223V237.371H53.3322V233.223H56.8522ZM53.3322 233.223V237.371H49.8122V233.223H53.3322ZM53.3322 229.075V233.223H49.8122V229.075H53.3322ZM53.3322 224.926V229.075H49.8122V224.926H53.3322ZM53.3322 220.778V224.926H49.8122V220.778H53.3322ZM56.8522 220.778V224.926H53.3322V220.778H56.8522ZM56.8522 224.926V229.075H53.3322V224.926H56.8522ZM56.8522 229.075V233.223H53.3322V229.075H56.8522ZM53.3322 241.519V245.667H49.8122V241.519H53.3322ZM53.3322 245.667V249.815H49.8122V245.667H53.3322ZM53.3322 237.371V241.519H49.8122V237.371H53.3322ZM81.4923 258.112V262.26H77.9723V258.112H81.4923ZM77.9723 270.556V274.705H74.4523V270.556H77.9723ZM74.4523 270.556V274.705H70.9323V270.556H74.4523ZM70.9323 270.556V274.705H67.4122V270.556H70.9323ZM67.4122 270.556V274.705H63.8922V270.556H67.4122ZM63.8922 270.556V274.705H60.3722V270.556H63.8922ZM60.3722 270.556V274.705H56.8522V270.556H60.3722ZM63.8922 266.408V270.556H60.3722V266.408H63.8922ZM67.4122 266.408V270.556H63.8922V266.408H67.4122ZM70.9323 266.408V270.556H67.4122V266.408H70.9323ZM74.4523 266.408V270.556H70.9323V266.408H74.4523ZM77.9723 266.408V270.556H74.4523V266.408H77.9723ZM81.4923 266.408V270.556H77.9723V266.408H81.4923ZM81.4923 262.26V266.408H77.9723V262.26H81.4923ZM77.9723 262.26V266.408H74.4523V262.26H77.9723ZM74.4523 262.26V266.408H70.9323V262.26H74.4523ZM70.9323 262.26V266.408H67.4122V262.26H70.9323ZM67.4122 262.26V266.408H63.8922V262.26H67.4122ZM63.8922 262.26V266.408H60.3722V262.26H63.8922ZM60.3722 266.408V270.556H56.8522V266.408H60.3722ZM56.8522 266.408V270.556H53.3322V266.408H56.8522ZM53.3322 266.408V270.556H49.8122V266.408H53.3322ZM53.3322 262.26V266.408H49.8122V262.26H53.3322ZM49.8122 262.26V266.408H46.2921V262.26H49.8122ZM49.8122 258.112V262.26H46.2921V258.112H49.8122ZM53.3322 258.112V262.26H49.8122V258.112H53.3322ZM56.8522 258.112V262.26H53.3322V258.112H56.8522ZM60.3722 258.112V262.26H56.8522V258.112H60.3722ZM63.8922 258.112V262.26H60.3722V258.112H63.8922ZM67.4122 258.112V262.26H63.8922V258.112H67.4122ZM70.9323 258.112V262.26H67.4122V258.112H70.9323ZM74.4523 258.112V262.26H70.9323V258.112H74.4523ZM77.9723 258.112V262.26H74.4523V258.112H77.9723ZM60.3722 262.26V266.408H56.8522V262.26H60.3722ZM56.8522 262.26V266.408H53.3322V262.26H56.8522ZM85.0123 262.26V266.408H81.4923V262.26H85.0123ZM85.0123 258.112V262.26H81.4923V258.112H85.0123ZM85.0123 253.964V258.112H81.4923V253.964H85.0123ZM85.0123 249.815V253.964H81.4923V249.815H85.0123ZM85.0123 245.667V249.815H81.4923V245.667H85.0123ZM85.0123 241.519V245.667H81.4923V241.519H85.0123ZM85.0123 237.371V241.519H81.4923V237.371H85.0123ZM85.0123 233.223V237.371H81.4923V233.223H85.0123ZM85.0123 229.075V233.223H81.4923V229.075H85.0123ZM85.0123 224.926V229.075H81.4923V224.926H85.0123ZM85.0123 220.778V224.926H81.4923V220.778H85.0123ZM85.0123 216.63V220.778H81.4923V216.63H85.0123ZM85.0123 212.482V216.63H81.4923V212.482H85.0123ZM88.5324 212.482V216.63H85.0123V212.482H88.5324ZM88.5324 216.63V220.778H85.0123V216.63H88.5324ZM88.5324 220.778V224.926H85.0123V220.778H88.5324ZM88.5324 224.926V229.075H85.0123V224.926H88.5324ZM88.5324 229.075V233.223H85.0123V229.075H88.5324ZM88.5324 233.223V237.371H85.0123V233.223H88.5324ZM88.5324 237.371V241.519H85.0123V237.371H88.5324ZM92.0524 241.519V245.667H88.5324V241.519H92.0524ZM92.0524 245.667V249.815H88.5324V245.667H92.0524ZM92.0524 249.815V253.964H88.5324V249.815H92.0524ZM92.0524 253.964V258.112H88.5324V253.964H92.0524ZM92.0524 258.112V262.26H88.5324V258.112H92.0524ZM92.0524 262.26V266.408H88.5324V262.26H92.0524ZM92.0524 266.408V270.556H88.5324V266.408H92.0524ZM92.0524 270.556V274.705H88.5324V270.556H92.0524ZM95.5724 270.556V274.705H92.0524V270.556H95.5724ZM99.0924 270.556V274.705H95.5724V270.556H99.0924ZM99.0924 266.408V270.556H95.5724V266.408H99.0924ZM99.0924 262.26V266.408H95.5724V262.26H99.0924ZM99.0924 258.112V262.26H95.5724V258.112H99.0924ZM99.0924 253.964V258.112H95.5724V253.964H99.0924ZM99.0924 249.815V253.964H95.5724V249.815H99.0924ZM99.0924 245.667V249.815H95.5724V245.667H99.0924ZM99.0924 241.519V245.667H95.5724V241.519H99.0924ZM95.5724 241.519V245.667H92.0524V241.519H95.5724ZM95.5724 237.371V241.519H92.0524V237.371H95.5724ZM95.5724 245.667V249.815H92.0524V245.667H95.5724ZM95.5724 249.815V253.964H92.0524V249.815H95.5724ZM95.5724 253.964V258.112H92.0524V253.964H95.5724ZM95.5724 258.112V262.26H92.0524V258.112H95.5724ZM95.5724 262.26V266.408H92.0524V262.26H95.5724ZM95.5724 266.408V270.556H92.0524V266.408H95.5724ZM88.5324 262.26V266.408H85.0123V262.26H88.5324ZM88.5324 258.112V262.26H85.0123V258.112H88.5324ZM88.5324 253.964V258.112H85.0123V253.964H88.5324ZM88.5324 249.815V253.964H85.0123V249.815H88.5324ZM88.5324 245.667V249.815H85.0123V245.667H88.5324ZM88.5324 241.519V245.667H85.0123V241.519H88.5324ZM85.0123 274.705V278.853H81.4923V274.705H85.0123ZM85.0123 278.853V283.001H81.4923V278.853H85.0123ZM85.0123 283.001V287.149H81.4923V283.001H85.0123ZM85.0123 287.149V291.297H81.4923V287.149H85.0123ZM85.0123 291.297V295.445H81.4923V291.297H85.0123ZM85.0123 295.445V299.594H81.4923V295.445H85.0123ZM85.0123 200.037V204.185H81.4923V200.037H85.0123ZM85.0123 208.334V212.482H81.4923V208.334H85.0123ZM95.5724 274.705V278.853H92.0524V274.705H95.5724ZM95.5724 278.853V283.001H92.0524V278.853H95.5724ZM95.5724 283.001V287.149H92.0524V283.001H95.5724ZM95.5724 287.149V291.297H92.0524V287.149H95.5724ZM95.5724 291.297V295.445H92.0524V291.297H95.5724ZM95.5724 295.445V299.594H92.0524V295.445H95.5724ZM95.5724 200.037V204.185H92.0524V200.037H95.5724ZM95.5724 204.185V208.334H92.0524V204.185H95.5724ZM95.5724 208.334V212.482H92.0524V208.334H95.5724ZM95.5724 216.63V220.778H92.0524V216.63H95.5724ZM95.5724 220.778V224.926H92.0524V220.778H95.5724ZM95.5724 224.926V229.075H92.0524V224.926H95.5724ZM99.0924 229.075V233.223H95.5724V229.075H99.0924ZM99.0924 233.223V237.371H95.5724V233.223H99.0924ZM99.0924 237.371V241.519H95.5724V237.371H99.0924ZM99.0924 224.926V229.075H95.5724V224.926H99.0924ZM99.0924 220.778V224.926H95.5724V220.778H99.0924ZM99.0924 212.482V216.63H95.5724V212.482H99.0924ZM99.0924 208.334V212.482H95.5724V208.334H99.0924ZM99.0924 204.185V208.334H95.5724V204.185H99.0924ZM99.0924 200.037V204.185H95.5724V200.037H99.0924ZM99.0924 195.889V200.037H95.5724V195.889H99.0924ZM99.0924 295.445V299.594H95.5724V295.445H99.0924ZM99.0924 291.297V295.445H95.5724V291.297H99.0924ZM95.5724 195.889V200.037H92.0524V195.889H95.5724ZM99.0924 287.149V291.297H95.5724V287.149H99.0924ZM99.0924 283.001V287.149H95.5724V283.001H99.0924ZM99.0924 278.853V283.001H95.5724V278.853H99.0924ZM99.0924 274.705V278.853H95.5724V274.705H99.0924ZM92.0524 274.705V278.853H88.5324V274.705H92.0524ZM88.5324 274.705V278.853H85.0123V274.705H88.5324ZM88.5324 278.853V283.001H85.0123V278.853H88.5324ZM92.0524 278.853V283.001H88.5324V278.853H92.0524ZM92.0524 283.001V287.149H88.5324V283.001H92.0524ZM92.0524 287.149V291.297H88.5324V287.149H92.0524ZM92.0524 291.297V295.445H88.5324V291.297H92.0524ZM92.0524 295.445V299.594H88.5324V295.445H92.0524ZM92.0524 195.889V200.037H88.5324V195.889H92.0524ZM92.0524 200.037V204.185H88.5324V200.037H92.0524ZM88.5324 204.185V208.334H85.0123V204.185H88.5324ZM88.5324 208.334V212.482H85.0123V208.334H88.5324ZM88.5324 200.037V204.185H85.0123V200.037H88.5324ZM88.5324 195.889V200.037H85.0123V195.889H88.5324ZM88.5324 295.445V299.594H85.0123V295.445H88.5324ZM88.5324 291.297V295.445H85.0123V291.297H88.5324ZM88.5324 287.149V291.297H85.0123V287.149H88.5324ZM88.5324 283.001V287.149H85.0123V283.001H88.5324ZM92.0524 208.334V212.482H88.5324V208.334H92.0524ZM92.0524 216.63V220.778H88.5324V216.63H92.0524ZM92.0524 220.778V224.926H88.5324V220.778H92.0524ZM92.0524 224.926V229.075H88.5324V224.926H92.0524ZM92.0524 229.075V233.223H88.5324V229.075H92.0524ZM92.0524 233.223V237.371H88.5324V233.223H92.0524ZM92.0524 237.371V241.519H88.5324V237.371H92.0524ZM95.5724 233.223V237.371H92.0524V233.223H95.5724ZM95.5724 229.075V233.223H92.0524V229.075H95.5724ZM85.0123 195.889V200.037H81.4923V195.889H85.0123ZM99.0924 216.63V220.778H95.5724V216.63H99.0924ZM85.0123 204.185V208.334H81.4923V204.185H85.0123ZM92.0524 204.185V208.334H88.5324V204.185H92.0524ZM92.0524 212.482V216.63H88.5324V212.482H92.0524ZM95.5724 212.482V216.63H92.0524V212.482H95.5724ZM85.0123 266.408V270.556H81.4923V266.408H85.0123ZM88.5324 266.408V270.556H85.0123V266.408H88.5324ZM88.5324 270.556V274.705H85.0123V270.556H88.5324ZM85.0123 270.556V274.705H81.4923V270.556H85.0123ZM81.4923 195.889V200.037H77.9723V195.889H81.4923ZM81.4923 253.964V258.112H77.9723V253.964H81.4923Z" fill="#30310F"/>
<path d="M116.758 195.889V200.037H113.238V195.889H116.758ZM120.278 195.889V200.037H116.758V195.889H120.278ZM123.798 195.889V200.037H120.278V195.889H123.798ZM127.318 195.889V200.037H123.798V195.889H127.318ZM127.318 200.037V204.185H123.798V200.037H127.318ZM130.838 200.037V204.185H127.318V200.037H130.838ZM130.838 204.185V208.334H127.318V204.185H130.838ZM130.838 195.889V200.037H127.318V195.889H130.838ZM130.838 208.334V212.482H127.318V208.334H130.838ZM130.838 212.482V216.63H127.318V212.482H130.838ZM130.838 216.63V220.778H127.318V216.63H130.838ZM130.838 220.778V224.926H127.318V220.778H130.838ZM130.838 224.926V229.075H127.318V224.926H130.838ZM130.838 229.075V233.223H127.318V229.075H130.838ZM130.838 233.223V237.371H127.318V233.223H130.838ZM130.838 237.371V241.519H127.318V237.371H130.838ZM130.838 241.519V245.667H127.318V241.519H130.838ZM127.318 241.519V245.667H123.798V241.519H127.318ZM123.798 245.667V249.815H120.278V245.667H123.798ZM120.278 245.667V249.815H116.758V245.667H120.278ZM116.758 245.667V249.815H113.238V245.667H116.758ZM116.758 241.519V245.667H113.238V241.519H116.758ZM116.758 237.371V241.519H113.238V237.371H116.758ZM116.758 233.223V237.371H113.238V233.223H116.758ZM116.758 229.075V233.223H113.238V229.075H116.758ZM120.278 229.075V233.223H116.758V229.075H120.278ZM120.278 224.926V229.075H116.758V224.926H120.278ZM120.278 220.778V224.926H116.758V220.778H120.278ZM120.278 216.63V220.778H116.758V216.63H120.278ZM120.278 212.482V216.63H116.758V212.482H120.278ZM120.278 208.334V212.482H116.758V208.334H120.278ZM120.278 204.185V208.334H116.758V204.185H120.278ZM120.278 200.037V204.185H116.758V200.037H120.278ZM116.758 200.037V204.185H113.238V200.037H116.758ZM116.758 204.185V208.334H113.238V204.185H116.758ZM116.758 208.334V212.482H113.238V208.334H116.758ZM116.758 212.482V216.63H113.238V212.482H116.758ZM116.758 216.63V220.778H113.238V216.63H116.758ZM116.758 220.778V224.926H113.238V220.778H116.758ZM116.758 224.926V229.075H113.238V224.926H116.758ZM123.798 216.63V220.778H120.278V216.63H123.798ZM123.798 212.482V216.63H120.278V212.482H123.798ZM123.798 208.334V212.482H120.278V208.334H123.798ZM123.798 204.185V208.334H120.278V204.185H123.798ZM123.798 200.037V204.185H120.278V200.037H123.798ZM127.318 216.63V220.778H123.798V216.63H127.318ZM127.318 220.778V224.926H123.798V220.778H127.318ZM127.318 212.482V216.63H123.798V212.482H127.318ZM127.318 208.334V212.482H123.798V208.334H127.318ZM127.318 204.185V208.334H123.798V204.185H127.318ZM123.798 229.075V233.223H120.278V229.075H123.798ZM123.798 224.926V229.075H120.278V224.926H123.798ZM123.798 220.778V224.926H120.278V220.778H123.798ZM127.318 224.926V229.075H123.798V224.926H127.318ZM127.318 229.075V233.223H123.798V229.075H127.318ZM127.318 233.223V237.371H123.798V233.223H127.318ZM123.798 237.371V241.519H120.278V237.371H123.798ZM123.798 241.519V245.667H120.278V241.519H123.798ZM123.798 233.223V237.371H120.278V233.223H123.798ZM120.278 233.223V237.371H116.758V233.223H120.278ZM120.278 237.371V241.519H116.758V237.371H120.278ZM120.278 241.519V245.667H116.758V241.519H120.278ZM127.318 237.371V241.519H123.798V237.371H127.318ZM123.798 249.815V253.964H120.278V249.815H123.798ZM120.278 249.815V253.964H116.758V249.815H120.278ZM127.318 249.815V253.964H123.798V249.815H127.318ZM127.318 245.667V249.815H123.798V245.667H127.318ZM130.838 245.667V249.815H127.318V245.667H130.838ZM134.358 245.667V249.815H130.838V245.667H134.358ZM134.358 249.815V253.964H130.838V249.815H134.358ZM130.838 249.815V253.964H127.318V249.815H130.838ZM137.878 249.815V253.964H134.358V249.815H137.878ZM123.798 253.964V258.112H120.278V253.964H123.798ZM127.318 253.964V258.112H123.798V253.964H127.318ZM130.838 253.964V258.112H127.318V253.964H130.838ZM134.358 253.964V258.112H130.838V253.964H134.358ZM137.878 253.964V258.112H134.358V253.964H137.878ZM141.398 253.964V258.112H137.878V253.964H141.398ZM144.918 253.964V258.112H141.398V253.964H144.918ZM148.438 253.964V258.112H144.918V253.964H148.438ZM151.958 253.964V258.112H148.438V253.964H151.958ZM155.478 253.964V258.112H151.958V253.964H155.478ZM151.958 249.815V253.964H148.438V249.815H151.958ZM148.438 249.815V253.964H144.918V249.815H148.438ZM144.918 249.815V253.964H141.398V249.815H144.918ZM148.438 245.667V249.815H144.918V245.667H148.438ZM137.878 270.556V274.705H134.358V270.556H137.878ZM137.878 266.408V270.556H134.358V266.408H137.878ZM137.878 262.26V266.408H134.358V262.26H137.878ZM141.398 258.112V262.26H137.878V258.112H141.398ZM144.918 258.112V262.26H141.398V258.112H144.918ZM144.918 262.26V266.408H141.398V262.26H144.918ZM144.918 266.408V270.556H141.398V266.408H144.918ZM144.918 270.556V274.705H141.398V270.556H144.918ZM141.398 270.556V274.705H137.878V270.556H141.398ZM141.398 262.26V266.408H137.878V262.26H141.398ZM141.398 266.408V270.556H137.878V266.408H141.398ZM148.438 262.26V266.408H144.918V262.26H148.438ZM148.438 258.112V262.26H144.918V258.112H148.438ZM151.958 258.112V262.26H148.438V258.112H151.958ZM155.478 258.112V262.26H151.958V258.112H155.478ZM151.958 262.26V266.408H148.438V262.26H151.958ZM148.438 266.408V270.556H144.918V266.408H148.438ZM127.318 258.112V262.26H123.798V258.112H127.318ZM130.838 258.112V262.26H127.318V258.112H130.838ZM130.838 262.26V266.408H127.318V262.26H130.838ZM134.358 262.26V266.408H130.838V262.26H134.358ZM134.358 266.408V270.556H130.838V266.408H134.358ZM137.878 258.112V262.26H134.358V258.112H137.878ZM134.358 258.112V262.26H130.838V258.112H134.358ZM151.958 195.889V200.037H148.438V195.889H151.958ZM155.478 195.889V200.037H151.958V195.889H155.478ZM158.998 195.889V200.037H155.478V195.889H158.998ZM162.518 200.037V204.185H158.998V200.037H162.518ZM166.038 208.334V212.482H162.518V208.334H166.038ZM166.038 212.482V216.63H162.518V212.482H166.038ZM166.038 216.63V220.778H162.518V216.63H166.038ZM166.038 224.926V229.075H162.518V224.926H166.038ZM166.038 229.075V233.223H162.518V229.075H166.038ZM166.038 233.223V237.371H162.518V233.223H166.038ZM166.038 237.371V241.519H162.518V237.371H166.038ZM166.038 241.519V245.667H162.518V241.519H166.038ZM162.518 241.519V245.667H158.998V241.519H162.518ZM158.998 245.667V249.815H155.478V245.667H158.998ZM155.478 245.667V249.815H151.958V245.667H155.478ZM151.958 245.667V249.815H148.438V245.667H151.958ZM151.958 241.519V245.667H148.438V241.519H151.958ZM151.958 237.371V241.519H148.438V237.371H151.958ZM151.958 229.075V233.223H148.438V229.075H151.958ZM155.478 229.075V233.223H151.958V229.075H155.478ZM155.478 224.926V229.075H151.958V224.926H155.478ZM155.478 220.778V224.926H151.958V220.778H155.478ZM155.478 216.63V220.778H151.958V216.63H155.478ZM155.478 212.482V216.63H151.958V212.482H155.478ZM155.478 208.334V212.482H151.958V208.334H155.478ZM155.478 204.185V208.334H151.958V204.185H155.478ZM155.478 200.037V204.185H151.958V200.037H155.478ZM151.958 200.037V204.185H148.438V200.037H151.958ZM151.958 204.185V208.334H148.438V204.185H151.958ZM151.958 208.334V212.482H148.438V208.334H151.958ZM151.958 212.482V216.63H148.438V212.482H151.958ZM151.958 216.63V220.778H148.438V216.63H151.958ZM151.958 224.926V229.075H148.438V224.926H151.958ZM158.998 216.63V220.778H155.478V216.63H158.998ZM158.998 212.482V216.63H155.478V212.482H158.998ZM158.998 208.334V212.482H155.478V208.334H158.998ZM158.998 204.185V208.334H155.478V204.185H158.998ZM162.518 216.63V220.778H158.998V216.63H162.518ZM162.518 220.778V224.926H158.998V220.778H162.518ZM162.518 212.482V216.63H158.998V212.482H162.518ZM162.518 208.334V212.482H158.998V208.334H162.518ZM158.998 229.075V233.223H155.478V229.075H158.998ZM158.998 224.926V229.075H155.478V224.926H158.998ZM158.998 220.778V224.926H155.478V220.778H158.998ZM162.518 224.926V229.075H158.998V224.926H162.518ZM162.518 229.075V233.223H158.998V229.075H162.518ZM162.518 233.223V237.371H158.998V233.223H162.518ZM158.998 237.371V241.519H155.478V237.371H158.998ZM158.998 241.519V245.667H155.478V241.519H158.998ZM158.998 233.223V237.371H155.478V233.223H158.998ZM155.478 233.223V237.371H151.958V233.223H155.478ZM155.478 237.371V241.519H151.958V237.371H155.478ZM155.478 241.519V245.667H151.958V241.519H155.478ZM162.518 237.371V241.519H158.998V237.371H162.518ZM158.998 249.815V253.964H155.478V249.815H158.998ZM162.518 249.815V253.964H158.998V249.815H162.518ZM162.518 245.667V249.815H158.998V245.667H162.518ZM166.038 245.667V249.815H162.518V245.667H166.038ZM169.558 245.667V249.815H166.038V245.667H169.558ZM169.558 249.815V253.964H166.038V249.815H169.558ZM166.038 249.815V253.964H162.518V249.815H166.038ZM173.078 249.815V253.964H169.558V249.815H173.078ZM162.518 253.964V258.112H158.998V253.964H162.518ZM166.038 253.964V258.112H162.518V253.964H166.038ZM169.558 253.964V258.112H166.038V253.964H169.558ZM173.078 253.964V258.112H169.558V253.964H173.078ZM176.598 253.964V258.112H173.078V253.964H176.598ZM180.118 253.964V258.112H176.598V253.964H180.118ZM183.638 253.964V258.112H180.118V253.964H183.638ZM187.158 253.964V258.112H183.638V253.964H187.158ZM190.678 253.964V258.112H187.158V253.964H190.678ZM194.198 253.964V258.112H190.678V253.964H194.198ZM190.678 249.815V253.964H187.158V249.815H190.678ZM187.158 249.815V253.964H183.638V249.815H187.158ZM183.638 249.815V253.964H180.118V249.815H183.638ZM180.118 249.815V253.964H176.598V249.815H180.118ZM183.638 245.667V249.815H180.118V245.667H183.638ZM187.158 245.667V249.815H183.638V245.667H187.158ZM190.678 245.667V249.815H187.158V245.667H190.678ZM194.198 245.667V249.815H190.678V245.667H194.198ZM197.718 245.667V249.815H194.198V245.667H197.718ZM197.718 249.815V253.964H194.198V249.815H197.718ZM194.198 249.815V253.964H190.678V249.815H194.198ZM201.238 245.667V249.815H197.718V245.667H201.238ZM173.078 270.556V274.705H169.558V270.556H173.078ZM173.078 266.408V270.556H169.558V266.408H173.078ZM173.078 262.26V266.408H169.558V262.26H173.078ZM176.598 258.112V262.26H173.078V258.112H176.598ZM180.118 258.112V262.26H176.598V258.112H180.118ZM180.118 262.26V266.408H176.598V262.26H180.118ZM180.118 266.408V270.556H176.598V266.408H180.118ZM180.118 270.556V274.705H176.598V270.556H180.118ZM176.598 270.556V274.705H173.078V270.556H176.598ZM176.598 262.26V266.408H173.078V262.26H176.598ZM176.598 266.408V270.556H173.078V266.408H176.598ZM183.638 262.26V266.408H180.118V262.26H183.638ZM183.638 258.112V262.26H180.118V258.112H183.638ZM187.158 258.112V262.26H183.638V258.112H187.158ZM190.678 258.112V262.26H187.158V258.112H190.678ZM187.158 262.26V266.408H183.638V262.26H187.158ZM183.638 266.408V270.556H180.118V266.408H183.638ZM162.518 258.112V262.26H158.998V258.112H162.518ZM166.038 258.112V262.26H162.518V258.112H166.038ZM166.038 262.26V266.408H162.518V262.26H166.038ZM169.558 262.26V266.408H166.038V262.26H169.558ZM169.558 266.408V270.556H166.038V266.408H169.558ZM173.078 258.112V262.26H169.558V258.112H173.078ZM169.558 258.112V262.26H166.038V258.112H169.558ZM187.158 241.519V245.667H183.638V241.519H187.158ZM187.158 237.371V241.519H183.638V237.371H187.158ZM187.158 233.223V237.371H183.638V233.223H187.158ZM187.158 229.075V233.223H183.638V229.075H187.158ZM190.678 229.075V233.223H187.158V229.075H190.678ZM194.198 229.075V233.223H190.678V229.075H194.198ZM197.718 229.075V233.223H194.198V229.075H197.718ZM201.238 229.075V233.223H197.718V229.075H201.238ZM201.238 233.223V237.371H197.718V233.223H201.238ZM201.238 237.371V241.519H197.718V237.371H201.238ZM201.238 241.519V245.667H197.718V241.519H201.238ZM197.718 241.519V245.667H194.198V241.519H197.718ZM194.198 241.519V245.667H190.678V241.519H194.198ZM190.678 241.519V245.667H187.158V241.519H190.678ZM194.198 237.371V241.519H190.678V237.371H194.198ZM197.718 237.371V241.519H194.198V237.371H197.718ZM197.718 233.223V237.371H194.198V233.223H197.718ZM194.198 233.223V237.371H190.678V233.223H194.198ZM190.678 233.223V237.371H187.158V233.223H190.678ZM190.678 237.371V241.519H187.158V237.371H190.678ZM187.158 224.926V229.075H183.638V224.926H187.158ZM187.158 220.778V224.926H183.638V220.778H187.158ZM187.158 216.63V220.778H183.638V216.63H187.158ZM187.158 212.482V216.63H183.638V212.482H187.158ZM187.158 208.334V212.482H183.638V208.334H187.158ZM187.158 204.185V208.334H183.638V204.185H187.158ZM187.158 200.037V204.185H183.638V200.037H187.158ZM187.158 195.889V200.037H183.638V195.889H187.158ZM190.678 200.037V204.185H187.158V200.037H190.678ZM190.678 195.889V200.037H187.158V195.889H190.678ZM194.198 195.889V200.037H190.678V195.889H194.198ZM197.718 195.889V200.037H194.198V195.889H197.718ZM197.718 200.037V204.185H194.198V200.037H197.718ZM197.718 204.185V208.334H194.198V204.185H197.718ZM201.238 204.185V208.334H197.718V204.185H201.238ZM201.238 208.334V212.482H197.718V208.334H201.238ZM201.238 212.482V216.63H197.718V212.482H201.238ZM201.238 216.63V220.778H197.718V216.63H201.238ZM201.238 220.778V224.926H197.718V220.778H201.238ZM201.238 224.926V229.075H197.718V224.926H201.238ZM201.238 200.037V204.185H197.718V200.037H201.238ZM201.238 195.889V200.037H197.718V195.889H201.238ZM194.198 200.037V204.185H190.678V200.037H194.198ZM194.198 204.185V208.334H190.678V204.185H194.198ZM194.198 208.334V212.482H190.678V208.334H194.198ZM194.198 212.482V216.63H190.678V212.482H194.198ZM194.198 216.63V220.778H190.678V216.63H194.198ZM194.198 220.778V224.926H190.678V220.778H194.198ZM190.678 220.778V224.926H187.158V220.778H190.678ZM190.678 224.926V229.075H187.158V224.926H190.678ZM190.678 216.63V220.778H187.158V216.63H190.678ZM190.678 212.482V216.63H187.158V212.482H190.678ZM190.678 208.334V212.482H187.158V208.334H190.678ZM190.678 204.185V208.334H187.158V204.185H190.678ZM197.718 208.334V212.482H194.198V208.334H197.718ZM197.718 212.482V216.63H194.198V212.482H197.718ZM197.718 216.63V220.778H194.198V216.63H197.718ZM197.718 220.778V224.926H194.198V220.778H197.718ZM197.718 224.926V229.075H194.198V224.926H197.718ZM194.198 224.926V229.075H190.678V224.926H194.198ZM162.518 195.889V200.037H158.998V195.889H162.518ZM166.038 195.889V200.037H162.518V195.889H166.038ZM166.038 200.037V204.185H162.518V200.037H166.038ZM166.038 204.185V208.334H162.518V204.185H166.038ZM162.518 204.185V208.334H158.998V204.185H162.518ZM151.958 220.778V224.926H148.438V220.778H151.958ZM151.958 233.223V237.371H148.438V233.223H151.958ZM166.038 220.778V224.926H162.518V220.778H166.038ZM158.998 200.037V204.185H155.478V200.037H158.998ZM158.998 253.964V258.112H155.478V253.964H158.998ZM155.478 249.815V253.964H151.958V249.815H155.478Z" fill="#30310F"/>
<path d="M218.797 195.889V200.037H215.277V195.889H218.797ZM222.317 195.889V200.037H218.797V195.889H222.317ZM225.837 195.889V200.037H222.317V195.889H225.837ZM229.357 195.889V200.037H225.837V195.889H229.357ZM229.357 200.037V204.185H225.837V200.037H229.357ZM232.877 200.037V204.185H229.357V200.037H232.877ZM232.877 204.185V208.334H229.357V204.185H232.877ZM232.877 195.889V200.037H229.357V195.889H232.877ZM232.877 208.334V212.482H229.357V208.334H232.877ZM232.877 212.482V216.63H229.357V212.482H232.877ZM232.877 216.63V220.778H229.357V216.63H232.877ZM232.877 220.778V224.926H229.357V220.778H232.877ZM232.877 224.926V229.075H229.357V224.926H232.877ZM232.877 229.075V233.223H229.357V229.075H232.877ZM232.877 233.223V237.371H229.357V233.223H232.877ZM232.877 237.371V241.519H229.357V237.371H232.877ZM232.877 241.519V245.667H229.357V241.519H232.877ZM229.357 241.519V245.667H225.837V241.519H229.357ZM225.837 245.667V249.815H222.317V245.667H225.837ZM222.317 245.667V249.815H218.797V245.667H222.317ZM218.797 245.667V249.815H215.277V245.667H218.797ZM218.797 241.519V245.667H215.277V241.519H218.797ZM218.797 237.371V241.519H215.277V237.371H218.797ZM218.797 233.223V237.371H215.277V233.223H218.797ZM218.797 229.075V233.223H215.277V229.075H218.797ZM222.317 229.075V233.223H218.797V229.075H222.317ZM222.317 224.926V229.075H218.797V224.926H222.317ZM222.317 220.778V224.926H218.797V220.778H222.317ZM222.317 216.63V220.778H218.797V216.63H222.317ZM222.317 212.482V216.63H218.797V212.482H222.317ZM222.317 208.334V212.482H218.797V208.334H222.317ZM222.317 204.185V208.334H218.797V204.185H222.317ZM222.317 200.037V204.185H218.797V200.037H222.317ZM218.797 200.037V204.185H215.277V200.037H218.797ZM218.797 204.185V208.334H215.277V204.185H218.797ZM218.797 208.334V212.482H215.277V208.334H218.797ZM218.797 212.482V216.63H215.277V212.482H218.797ZM218.797 216.63V220.778H215.277V216.63H218.797ZM218.797 220.778V224.926H215.277V220.778H218.797ZM218.797 224.926V229.075H215.277V224.926H218.797ZM225.837 216.63V220.778H222.317V216.63H225.837ZM225.837 212.482V216.63H222.317V212.482H225.837ZM225.837 208.334V212.482H222.317V208.334H225.837ZM225.837 204.185V208.334H222.317V204.185H225.837ZM225.837 200.037V204.185H222.317V200.037H225.837ZM229.357 216.63V220.778H225.837V216.63H229.357ZM229.357 220.778V224.926H225.837V220.778H229.357ZM229.357 212.482V216.63H225.837V212.482H229.357ZM229.357 208.334V212.482H225.837V208.334H229.357ZM229.357 204.185V208.334H225.837V204.185H229.357ZM225.837 229.075V233.223H222.317V229.075H225.837ZM225.837 224.926V229.075H222.317V224.926H225.837ZM225.837 220.778V224.926H222.317V220.778H225.837ZM229.357 224.926V229.075H225.837V224.926H229.357ZM229.357 229.075V233.223H225.837V229.075H229.357ZM229.357 233.223V237.371H225.837V233.223H229.357ZM225.837 237.371V241.519H222.317V237.371H225.837ZM225.837 241.519V245.667H222.317V241.519H225.837ZM225.837 233.223V237.371H222.317V233.223H225.837ZM222.317 233.223V237.371H218.797V233.223H222.317ZM222.317 237.371V241.519H218.797V237.371H222.317ZM222.317 241.519V245.667H218.797V241.519H222.317ZM229.357 237.371V241.519H225.837V237.371H229.357ZM225.837 249.815V253.964H222.317V249.815H225.837ZM222.317 249.815V253.964H218.797V249.815H222.317ZM229.357 249.815V253.964H225.837V249.815H229.357ZM229.357 245.667V249.815H225.837V245.667H229.357ZM232.877 245.667V249.815H229.357V245.667H232.877ZM236.397 245.667V249.815H232.877V245.667H236.397ZM236.397 249.815V253.964H232.877V249.815H236.397ZM232.877 249.815V253.964H229.357V249.815H232.877ZM239.917 249.815V253.964H236.397V249.815H239.917ZM225.837 253.964V258.112H222.317V253.964H225.837ZM229.357 253.964V258.112H225.837V253.964H229.357ZM232.877 253.964V258.112H229.357V253.964H232.877ZM236.397 253.964V258.112H232.877V253.964H236.397ZM239.917 253.964V258.112H236.397V253.964H239.917ZM243.437 253.964V258.112H239.917V253.964H243.437ZM246.957 253.964V258.112H243.437V253.964H246.957ZM250.477 253.964V258.112H246.957V253.964H250.477ZM253.997 253.964V258.112H250.477V253.964H253.997ZM257.517 253.964V258.112H253.997V253.964H257.517ZM253.997 249.815V253.964H250.477V249.815H253.997ZM250.477 249.815V253.964H246.957V249.815H250.477ZM246.957 249.815V253.964H243.437V249.815H246.957ZM250.477 245.667V249.815H246.957V245.667H250.477ZM239.917 270.556V274.705H236.397V270.556H239.917ZM239.917 266.408V270.556H236.397V266.408H239.917ZM239.917 262.26V266.408H236.397V262.26H239.917ZM243.437 258.112V262.26H239.917V258.112H243.437ZM246.957 258.112V262.26H243.437V258.112H246.957ZM246.957 262.26V266.408H243.437V262.26H246.957ZM246.957 266.408V270.556H243.437V266.408H246.957ZM246.957 270.556V274.705H243.437V270.556H246.957ZM243.437 270.556V274.705H239.917V270.556H243.437ZM243.437 262.26V266.408H239.917V262.26H243.437ZM243.437 266.408V270.556H239.917V266.408H243.437ZM250.477 262.26V266.408H246.957V262.26H250.477ZM250.477 258.112V262.26H246.957V258.112H250.477ZM253.997 258.112V262.26H250.477V258.112H253.997ZM257.517 258.112V262.26H253.997V258.112H257.517ZM253.997 262.26V266.408H250.477V262.26H253.997ZM250.477 266.408V270.556H246.957V266.408H250.477ZM229.357 258.112V262.26H225.837V258.112H229.357ZM232.877 258.112V262.26H229.357V258.112H232.877ZM232.877 262.26V266.408H229.357V262.26H232.877ZM236.397 262.26V266.408H232.877V262.26H236.397ZM236.397 266.408V270.556H232.877V266.408H236.397ZM239.917 258.112V262.26H236.397V258.112H239.917ZM236.397 258.112V262.26H232.877V258.112H236.397ZM253.997 195.889V200.037H250.477V195.889H253.997ZM257.517 195.889V200.037H253.997V195.889H257.517ZM261.037 195.889V200.037H257.517V195.889H261.037ZM264.557 200.037V204.185H261.037V200.037H264.557ZM268.077 208.334V212.482H264.557V208.334H268.077ZM268.077 212.482V216.63H264.557V212.482H268.077ZM268.077 216.63V220.778H264.557V216.63H268.077ZM268.077 224.926V229.075H264.557V224.926H268.077ZM268.077 229.075V233.223H264.557V229.075H268.077ZM268.077 233.223V237.371H264.557V233.223H268.077ZM268.077 237.371V241.519H264.557V237.371H268.077ZM268.077 241.519V245.667H264.557V241.519H268.077ZM264.557 241.519V245.667H261.037V241.519H264.557ZM261.037 245.667V249.815H257.517V245.667H261.037ZM257.517 245.667V249.815H253.997V245.667H257.517ZM253.997 245.667V249.815H250.477V245.667H253.997ZM253.997 241.519V245.667H250.477V241.519H253.997ZM253.997 237.371V241.519H250.477V237.371H253.997ZM253.997 229.075V233.223H250.477V229.075H253.997ZM257.517 229.075V233.223H253.997V229.075H257.517ZM257.517 224.926V229.075H253.997V224.926H257.517ZM257.517 220.778V224.926H253.997V220.778H257.517ZM257.517 216.63V220.778H253.997V216.63H257.517ZM257.517 212.482V216.63H253.997V212.482H257.517ZM257.517 208.334V212.482H253.997V208.334H257.517ZM257.517 204.185V208.334H253.997V204.185H257.517ZM257.517 200.037V204.185H253.997V200.037H257.517ZM253.997 200.037V204.185H250.477V200.037H253.997ZM253.997 204.185V208.334H250.477V204.185H253.997ZM253.997 208.334V212.482H250.477V208.334H253.997ZM253.997 212.482V216.63H250.477V212.482H253.997ZM253.997 216.63V220.778H250.477V216.63H253.997ZM253.997 224.926V229.075H250.477V224.926H253.997ZM261.037 216.63V220.778H257.517V216.63H261.037ZM261.037 212.482V216.63H257.517V212.482H261.037ZM261.037 208.334V212.482H257.517V208.334H261.037ZM261.037 204.185V208.334H257.517V204.185H261.037ZM264.557 216.63V220.778H261.037V216.63H264.557ZM264.557 220.778V224.926H261.037V220.778H264.557ZM264.557 212.482V216.63H261.037V212.482H264.557ZM264.557 208.334V212.482H261.037V208.334H264.557ZM261.037 229.075V233.223H257.517V229.075H261.037ZM261.037 224.926V229.075H257.517V224.926H261.037ZM261.037 220.778V224.926H257.517V220.778H261.037ZM264.557 224.926V229.075H261.037V224.926H264.557ZM264.557 229.075V233.223H261.037V229.075H264.557ZM264.557 233.223V237.371H261.037V233.223H264.557ZM261.037 237.371V241.519H257.517V237.371H261.037ZM261.037 241.519V245.667H257.517V241.519H261.037ZM261.037 233.223V237.371H257.517V233.223H261.037ZM257.517 233.223V237.371H253.997V233.223H257.517ZM257.517 237.371V241.519H253.997V237.371H257.517ZM257.517 241.519V245.667H253.997V241.519H257.517ZM264.557 237.371V241.519H261.037V237.371H264.557ZM261.037 249.815V253.964H257.517V249.815H261.037ZM264.557 249.815V253.964H261.037V249.815H264.557ZM264.557 245.667V249.815H261.037V245.667H264.557ZM268.077 245.667V249.815H264.557V245.667H268.077ZM271.597 245.667V249.815H268.077V245.667H271.597ZM271.597 249.815V253.964H268.077V249.815H271.597ZM268.077 249.815V253.964H264.557V249.815H268.077ZM275.117 249.815V253.964H271.597V249.815H275.117ZM264.557 253.964V258.112H261.037V253.964H264.557ZM268.077 253.964V258.112H264.557V253.964H268.077ZM271.597 253.964V258.112H268.077V253.964H271.597ZM275.117 253.964V258.112H271.597V253.964H275.117ZM278.637 253.964V258.112H275.117V253.964H278.637ZM282.157 253.964V258.112H278.637V253.964H282.157ZM285.677 253.964V258.112H282.157V253.964H285.677ZM289.197 253.964V258.112H285.677V253.964H289.197ZM292.717 253.964V258.112H289.197V253.964H292.717ZM296.237 253.964V258.112H292.717V253.964H296.237ZM292.717 249.815V253.964H289.197V249.815H292.717ZM289.197 249.815V253.964H285.677V249.815H289.197ZM285.677 249.815V253.964H282.157V249.815H285.677ZM282.157 249.815V253.964H278.637V249.815H282.157ZM285.677 245.667V249.815H282.157V245.667H285.677ZM289.197 245.667V249.815H285.677V245.667H289.197ZM292.717 245.667V249.815H289.197V245.667H292.717ZM296.237 245.667V249.815H292.717V245.667H296.237ZM299.757 245.667V249.815H296.237V245.667H299.757ZM299.757 249.815V253.964H296.237V249.815H299.757ZM296.237 249.815V253.964H292.717V249.815H296.237ZM303.277 245.667V249.815H299.757V245.667H303.277ZM275.117 270.556V274.705H271.597V270.556H275.117ZM275.117 266.408V270.556H271.597V266.408H275.117ZM275.117 262.26V266.408H271.597V262.26H275.117ZM278.637 258.112V262.26H275.117V258.112H278.637ZM282.157 258.112V262.26H278.637V258.112H282.157ZM282.157 262.26V266.408H278.637V262.26H282.157ZM282.157 266.408V270.556H278.637V266.408H282.157ZM282.157 270.556V274.705H278.637V270.556H282.157ZM278.637 270.556V274.705H275.117V270.556H278.637ZM278.637 262.26V266.408H275.117V262.26H278.637ZM278.637 266.408V270.556H275.117V266.408H278.637ZM285.677 262.26V266.408H282.157V262.26H285.677ZM285.677 258.112V262.26H282.157V258.112H285.677ZM289.197 258.112V262.26H285.677V258.112H289.197ZM292.717 258.112V262.26H289.197V258.112H292.717ZM289.197 262.26V266.408H285.677V262.26H289.197ZM285.677 266.408V270.556H282.157V266.408H285.677ZM264.557 258.112V262.26H261.037V258.112H264.557ZM268.077 258.112V262.26H264.557V258.112H268.077ZM268.077 262.26V266.408H264.557V262.26H268.077ZM271.597 262.26V266.408H268.077V262.26H271.597ZM271.597 266.408V270.556H268.077V266.408H271.597ZM275.117 258.112V262.26H271.597V258.112H275.117ZM271.597 258.112V262.26H268.077V258.112H271.597ZM289.197 241.519V245.667H285.677V241.519H289.197ZM289.197 237.371V241.519H285.677V237.371H289.197ZM289.197 233.223V237.371H285.677V233.223H289.197ZM289.197 229.075V233.223H285.677V229.075H289.197ZM292.717 229.075V233.223H289.197V229.075H292.717ZM296.237 229.075V233.223H292.717V229.075H296.237ZM299.757 229.075V233.223H296.237V229.075H299.757ZM303.277 229.075V233.223H299.757V229.075H303.277ZM303.277 233.223V237.371H299.757V233.223H303.277ZM303.277 237.371V241.519H299.757V237.371H303.277ZM303.277 241.519V245.667H299.757V241.519H303.277ZM299.757 241.519V245.667H296.237V241.519H299.757ZM296.237 241.519V245.667H292.717V241.519H296.237ZM292.717 241.519V245.667H289.197V241.519H292.717ZM296.237 237.371V241.519H292.717V237.371H296.237ZM299.757 237.371V241.519H296.237V237.371H299.757ZM299.757 233.223V237.371H296.237V233.223H299.757ZM296.237 233.223V237.371H292.717V233.223H296.237ZM292.717 233.223V237.371H289.197V233.223H292.717ZM292.717 237.371V241.519H289.197V237.371H292.717ZM289.197 224.926V229.075H285.677V224.926H289.197ZM289.197 220.778V224.926H285.677V220.778H289.197ZM289.197 216.63V220.778H285.677V216.63H289.197ZM289.197 212.482V216.63H285.677V212.482H289.197ZM289.197 208.334V212.482H285.677V208.334H289.197ZM289.197 204.185V208.334H285.677V204.185H289.197ZM289.197 200.037V204.185H285.677V200.037H289.197ZM289.197 195.889V200.037H285.677V195.889H289.197ZM292.717 200.037V204.185H289.197V200.037H292.717ZM292.717 195.889V200.037H289.197V195.889H292.717ZM296.237 195.889V200.037H292.717V195.889H296.237ZM299.757 195.889V200.037H296.237V195.889H299.757ZM299.757 200.037V204.185H296.237V200.037H299.757ZM299.757 204.185V208.334H296.237V204.185H299.757ZM303.277 204.185V208.334H299.757V204.185H303.277ZM303.277 208.334V212.482H299.757V208.334H303.277ZM303.277 212.482V216.63H299.757V212.482H303.277ZM303.277 216.63V220.778H299.757V216.63H303.277ZM303.277 220.778V224.926H299.757V220.778H303.277ZM303.277 224.926V229.075H299.757V224.926H303.277ZM303.277 200.037V204.185H299.757V200.037H303.277ZM303.277 195.889V200.037H299.757V195.889H303.277ZM296.237 200.037V204.185H292.717V200.037H296.237ZM296.237 204.185V208.334H292.717V204.185H296.237ZM296.237 208.334V212.482H292.717V208.334H296.237ZM296.237 212.482V216.63H292.717V212.482H296.237ZM296.237 216.63V220.778H292.717V216.63H296.237ZM296.237 220.778V224.926H292.717V220.778H296.237ZM292.717 220.778V224.926H289.197V220.778H292.717ZM292.717 224.926V229.075H289.197V224.926H292.717ZM292.717 216.63V220.778H289.197V216.63H292.717ZM292.717 212.482V216.63H289.197V212.482H292.717ZM292.717 208.334V212.482H289.197V208.334H292.717ZM292.717 204.185V208.334H289.197V204.185H292.717ZM299.757 208.334V212.482H296.237V208.334H299.757ZM299.757 212.482V216.63H296.237V212.482H299.757ZM299.757 216.63V220.778H296.237V216.63H299.757ZM299.757 220.778V224.926H296.237V220.778H299.757ZM299.757 224.926V229.075H296.237V224.926H299.757ZM296.237 224.926V229.075H292.717V224.926H296.237ZM264.557 195.889V200.037H261.037V195.889H264.557ZM268.077 195.889V200.037H264.557V195.889H268.077ZM268.077 200.037V204.185H264.557V200.037H268.077ZM268.077 204.185V208.334H264.557V204.185H268.077ZM264.557 204.185V208.334H261.037V204.185H264.557ZM253.997 220.778V224.926H250.477V220.778H253.997ZM253.997 233.223V237.371H250.477V233.223H253.997ZM268.077 220.778V224.926H264.557V220.778H268.077ZM261.037 200.037V204.185H257.517V200.037H261.037ZM261.037 253.964V258.112H257.517V253.964H261.037ZM257.517 249.815V253.964H253.997V249.815H257.517Z" fill="#30310F"/>
<path d="M366.597 212.482V216.63H363.076V212.482H366.597ZM363.076 212.482V216.63H359.556V212.482H363.076ZM359.556 212.482V216.63H356.036V212.482H359.556ZM356.036 212.482V216.63H352.516V212.482H356.036ZM352.516 208.334V212.482H348.996V208.334H352.516ZM356.036 208.334V212.482H352.516V208.334H356.036ZM359.556 208.334V212.482H356.036V208.334H359.556ZM363.076 208.334V212.482H359.556V208.334H363.076ZM366.597 208.334V212.482H363.076V208.334H366.597ZM366.597 204.185V208.334H363.076V204.185H366.597ZM363.076 204.185V208.334H359.556V204.185H363.076ZM359.556 204.185V208.334H356.036V204.185H359.556ZM356.036 204.185V208.334H352.516V204.185H356.036ZM352.516 204.185V208.334H348.996V204.185H352.516ZM359.556 200.037V204.185H356.036V200.037H359.556ZM363.076 200.037V204.185H359.556V200.037H363.076ZM356.036 200.037V204.185H352.516V200.037H356.036ZM356.036 195.889V200.037H352.516V195.889H356.036ZM352.516 195.889V200.037H348.996V195.889H352.516ZM352.516 200.037V204.185H348.996V200.037H352.516ZM348.996 200.037V204.185H345.476V200.037H348.996ZM348.996 195.889V200.037H345.476V195.889H348.996ZM348.996 204.185V208.334H345.476V204.185H348.996ZM345.476 204.185V208.334H341.956V204.185H345.476ZM345.476 208.334V212.482H341.956V208.334H345.476ZM348.996 208.334V212.482H345.476V208.334H348.996ZM341.956 208.334V212.482H338.436V208.334H341.956ZM341.956 204.185V208.334H338.436V204.185H341.956ZM341.956 200.037V204.185H338.436V200.037H341.956ZM341.956 195.889V200.037H338.436V195.889H341.956ZM345.476 195.889V200.037H341.956V195.889H345.476ZM345.476 200.037V204.185H341.956V200.037H345.476ZM338.436 195.889V200.037H334.916V195.889H338.436ZM334.916 195.889V200.037H331.396V195.889H334.916ZM331.396 195.889V200.037H327.876V195.889H331.396ZM331.396 200.037V204.185H327.876V200.037H331.396ZM331.396 204.185V208.334H327.876V204.185H331.396ZM331.396 208.334V212.482H327.876V208.334H331.396ZM334.916 208.334V212.482H331.396V208.334H334.916ZM338.436 208.334V212.482H334.916V208.334H338.436ZM338.436 204.185V208.334H334.916V204.185H338.436ZM338.436 200.037V204.185H334.916V200.037H338.436ZM334.916 200.037V204.185H331.396V200.037H334.916ZM334.916 204.185V208.334H331.396V204.185H334.916ZM327.876 204.185V208.334H324.356V204.185H327.876ZM327.876 200.037V204.185H324.356V200.037H327.876ZM324.356 200.037V204.185H320.836V200.037H324.356ZM324.356 204.185V208.334H320.836V204.185H324.356ZM320.836 204.185V208.334H317.316V204.185H320.836ZM320.836 208.334V212.482H317.316V208.334H320.836ZM320.836 212.482V216.63H317.316V212.482H320.836ZM324.356 212.482V216.63H320.836V212.482H324.356ZM324.356 208.334V212.482H320.836V208.334H324.356ZM327.876 208.334V212.482H324.356V208.334H327.876ZM327.876 212.482V216.63H324.356V212.482H327.876ZM331.396 212.482V216.63H327.876V212.482H331.396ZM334.916 212.482V216.63H331.396V212.482H334.916ZM317.316 212.482V216.63H313.796V212.482H317.316ZM317.316 216.63V220.778H313.796V216.63H317.316ZM317.316 220.778V224.926H313.796V220.778H317.316ZM317.316 249.815V253.964H313.796V249.815H317.316ZM320.836 249.815V253.964H317.316V249.815H320.836ZM320.836 253.964V258.112H317.316V253.964H320.836ZM317.316 253.964V258.112H313.796V253.964H317.316ZM324.356 253.964V258.112H320.836V253.964H324.356ZM327.876 253.964V258.112H324.356V253.964H327.876ZM331.396 253.964V258.112H327.876V253.964H331.396ZM334.916 253.964V258.112H331.396V253.964H334.916ZM331.396 249.815V253.964H327.876V249.815H331.396ZM331.396 220.778V224.926H327.876V220.778H331.396ZM331.396 216.63V220.778H327.876V216.63H331.396ZM327.876 216.63V220.778H324.356V216.63H327.876ZM324.356 216.63V220.778H320.836V216.63H324.356ZM320.836 216.63V220.778H317.316V216.63H320.836ZM320.836 220.778V224.926H317.316V220.778H320.836ZM324.356 249.815V253.964H320.836V249.815H324.356ZM327.876 249.815V253.964H324.356V249.815H327.876ZM324.356 220.778V224.926H320.836V220.778H324.356ZM327.876 220.778V224.926H324.356V220.778H327.876ZM356.036 245.667V249.815H352.516V245.667H356.036ZM356.036 249.815V253.964H352.516V249.815H356.036ZM359.556 249.815V253.964H356.036V249.815H359.556ZM363.076 249.815V253.964H359.556V249.815H363.076ZM366.597 249.815V253.964H363.076V249.815H366.597ZM370.117 249.815V253.964H366.597V249.815H370.117ZM370.117 245.667V249.815H366.597V245.667H370.117ZM366.597 245.667V249.815H363.076V245.667H366.597ZM363.076 245.667V249.815H359.556V245.667H363.076ZM359.556 245.667V249.815H356.036V245.667H359.556ZM370.117 253.964V258.112H366.597V253.964H370.117ZM366.597 253.964V258.112H363.076V253.964H366.597ZM363.076 253.964V258.112H359.556V253.964H363.076ZM359.556 253.964V258.112H356.036V253.964H359.556ZM356.036 253.964V258.112H352.516V253.964H356.036ZM352.516 253.964V258.112H348.996V253.964H352.516ZM352.516 258.112V262.26H348.996V258.112H352.516ZM356.036 258.112V262.26H352.516V258.112H356.036ZM359.556 258.112V262.26H356.036V258.112H359.556ZM363.076 258.112V262.26H359.556V258.112H363.076ZM363.076 262.26V266.408H359.556V262.26H363.076ZM366.597 262.26V266.408H363.076V262.26H366.597ZM366.597 258.112V262.26H363.076V258.112H366.597ZM363.076 266.408V270.556H359.556V266.408H363.076ZM359.556 266.408V270.556H356.036V266.408H359.556ZM359.556 262.26V266.408H356.036V262.26H359.556ZM356.036 262.26V266.408H352.516V262.26H356.036ZM356.036 266.408V270.556H352.516V266.408H356.036ZM356.036 270.556V274.705H352.516V270.556H356.036ZM352.516 270.556V274.705H348.996V270.556H352.516ZM348.996 270.556V274.705H345.476V270.556H348.996ZM345.476 270.556V274.705H341.956V270.556H345.476ZM341.956 270.556V274.705H338.436V270.556H341.956ZM338.436 270.556V274.705H334.916V270.556H338.436ZM334.916 270.556V274.705H331.396V270.556H334.916ZM331.396 270.556V274.705H327.876V270.556H331.396ZM334.916 266.408V270.556H331.396V266.408H334.916ZM338.436 266.408V270.556H334.916V266.408H338.436ZM341.956 266.408V270.556H338.436V266.408H341.956ZM345.476 266.408V270.556H341.956V266.408H345.476ZM348.996 266.408V270.556H345.476V266.408H348.996ZM352.516 266.408V270.556H348.996V266.408H352.516ZM352.516 262.26V266.408H348.996V262.26H352.516ZM348.996 262.26V266.408H345.476V262.26H348.996ZM345.476 262.26V266.408H341.956V262.26H345.476ZM341.956 262.26V266.408H338.436V262.26H341.956ZM338.436 262.26V266.408H334.916V262.26H338.436ZM334.916 262.26V266.408H331.396V262.26H334.916ZM331.396 266.408V270.556H327.876V266.408H331.396ZM327.876 266.408V270.556H324.356V266.408H327.876ZM324.356 266.408V270.556H320.836V266.408H324.356ZM324.356 262.26V266.408H320.836V262.26H324.356ZM320.836 262.26V266.408H317.316V262.26H320.836ZM320.836 258.112V262.26H317.316V258.112H320.836ZM324.356 258.112V262.26H320.836V258.112H324.356ZM327.876 258.112V262.26H324.356V258.112H327.876ZM331.396 258.112V262.26H327.876V258.112H331.396ZM334.916 258.112V262.26H331.396V258.112H334.916ZM338.436 258.112V262.26H334.916V258.112H338.436ZM341.956 258.112V262.26H338.436V258.112H341.956ZM345.476 258.112V262.26H341.956V258.112H345.476ZM348.996 258.112V262.26H345.476V258.112H348.996ZM331.396 262.26V266.408H327.876V262.26H331.396ZM327.876 262.26V266.408H324.356V262.26H327.876ZM363.076 237.371V241.519H359.556V237.371H363.076ZM370.117 241.519V245.667H366.597V241.519H370.117ZM366.597 241.519V245.667H363.076V241.519H366.597ZM363.076 241.519V245.667H359.556V241.519H363.076ZM359.556 241.519V245.667H356.036V241.519H359.556ZM359.556 237.371V241.519H356.036V237.371H359.556ZM356.036 237.371V241.519H352.516V237.371H356.036ZM356.036 241.519V245.667H352.516V241.519H356.036ZM334.916 220.778V224.926H331.396V220.778H334.916ZM320.836 224.926V229.075H317.316V224.926H320.836ZM320.836 229.075V233.223H317.316V229.075H320.836ZM324.356 229.075V233.223H320.836V229.075H324.356ZM324.356 233.223V237.371H320.836V233.223H324.356ZM327.876 233.223V237.371H324.356V233.223H327.876ZM331.396 237.371V241.519H327.876V237.371H331.396ZM331.396 233.223V237.371H327.876V233.223H331.396ZM331.396 229.075V233.223H327.876V229.075H331.396ZM331.396 224.926V229.075H327.876V224.926H331.396ZM327.876 224.926V229.075H324.356V224.926H327.876ZM327.876 229.075V233.223H324.356V229.075H327.876ZM324.356 224.926V229.075H320.836V224.926H324.356ZM334.916 237.371V241.519H331.396V237.371H334.916ZM338.436 237.371V241.519H334.916V237.371H338.436ZM341.956 237.371V241.519H338.436V237.371H341.956ZM345.476 237.371V241.519H341.956V237.371H345.476ZM345.476 233.223V237.371H341.956V233.223H345.476ZM341.956 233.223V237.371H338.436V233.223H341.956ZM338.436 233.223V237.371H334.916V233.223H338.436ZM334.916 233.223V237.371H331.396V233.223H334.916ZM334.916 229.075V233.223H331.396V229.075H334.916ZM334.916 224.926V229.075H331.396V224.926H334.916ZM338.436 224.926V229.075H334.916V224.926H338.436ZM341.956 224.926V229.075H338.436V224.926H341.956ZM345.476 224.926V229.075H341.956V224.926H345.476ZM345.476 229.075V233.223H341.956V229.075H345.476ZM341.956 229.075V233.223H338.436V229.075H341.956ZM338.436 229.075V233.223H334.916V229.075H338.436ZM348.996 224.926V229.075H345.476V224.926H348.996ZM352.516 224.926V229.075H348.996V224.926H352.516ZM352.516 229.075V233.223H348.996V229.075H352.516ZM352.516 233.223V237.371H348.996V233.223H352.516ZM352.516 237.371V241.519H348.996V237.371H352.516ZM348.996 237.371V241.519H345.476V237.371H348.996ZM348.996 233.223V237.371H345.476V233.223H348.996ZM348.996 229.075V233.223H345.476V229.075H348.996ZM352.516 241.519V245.667H348.996V241.519H352.516ZM356.036 224.926V229.075H352.516V224.926H356.036ZM366.597 237.371V241.519H363.076V237.371H366.597ZM366.597 233.223V237.371H363.076V233.223H366.597ZM363.076 229.075V233.223H359.556V229.075H363.076ZM359.556 229.075V233.223H356.036V229.075H359.556ZM356.036 229.075V233.223H352.516V229.075H356.036ZM356.036 233.223V237.371H352.516V233.223H356.036ZM359.556 233.223V237.371H356.036V233.223H359.556ZM363.076 233.223V237.371H359.556V233.223H363.076ZM352.516 212.482V216.63H348.996V212.482H352.516Z" fill="#30310F"/>
<path d="M391.298 249.815V245.667H394.819V249.815H391.298ZM387.778 249.815V245.667H391.298V249.815H387.778ZM384.258 249.815V245.667H387.778V249.815H384.258ZM380.738 249.815V245.667H384.258V249.815H380.738ZM377.218 249.815V245.667H380.738V249.815H377.218ZM377.218 253.964V249.815H380.738V253.964H377.218ZM377.218 258.112V253.964H380.738V258.112H377.218ZM380.738 258.112V253.964H384.258V258.112H380.738ZM384.258 258.112V253.964H387.778V258.112H384.258ZM387.778 258.112V253.964H391.298V258.112H387.778ZM387.778 253.964V249.815H391.298V253.964H387.778ZM391.298 253.964V249.815H394.819V253.964H391.298ZM384.258 253.964V249.815H387.778V253.964H384.258ZM380.738 253.964V249.815H384.258V253.964H380.738ZM391.298 258.112V253.964H394.819V258.112H391.298ZM394.819 258.112V253.964H398.339V258.112H394.819ZM394.819 262.26V258.112H398.339V262.26H394.819ZM391.298 262.26V258.112H394.819V262.26H391.298ZM387.778 262.26V258.112H391.298V262.26H387.778ZM384.258 262.26V258.112H387.778V262.26H384.258ZM380.738 262.26V258.112H384.258V262.26H380.738ZM380.738 266.408V262.26H384.258V266.408H380.738ZM384.258 266.408V262.26H387.778V266.408H384.258ZM387.778 266.408V262.26H391.298V266.408H387.778ZM391.298 266.408V262.26H394.819V266.408H391.298ZM394.819 266.408V262.26H398.339V266.408H394.819ZM387.778 270.556V266.408H391.298V270.556H387.778ZM384.258 270.556V266.408H387.778V270.556H384.258ZM391.298 270.556V266.408H394.819V270.556H391.298ZM391.298 274.705V270.556H394.819V274.705H391.298ZM394.819 274.705V270.556H398.339V274.705H394.819ZM394.819 270.556V266.408H398.339V270.556H394.819ZM398.339 270.556V266.408H401.859V270.556H398.339ZM398.339 274.705V270.556H401.859V274.705H398.339ZM398.339 266.408V262.26H401.859V266.408H398.339ZM401.859 266.408V262.26H405.379V266.408H401.859ZM401.859 262.26V258.112H405.379V262.26H401.859ZM398.339 262.26V258.112H401.859V262.26H398.339ZM405.379 262.26V258.112H408.899V262.26H405.379ZM405.379 266.408V262.26H408.899V266.408H405.379ZM405.379 270.556V266.408H408.899V270.556H405.379ZM405.379 274.705V270.556H408.899V274.705H405.379ZM401.859 274.705V270.556H405.379V274.705H401.859ZM401.859 270.556V266.408H405.379V270.556H401.859ZM408.899 274.705V270.556H412.419V274.705H408.899ZM415.939 270.556V266.408H419.459V270.556H415.939ZM415.939 266.408V262.26H419.459V266.408H415.939ZM415.939 262.26V258.112H419.459V262.26H415.939ZM412.419 262.26V258.112H415.939V262.26H412.419ZM408.899 262.26V258.112H412.419V262.26H408.899ZM408.899 266.408V262.26H412.419V266.408H408.899ZM408.899 270.556V266.408H412.419V270.556H408.899ZM412.419 270.556V266.408H415.939V270.556H412.419ZM412.419 266.408V262.26H415.939V266.408H412.419ZM419.459 266.408V262.26H422.979V266.408H419.459ZM419.459 270.556V266.408H422.979V270.556H419.459ZM422.979 270.556V266.408H426.499V270.556H422.979ZM422.979 266.408V262.26H426.499V266.408H422.979ZM426.499 266.408V262.26H430.019V266.408H426.499ZM426.499 262.26V258.112H430.019V262.26H426.499ZM426.499 258.112V253.964H430.019V258.112H426.499ZM422.979 258.112V253.964H426.499V258.112H422.979ZM422.979 262.26V258.112H426.499V262.26H422.979ZM419.459 262.26V258.112H422.979V262.26H419.459ZM419.459 258.112V253.964H422.979V258.112H419.459ZM415.939 258.112V253.964H419.459V258.112H415.939ZM430.019 258.112V253.964H433.539V258.112H430.019ZM430.019 253.964V249.815H433.539V253.964H430.019ZM430.019 249.815V245.667H433.539V249.815H430.019ZM430.019 245.667V241.519H433.539V245.667H430.019ZM430.019 241.519V237.371H433.539V241.519H430.019ZM430.019 237.371V233.223H433.539V237.371H430.019ZM430.019 233.223V229.075H433.539V233.223H430.019ZM430.019 229.075V224.926H433.539V229.075H430.019ZM430.019 224.926V220.778H433.539V224.926H430.019ZM430.019 220.778V216.63H433.539V220.778H430.019ZM426.499 220.778V216.63H430.019V220.778H426.499ZM426.499 216.63V212.482H430.019V216.63H426.499ZM430.019 216.63V212.482H433.539V216.63H430.019ZM422.979 216.63V212.482H426.499V216.63H422.979ZM419.459 216.63V212.482H422.979V216.63H419.459ZM415.939 216.63V212.482H419.459V216.63H415.939ZM412.419 216.63V212.482H415.939V216.63H412.419ZM415.939 220.778V216.63H419.459V220.778H415.939ZM415.939 224.926V220.778H419.459V224.926H415.939ZM415.939 229.075V224.926H419.459V229.075H415.939ZM415.939 233.223V229.075H419.459V233.223H415.939ZM415.939 237.371V233.223H419.459V237.371H415.939ZM415.939 241.519V237.371H419.459V241.519H415.939ZM415.939 245.667V241.519H419.459V245.667H415.939ZM415.939 249.815V245.667H419.459V249.815H415.939ZM415.939 253.964V249.815H419.459V253.964H415.939ZM419.459 253.964V249.815H422.979V253.964H419.459ZM422.979 253.964V249.815H426.499V253.964H422.979ZM426.499 253.964V249.815H430.019V253.964H426.499ZM426.499 249.815V245.667H430.019V249.815H426.499ZM426.499 245.667V241.519H430.019V245.667H426.499ZM426.499 241.519V237.371H430.019V241.519H426.499ZM426.499 237.371V233.223H430.019V237.371H426.499ZM426.499 233.223V229.075H430.019V233.223H426.499ZM426.499 229.075V224.926H430.019V229.075H426.499ZM426.499 224.926V220.778H430.019V224.926H426.499ZM422.979 220.778V216.63H426.499V220.778H422.979ZM419.459 220.778V216.63H422.979V220.778H419.459ZM419.459 224.926V220.778H422.979V224.926H419.459ZM419.459 229.075V224.926H422.979V229.075H419.459ZM419.459 233.223V229.075H422.979V233.223H419.459ZM419.459 237.371V233.223H422.979V237.371H419.459ZM422.979 237.371V233.223H426.499V237.371H422.979ZM422.979 241.519V237.371H426.499V241.519H422.979ZM422.979 245.667V241.519H426.499V245.667H422.979ZM422.979 249.815V245.667H426.499V249.815H422.979ZM419.459 249.815V245.667H422.979V249.815H419.459ZM419.459 245.667V241.519H422.979V245.667H419.459ZM419.459 241.519V237.371H422.979V241.519H419.459ZM422.979 229.075V224.926H426.499V229.075H422.979ZM422.979 224.926V220.778H426.499V224.926H422.979ZM422.979 233.223V229.075H426.499V233.223H422.979ZM391.298 220.778V216.63H394.819V220.778H391.298ZM387.778 220.778V216.63H391.298V220.778H387.778ZM384.258 220.778V216.63H387.778V220.778H384.258ZM380.738 220.778V216.63H384.258V220.778H380.738ZM377.218 220.778V216.63H380.738V220.778H377.218ZM377.218 216.63V212.482H380.738V216.63H377.218ZM380.738 216.63V212.482H384.258V216.63H380.738ZM384.258 216.63V212.482H387.778V216.63H384.258ZM387.778 216.63V212.482H391.298V216.63H387.778ZM391.298 216.63V212.482H394.819V216.63H391.298ZM394.819 216.63V212.482H398.339V216.63H394.819ZM394.819 212.482V208.334H398.339V212.482H394.819ZM391.298 212.482V208.334H394.819V212.482H391.298ZM387.778 212.482V208.334H391.298V212.482H387.778ZM384.258 212.482V208.334H387.778V212.482H384.258ZM384.258 208.334V204.185H387.778V208.334H384.258ZM380.738 208.334V204.185H384.258V208.334H380.738ZM380.738 212.482V208.334H384.258V212.482H380.738ZM384.258 204.185V200.037H387.778V204.185H384.258ZM387.778 204.185V200.037H391.298V204.185H387.778ZM387.778 208.334V204.185H391.298V208.334H387.778ZM391.298 208.334V204.185H394.819V208.334H391.298ZM391.298 204.185V200.037H394.819V204.185H391.298ZM391.298 200.037V195.889H394.819V200.037H391.298ZM394.819 200.037V195.889H398.339V200.037H394.819ZM398.339 200.037V195.889H401.859V200.037H398.339ZM401.859 200.037V195.889H405.379V200.037H401.859ZM405.379 200.037V195.889H408.899V200.037H405.379ZM408.899 200.037V195.889H412.419V200.037H408.899ZM412.419 200.037V195.889H415.939V200.037H412.419ZM415.939 200.037V195.889H419.459V200.037H415.939ZM412.419 204.185V200.037H415.939V204.185H412.419ZM408.899 204.185V200.037H412.419V204.185H408.899ZM405.379 204.185V200.037H408.899V204.185H405.379ZM401.859 204.185V200.037H405.379V204.185H401.859ZM398.339 204.185V200.037H401.859V204.185H398.339ZM394.819 204.185V200.037H398.339V204.185H394.819ZM394.819 208.334V204.185H398.339V208.334H394.819ZM398.339 208.334V204.185H401.859V208.334H398.339ZM401.859 208.334V204.185H405.379V208.334H401.859ZM405.379 208.334V204.185H408.899V208.334H405.379ZM408.899 208.334V204.185H412.419V208.334H408.899ZM412.419 208.334V204.185H415.939V208.334H412.419ZM415.939 204.185V200.037H419.459V204.185H415.939ZM419.459 204.185V200.037H422.979V204.185H419.459ZM422.979 204.185V200.037H426.499V204.185H422.979ZM422.979 208.334V204.185H426.499V208.334H422.979ZM426.499 208.334V204.185H430.019V208.334H426.499ZM426.499 212.482V208.334H430.019V212.482H426.499ZM422.979 212.482V208.334H426.499V212.482H422.979ZM419.459 212.482V208.334H422.979V212.482H419.459ZM415.939 212.482V208.334H419.459V212.482H415.939ZM412.419 212.482V208.334H415.939V212.482H412.419ZM408.899 212.482V208.334H412.419V212.482H408.899ZM405.379 212.482V208.334H408.899V212.482H405.379ZM401.859 212.482V208.334H405.379V212.482H401.859ZM398.339 212.482V208.334H401.859V212.482H398.339ZM415.939 208.334V204.185H419.459V208.334H415.939ZM419.459 208.334V204.185H422.979V208.334H419.459ZM380.738 245.667V241.519H384.258V245.667H380.738ZM384.258 245.667V241.519H387.778V245.667H384.258ZM387.778 245.667V241.519H391.298V245.667H387.778ZM391.298 245.667V241.519H394.819V245.667H391.298ZM384.258 241.519V237.371H387.778V241.519H384.258ZM387.778 241.519V237.371H391.298V241.519H387.778ZM394.819 241.519V237.371H398.339V241.519H394.819ZM398.339 241.519V237.371H401.859V241.519H398.339ZM401.859 241.519V237.371H405.379V241.519H401.859ZM405.379 241.519V237.371H408.899V241.519H405.379ZM408.899 241.519V237.371H412.419V241.519H408.899ZM412.419 241.519V237.371H415.939V241.519H412.419ZM391.298 241.519V237.371H394.819V241.519H391.298ZM380.738 241.519V237.371H384.258V241.519H380.738ZM384.258 237.371V233.223H387.778V237.371H384.258ZM387.778 237.371V233.223H391.298V237.371H387.778ZM391.298 237.371V233.223H394.819V237.371H391.298ZM394.819 237.371V233.223H398.339V237.371H394.819ZM398.339 237.371V233.223H401.859V237.371H398.339ZM401.859 237.371V233.223H405.379V237.371H401.859ZM405.379 237.371V233.223H408.899V237.371H405.379ZM408.899 237.371V233.223H412.419V237.371H408.899ZM412.419 237.371V233.223H415.939V237.371H412.419ZM412.419 233.223V229.075H415.939V233.223H412.419ZM408.899 233.223V229.075H412.419V233.223H408.899ZM405.379 233.223V229.075H408.899V233.223H405.379ZM398.339 233.223V229.075H401.859V233.223H398.339ZM394.819 233.223V229.075H398.339V233.223H394.819ZM391.298 233.223V229.075H394.819V233.223H391.298ZM401.859 233.223V229.075H405.379V233.223H401.859ZM433.539 258.112V262.26H430.019V258.112H433.539ZM433.539 262.26V266.408H430.019V262.26H433.539ZM433.539 266.408V270.556H430.019V266.408H433.539ZM433.539 270.556V274.705H430.019V270.556H433.539ZM430.019 270.556V274.705H426.499V270.556H430.019ZM430.019 266.408V270.556H426.499V266.408H430.019ZM426.499 270.556V274.705H422.979V270.556H426.499ZM422.979 270.556V274.705H419.459V270.556H422.979ZM419.459 270.556V274.705H415.939V270.556H419.459ZM415.939 253.964V258.112H412.419V253.964H415.939ZM391.298 270.556V274.705H387.778V270.556H391.298ZM398.339 241.519V245.667H394.819V241.519H398.339Z" fill="#30310F"/>
<path d="M451.204 270.556V274.705H447.684V270.556H451.204ZM451.204 266.408V270.556H447.684V266.408H451.204ZM451.204 262.26V266.408H447.684V262.26H451.204ZM451.204 258.112V262.26H447.684V258.112H451.204ZM451.204 253.964V258.112H447.684V253.964H451.204ZM451.204 249.815V253.964H447.684V249.815H451.204ZM451.204 245.667V249.815H447.684V245.667H451.204ZM451.204 241.519V245.667H447.684V241.519H451.204ZM451.204 237.371V241.519H447.684V237.371H451.204ZM451.204 233.223V237.371H447.684V233.223H451.204ZM451.204 229.075V233.223H447.684V229.075H451.204ZM451.204 224.926V229.075H447.684V224.926H451.204ZM451.204 220.778V224.926H447.684V220.778H451.204ZM451.204 216.63V220.778H447.684V216.63H451.204ZM451.204 212.482V216.63H447.684V212.482H451.204ZM454.724 212.482V216.63H451.204V212.482H454.724ZM454.724 216.63V220.778H451.204V216.63H454.724ZM454.724 220.778V224.926H451.204V220.778H454.724ZM454.724 224.926V229.075H451.204V224.926H454.724ZM454.724 229.075V233.223H451.204V229.075H454.724ZM454.724 233.223V237.371H451.204V233.223H454.724ZM454.724 237.371V241.519H451.204V237.371H454.724ZM458.244 241.519V245.667H454.724V241.519H458.244ZM458.244 245.667V249.815H454.724V245.667H458.244ZM458.244 249.815V253.964H454.724V249.815H458.244ZM458.244 253.964V258.112H454.724V253.964H458.244ZM458.244 258.112V262.26H454.724V258.112H458.244ZM458.244 262.26V266.408H454.724V262.26H458.244ZM458.244 266.408V270.556H454.724V266.408H458.244ZM458.244 270.556V274.705H454.724V270.556H458.244ZM461.764 270.556V274.705H458.244V270.556H461.764ZM465.284 270.556V274.705H461.764V270.556H465.284ZM465.284 266.408V270.556H461.764V266.408H465.284ZM465.284 262.26V266.408H461.764V262.26H465.284ZM465.284 258.112V262.26H461.764V258.112H465.284ZM465.284 253.964V258.112H461.764V253.964H465.284ZM465.284 249.815V253.964H461.764V249.815H465.284ZM465.284 245.667V249.815H461.764V245.667H465.284ZM465.284 241.519V245.667H461.764V241.519H465.284ZM461.764 241.519V245.667H458.244V241.519H461.764ZM461.764 237.371V241.519H458.244V237.371H461.764ZM461.764 245.667V249.815H458.244V245.667H461.764ZM461.764 249.815V253.964H458.244V249.815H461.764ZM461.764 253.964V258.112H458.244V253.964H461.764ZM461.764 258.112V262.26H458.244V258.112H461.764ZM461.764 262.26V266.408H458.244V262.26H461.764ZM461.764 266.408V270.556H458.244V266.408H461.764ZM454.724 270.556V274.705H451.204V270.556H454.724ZM454.724 266.408V270.556H451.204V266.408H454.724ZM454.724 262.26V266.408H451.204V262.26H454.724ZM454.724 258.112V262.26H451.204V258.112H454.724ZM454.724 253.964V258.112H451.204V253.964H454.724ZM454.724 249.815V253.964H451.204V249.815H454.724ZM454.724 245.667V249.815H451.204V245.667H454.724ZM454.724 241.519V245.667H451.204V241.519H454.724ZM451.204 171V175.148H447.684V171H451.204ZM451.204 175.148V179.296H447.684V175.148H451.204ZM451.204 179.296V183.445H447.684V179.296H451.204ZM451.204 183.445V187.593H447.684V183.445H451.204ZM451.204 187.593V191.741H447.684V187.593H451.204ZM451.204 191.741V195.889H447.684V191.741H451.204ZM451.204 195.889V200.037H447.684V195.889H451.204ZM451.204 200.037V204.185H447.684V200.037H451.204ZM451.204 204.185V208.334H447.684V204.185H451.204ZM451.204 208.334V212.482H447.684V208.334H451.204ZM461.764 171V175.148H458.244V171H461.764ZM461.764 175.148V179.296H458.244V175.148H461.764ZM461.764 179.296V183.445H458.244V179.296H461.764ZM461.764 183.445V187.593H458.244V183.445H461.764ZM461.764 187.593V191.741H458.244V187.593H461.764ZM461.764 191.741V195.889H458.244V191.741H461.764ZM461.764 200.037V204.185H458.244V200.037H461.764ZM461.764 204.185V208.334H458.244V204.185H461.764ZM461.764 208.334V212.482H458.244V208.334H461.764ZM461.764 212.482V216.63H458.244V212.482H461.764ZM461.764 216.63V220.778H458.244V216.63H461.764ZM461.764 220.778V224.926H458.244V220.778H461.764ZM461.764 224.926V229.075H458.244V224.926H461.764ZM465.284 229.075V233.223H461.764V229.075H465.284ZM465.284 233.223V237.371H461.764V233.223H465.284ZM465.284 237.371V241.519H461.764V237.371H465.284ZM465.284 224.926V229.075H461.764V224.926H465.284ZM465.284 220.778V224.926H461.764V220.778H465.284ZM465.284 216.63V220.778H461.764V216.63H465.284ZM465.284 212.482V216.63H461.764V212.482H465.284ZM465.284 208.334V212.482H461.764V208.334H465.284ZM465.284 204.185V208.334H461.764V204.185H465.284ZM465.284 200.037V204.185H461.764V200.037H465.284ZM465.284 195.889V200.037H461.764V195.889H465.284ZM465.284 191.741V195.889H461.764V191.741H465.284ZM465.284 187.593V191.741H461.764V187.593H465.284ZM461.764 195.889V200.037H458.244V195.889H461.764ZM465.284 183.445V187.593H461.764V183.445H465.284ZM465.284 179.296V183.445H461.764V179.296H465.284ZM465.284 175.148V179.296H461.764V175.148H465.284ZM465.284 171V175.148H461.764V171H465.284ZM458.244 171V175.148H454.724V171H458.244ZM454.724 171V175.148H451.204V171H454.724ZM454.724 175.148V179.296H451.204V175.148H454.724ZM458.244 175.148V179.296H454.724V175.148H458.244ZM458.244 179.296V183.445H454.724V179.296H458.244ZM458.244 183.445V187.593H454.724V183.445H458.244ZM458.244 187.593V191.741H454.724V187.593H458.244ZM458.244 191.741V195.889H454.724V191.741H458.244ZM458.244 195.889V200.037H454.724V195.889H458.244ZM458.244 200.037V204.185H454.724V200.037H458.244ZM454.724 204.185V208.334H451.204V204.185H454.724ZM454.724 208.334V212.482H451.204V208.334H454.724ZM454.724 200.037V204.185H451.204V200.037H454.724ZM454.724 195.889V200.037H451.204V195.889H454.724ZM454.724 191.741V195.889H451.204V191.741H454.724ZM454.724 187.593V191.741H451.204V187.593H454.724ZM454.724 183.445V187.593H451.204V183.445H454.724ZM454.724 179.296V183.445H451.204V179.296H454.724ZM458.244 204.185V208.334H454.724V204.185H458.244ZM458.244 208.334V212.482H454.724V208.334H458.244ZM458.244 212.482V216.63H454.724V212.482H458.244ZM458.244 216.63V220.778H454.724V216.63H458.244ZM458.244 220.778V224.926H454.724V220.778H458.244ZM458.244 224.926V229.075H454.724V224.926H458.244ZM458.244 229.075V233.223H454.724V229.075H458.244ZM458.244 233.223V237.371H454.724V233.223H458.244ZM458.244 237.371V241.519H454.724V237.371H458.244ZM461.764 233.223V237.371H458.244V233.223H461.764ZM461.764 229.075V233.223H458.244V229.075H461.764Z" fill="#30310F"/>
<path d="M39.5047 331.609C38.0855 331.609 36.8107 331.354 35.6802 330.844C34.5497 330.333 33.6477 329.611 32.9742 328.675C32.3247 327.74 32 326.634 32 325.359C32 324.282 32.2405 323.304 32.7216 322.425C33.2267 321.546 34.0205 320.781 35.1029 320.129C36.2094 319.449 37.6526 318.882 39.4325 318.428C41.0441 318.003 42.1506 317.464 42.7519 316.812C43.3773 316.132 43.69 315.282 43.69 314.261C43.69 313.269 43.3292 312.461 42.6076 311.838C41.886 311.186 40.8878 310.86 39.6129 310.86C38.6027 310.86 37.6646 311.072 36.7987 311.498C35.9568 311.894 35.2592 312.476 34.706 313.241C34.4414 313.581 34.1408 313.794 33.804 313.879C33.4673 313.964 33.1786 313.921 32.9381 313.751C32.5532 313.496 32.3247 313.17 32.2526 312.773C32.1804 312.348 32.2646 311.965 32.5051 311.625C33.2027 310.52 34.1528 309.627 35.3555 308.946C36.5581 308.266 37.9653 307.926 39.5768 307.926C40.8998 307.926 42.0784 308.181 43.1127 308.691C44.147 309.173 44.9528 309.896 45.5301 310.86C46.1073 311.824 46.396 313 46.396 314.389C46.396 315.863 45.9149 317.181 44.9528 318.343C43.9906 319.477 42.3911 320.341 40.1541 320.937C38.1096 321.475 36.7024 322.085 35.9327 322.765C35.163 323.445 34.7782 324.296 34.7782 325.316C34.7782 326.422 35.151 327.258 35.8967 327.825C36.6664 328.363 37.845 328.633 39.4325 328.633C40.6352 328.633 41.7056 328.463 42.6437 328.122C43.6058 327.782 44.3996 327.187 45.0249 326.337C45.2655 326.025 45.5541 325.826 45.8909 325.741C46.2276 325.628 46.5644 325.727 46.9011 326.039C47.2138 326.351 47.3822 326.705 47.4062 327.102C47.4303 327.499 47.31 327.867 47.0454 328.207C46.2276 329.256 45.1212 330.092 43.7261 330.716C42.331 331.311 40.9238 331.609 39.5047 331.609Z" fill="#30310F"/>
<path d="M53.5255 341.346C53.0925 341.346 52.7438 341.19 52.4792 340.878C52.2386 340.595 52.1184 340.198 52.1184 339.688V319.619C52.1424 317.408 52.5874 315.423 53.4533 313.666C54.3433 311.88 55.534 310.477 57.0253 309.457C58.5406 308.436 60.2364 307.926 62.1126 307.926C64.0368 307.926 65.7567 308.45 67.272 309.499C68.7874 310.52 69.978 311.923 70.844 313.709C71.734 315.494 72.1789 317.521 72.1789 319.789C72.1789 322.028 71.746 324.041 70.8801 325.826C70.0382 327.612 68.8836 329.03 67.4164 330.078C65.9491 331.099 64.2894 331.609 62.4373 331.609C60.8257 331.609 59.3585 331.212 58.0355 330.418C56.7366 329.596 55.6903 328.519 54.8965 327.187V339.688C54.8965 340.198 54.7642 340.595 54.4997 340.878C54.2591 341.19 53.9344 341.346 53.5255 341.346ZM62.1126 328.633C63.5077 328.633 64.7584 328.25 65.8649 327.485C66.9714 326.719 67.8373 325.671 68.4627 324.338C69.1121 322.978 69.4368 321.461 69.4368 319.789C69.4368 318.088 69.1121 316.571 68.4627 315.239C67.8373 313.907 66.9714 312.858 65.8649 312.093C64.7584 311.299 63.5077 310.902 62.1126 310.902C60.7415 310.902 59.5028 311.299 58.3963 312.093C57.2899 312.858 56.4239 313.907 55.7985 315.239C55.1732 316.571 54.8605 318.088 54.8605 319.789C54.8605 321.461 55.1732 322.978 55.7985 324.338C56.4239 325.671 57.2899 326.719 58.3963 327.485C59.5028 328.25 60.7415 328.633 62.1126 328.633Z" fill="#30310F"/>
<path d="M86.3235 331.609C84.4714 331.609 82.8117 331.099 81.3444 330.078C79.8772 329.03 78.7106 327.612 77.8447 325.826C77.0028 324.041 76.5818 322.028 76.5818 319.789C76.5818 317.521 77.0148 315.494 77.8807 313.709C78.7707 311.923 79.9734 310.52 81.4888 309.499C83.0041 308.45 84.7119 307.926 86.6121 307.926C88.5124 307.926 90.2081 308.45 91.6994 309.499C93.2148 310.52 94.4055 311.923 95.2714 313.709C96.1614 315.494 96.6184 317.521 96.6424 319.789L95.5239 320.809C95.5239 322.85 95.115 324.693 94.2972 326.337C93.5035 327.952 92.409 329.242 91.0139 330.206C89.6429 331.141 88.0794 331.609 86.3235 331.609ZM86.6121 328.633C88.0072 328.633 89.246 328.25 90.3284 327.485C91.4349 326.719 92.3008 325.671 92.9262 324.338C93.5756 322.978 93.9003 321.461 93.9003 319.789C93.9003 318.088 93.5756 316.571 92.9262 315.239C92.3008 313.907 91.4349 312.858 90.3284 312.093C89.246 311.299 88.0072 310.902 86.6121 310.902C85.2411 310.902 84.0023 311.299 82.8959 312.093C81.7894 312.858 80.9115 313.907 80.262 315.239C79.6126 316.571 79.2879 318.088 79.2879 319.789C79.2879 321.461 79.6126 322.978 80.262 324.338C80.9115 325.671 81.7894 326.719 82.8959 327.485C84.0023 328.25 85.2411 328.633 86.6121 328.633ZM95.2353 331.396C94.8264 331.396 94.4896 331.255 94.2251 330.971C93.9605 330.659 93.8282 330.263 93.8282 329.781V322.51L94.5137 319.151L96.6424 319.789V329.781C96.6424 330.263 96.5101 330.659 96.2455 330.971C95.981 331.255 95.6442 331.396 95.2353 331.396Z" fill="#30310F"/>
<path d="M113.772 331.609V328.633C115.191 328.633 116.442 328.264 117.524 327.527C118.631 326.762 119.496 325.713 120.122 324.381C120.747 323.049 121.06 321.518 121.06 319.789C121.06 318.06 120.747 316.529 120.122 315.197C119.496 313.864 118.631 312.816 117.524 312.05C116.442 311.285 115.191 310.902 113.772 310.902V307.926C115.72 307.926 117.44 308.436 118.931 309.457C120.447 310.477 121.637 311.88 122.503 313.666C123.369 315.423 123.802 317.464 123.802 319.789C123.802 322.085 123.369 324.126 122.503 325.911C121.661 327.669 120.483 329.058 118.967 330.078C117.452 331.099 115.72 331.609 113.772 331.609ZM110.994 331.609C109.021 331.609 107.277 331.099 105.762 330.078C104.271 329.058 103.104 327.669 102.262 325.911C101.42 324.126 100.999 322.085 100.999 319.789C100.999 317.464 101.42 315.423 102.262 313.666C103.104 311.88 104.271 310.477 105.762 309.457C107.277 308.436 109.021 307.926 110.994 307.926V310.902C109.574 310.902 108.312 311.285 107.205 312.05C106.123 312.816 105.269 313.864 104.643 315.197C104.018 316.529 103.705 318.06 103.705 319.789C103.705 321.518 104.018 323.049 104.643 324.381C105.269 325.713 106.123 326.762 107.205 327.527C108.312 328.264 109.574 328.633 110.994 328.633V331.609ZM112.365 341.346C111.956 341.346 111.619 341.19 111.354 340.878C111.114 340.595 110.994 340.198 110.994 339.688V299.847C110.994 299.337 111.114 298.94 111.354 298.657C111.619 298.345 111.956 298.189 112.365 298.189C112.798 298.189 113.134 298.345 113.375 298.657C113.639 298.94 113.772 299.337 113.772 299.847V339.688C113.772 340.198 113.639 340.595 113.375 340.878C113.134 341.19 112.798 341.346 112.365 341.346Z" fill="#30310F"/>
<path d="M137.799 331.652C136.091 331.652 134.563 331.241 133.216 330.418C131.869 329.568 130.799 328.335 130.005 326.719C129.236 325.104 128.851 323.134 128.851 320.809V309.754C128.851 309.301 128.983 308.918 129.248 308.606C129.512 308.294 129.837 308.139 130.222 308.139C130.631 308.139 130.967 308.294 131.232 308.606C131.497 308.918 131.629 309.301 131.629 309.754V320.809C131.629 322.567 131.906 324.012 132.459 325.146C133.036 326.28 133.806 327.13 134.768 327.697C135.754 328.264 136.861 328.548 138.087 328.548C139.266 328.548 140.324 328.278 141.262 327.74C142.224 327.201 142.982 326.464 143.535 325.529C144.089 324.593 144.365 323.53 144.365 322.34H146.35C146.277 324.126 145.857 325.727 145.087 327.145C144.341 328.533 143.331 329.639 142.056 330.461C140.781 331.255 139.362 331.652 137.799 331.652ZM145.736 331.396C145.327 331.396 144.991 331.255 144.726 330.971C144.485 330.659 144.365 330.248 144.365 329.738V309.754C144.365 309.272 144.485 308.89 144.726 308.606C144.991 308.294 145.327 308.139 145.736 308.139C146.145 308.139 146.482 308.294 146.747 308.606C147.011 308.89 147.143 309.272 147.143 309.754V329.738C147.143 330.248 147.011 330.659 146.747 330.971C146.482 331.255 146.145 331.396 145.736 331.396Z" fill="#30310F"/>
<path d="M160.087 324.211C158.332 324.211 156.852 323.786 155.65 322.935C154.471 322.085 153.569 320.88 152.944 319.321C152.318 317.762 152.005 315.934 152.005 313.836V309.797C152.005 309.287 152.126 308.89 152.366 308.606C152.631 308.294 152.98 308.139 153.413 308.139C153.822 308.139 154.146 308.294 154.387 308.606C154.651 308.89 154.784 309.287 154.784 309.797V313.836C154.784 316.075 155.241 317.847 156.155 319.151C157.093 320.455 158.5 321.107 160.376 321.107C161.891 321.107 163.118 320.795 164.056 320.171C165.018 319.519 165.499 318.697 165.499 317.705H166.907C166.883 318.953 166.57 320.072 165.969 321.064C165.367 322.028 164.561 322.793 163.551 323.36C162.541 323.927 161.386 324.211 160.087 324.211ZM166.907 331.396C166.474 331.396 166.125 331.255 165.86 330.971C165.62 330.659 165.499 330.248 165.499 329.738V309.797C165.499 309.287 165.62 308.89 165.86 308.606C166.125 308.294 166.474 308.139 166.907 308.139C167.316 308.139 167.64 308.294 167.881 308.606C168.145 308.89 168.278 309.287 168.278 309.797V329.738C168.278 330.248 168.145 330.659 167.881 330.971C167.64 331.255 167.316 331.396 166.907 331.396Z" fill="#30310F"/>
<path d="M183.718 331.609C181.769 331.609 180.038 331.113 178.522 330.121C177.031 329.1 175.852 327.697 174.986 325.911C174.144 324.126 173.723 322.085 173.723 319.789C173.723 317.464 174.12 315.423 174.914 313.666C175.732 311.88 176.85 310.477 178.27 309.457C179.689 308.436 181.324 307.926 183.177 307.926C185.005 307.926 186.592 308.422 187.939 309.414C189.31 310.378 190.368 311.724 191.114 313.453C191.86 315.183 192.233 317.153 192.233 319.364C192.233 319.817 192.112 320.186 191.872 320.469C191.631 320.724 191.319 320.852 190.934 320.852H175.6V318.131H191.222L189.671 319.449C189.695 317.805 189.442 316.331 188.913 315.027C188.384 313.723 187.626 312.702 186.64 311.965C185.678 311.228 184.523 310.86 183.177 310.86C181.805 310.86 180.603 311.242 179.568 312.008C178.534 312.773 177.728 313.836 177.151 315.197C176.598 316.529 176.321 318.06 176.321 319.789C176.321 321.518 176.634 323.049 177.259 324.381C177.909 325.713 178.787 326.762 179.893 327.527C181 328.293 182.274 328.675 183.718 328.675C184.584 328.675 185.45 328.505 186.315 328.165C187.205 327.796 187.915 327.343 188.444 326.804C188.709 326.549 189.009 326.422 189.346 326.422C189.683 326.393 189.972 326.493 190.212 326.719C190.525 327.059 190.681 327.428 190.681 327.825C190.705 328.222 190.573 328.562 190.284 328.845C189.491 329.639 188.48 330.305 187.254 330.844C186.027 331.354 184.848 331.609 183.718 331.609Z" fill="#30310F"/>
<path d="M205.031 331.609C203.131 331.609 201.435 331.099 199.944 330.078C198.477 329.03 197.31 327.612 196.444 325.826C195.602 324.041 195.181 322.028 195.181 319.789C195.181 317.521 195.59 315.494 196.408 313.709C197.226 311.923 198.344 310.52 199.764 309.499C201.183 308.45 202.818 307.926 204.67 307.926C206.138 307.926 207.485 308.266 208.711 308.946C209.962 309.627 211.057 310.647 211.995 312.008C212.259 312.348 212.355 312.716 212.283 313.113C212.211 313.482 212.007 313.808 211.67 314.091C211.405 314.318 211.105 314.403 210.768 314.346C210.455 314.261 210.179 314.049 209.938 313.709C208.543 311.838 206.787 310.902 204.67 310.902C203.323 310.902 202.133 311.285 201.098 312.05C200.088 312.816 199.294 313.864 198.717 315.197C198.164 316.529 197.887 318.06 197.887 319.789C197.887 321.49 198.188 323.006 198.789 324.338C199.391 325.671 200.233 326.719 201.315 327.485C202.397 328.25 203.636 328.633 205.031 328.633C205.969 328.633 206.823 328.491 207.593 328.207C208.387 327.896 209.084 327.428 209.686 326.804C209.974 326.521 210.275 326.365 210.588 326.337C210.9 326.308 211.189 326.422 211.453 326.677C211.742 326.989 211.898 327.343 211.923 327.74C211.971 328.137 211.862 328.477 211.598 328.76C209.842 330.659 207.653 331.609 205.031 331.609Z" fill="#30310F"/>
<path d="M233.02 330.971C232.779 331.255 232.454 331.396 232.045 331.396C231.661 331.396 231.348 331.241 231.107 330.929L222.484 319.789L230.747 308.649C230.987 308.337 231.288 308.167 231.649 308.139C232.009 308.11 232.322 308.224 232.587 308.479C232.875 308.791 233.032 309.145 233.056 309.542C233.08 309.91 232.971 310.265 232.731 310.605L225.948 319.619L233.092 328.888C233.332 329.2 233.453 329.554 233.453 329.951C233.453 330.319 233.308 330.659 233.02 330.971ZM219.02 331.396C218.612 331.396 218.287 331.255 218.046 330.971C217.806 330.659 217.685 330.263 217.685 329.781V309.797C217.685 309.287 217.806 308.89 218.046 308.606C218.287 308.294 218.612 308.139 219.02 308.139C219.453 308.139 219.79 308.294 220.031 308.606C220.295 308.89 220.428 309.287 220.428 309.797V318.216H224.829V321.192H220.428V329.781C220.428 330.263 220.295 330.659 220.031 330.971C219.79 331.255 219.453 331.396 219.02 331.396Z" fill="#30310F"/>
<path d="M246.532 331.652C244.825 331.652 243.297 331.241 241.95 330.418C240.603 329.568 239.533 328.335 238.739 326.719C237.969 325.104 237.585 323.134 237.585 320.809V309.754C237.585 309.301 237.717 308.918 237.981 308.606C238.246 308.294 238.571 308.139 238.956 308.139C239.365 308.139 239.701 308.294 239.966 308.606C240.23 308.918 240.363 309.301 240.363 309.754V320.809C240.363 322.567 240.639 324.012 241.193 325.146C241.77 326.28 242.54 327.13 243.502 327.697C244.488 328.264 245.594 328.548 246.821 328.548C248 328.548 249.058 328.278 249.996 327.74C250.958 327.201 251.716 326.464 252.269 325.529C252.822 324.593 253.099 323.53 253.099 322.34H255.083C255.011 324.126 254.59 325.727 253.821 327.145C253.075 328.533 252.065 329.639 250.79 330.461C249.515 331.255 248.096 331.652 246.532 331.652ZM254.47 331.396C254.061 331.396 253.724 331.255 253.46 330.971C253.219 330.659 253.099 330.248 253.099 329.738V309.754C253.099 309.272 253.219 308.89 253.46 308.606C253.724 308.294 254.061 308.139 254.47 308.139C254.879 308.139 255.216 308.294 255.48 308.606C255.745 308.89 255.877 309.272 255.877 309.754V329.738C255.877 330.248 255.745 330.659 255.48 330.971C255.216 331.255 254.879 331.396 254.47 331.396Z" fill="#30310F"/>
<path d="M270.95 331.652C269.242 331.652 267.715 331.241 266.368 330.418C265.021 329.568 263.95 328.335 263.157 326.719C262.387 325.104 262.002 323.134 262.002 320.809V309.754C262.002 309.301 262.134 308.918 262.399 308.606C262.664 308.294 262.988 308.139 263.373 308.139C263.782 308.139 264.119 308.294 264.383 308.606C264.648 308.918 264.78 309.301 264.78 309.754V320.809C264.78 322.567 265.057 324.012 265.61 325.146C266.187 326.28 266.957 327.13 267.919 327.697C268.905 328.264 270.012 328.548 271.239 328.548C272.417 328.548 273.476 328.278 274.414 327.74C275.376 327.201 276.133 326.464 276.687 325.529C277.24 324.593 277.517 323.53 277.517 322.34H279.501C279.429 324.126 279.008 325.727 278.238 327.145C277.493 328.533 276.482 329.639 275.207 330.461C273.933 331.255 272.513 331.652 270.95 331.652ZM278.888 331.396C278.479 331.396 278.142 331.255 277.877 330.971C277.637 330.659 277.517 330.248 277.517 329.738V309.754C277.517 309.272 277.637 308.89 277.877 308.606C278.142 308.294 278.479 308.139 278.888 308.139C279.297 308.139 279.633 308.294 279.898 308.606C280.162 308.89 280.295 309.272 280.295 309.754V329.738C280.295 330.248 280.162 330.659 279.898 330.971C279.633 331.255 279.297 331.396 278.888 331.396ZM271.347 305.12C270.168 305.12 269.11 304.893 268.172 304.439C267.234 303.958 266.488 303.306 265.935 302.484C265.406 301.662 265.141 300.74 265.141 299.72C265.141 299.266 265.261 298.884 265.502 298.572C265.766 298.26 266.079 298.104 266.44 298.104C266.825 298.104 267.138 298.26 267.378 298.572C267.619 298.884 267.739 299.309 267.739 299.847C267.739 300.641 268.088 301.279 268.785 301.761C269.483 302.243 270.337 302.484 271.347 302.484C272.381 302.484 273.235 302.243 273.909 301.761C274.606 301.279 274.955 300.641 274.955 299.847C274.955 299.309 275.075 298.884 275.316 298.572C275.58 298.26 275.893 298.104 276.254 298.104C276.639 298.104 276.951 298.26 277.192 298.572C277.432 298.884 277.553 299.266 277.553 299.72C277.553 300.74 277.276 301.662 276.723 302.484C276.194 303.306 275.46 303.958 274.522 304.439C273.584 304.893 272.525 305.12 271.347 305.12Z" fill="#30310F"/>
<path d="M306.046 331.609C304.146 331.609 302.462 331.113 300.995 330.121C299.528 329.1 298.373 327.697 297.531 325.911C296.713 324.126 296.304 322.085 296.304 319.789C296.304 317.464 296.737 315.409 297.603 313.624C298.469 311.838 299.66 310.449 301.175 309.457C302.691 308.436 304.41 307.926 306.335 307.926C308.283 307.926 310.003 308.436 311.494 309.457C313.01 310.449 314.188 311.838 315.03 313.624C315.896 315.409 316.341 317.464 316.365 319.789L314.741 320.809C314.741 322.907 314.369 324.778 313.623 326.422C312.877 328.037 311.843 329.313 310.52 330.248C309.221 331.155 307.73 331.609 306.046 331.609ZM306.407 340.58C304.507 340.58 302.835 340.155 301.392 339.305C299.949 338.483 298.758 337.349 297.82 335.903C297.555 335.563 297.435 335.195 297.459 334.798C297.507 334.401 297.688 334.075 298 333.82C298.313 333.565 298.662 333.48 299.047 333.565C299.431 333.65 299.732 333.863 299.949 334.203C300.646 335.223 301.536 336.045 302.619 336.669C303.725 337.292 305 337.604 306.443 337.604C307.79 337.604 309.005 337.221 310.087 336.456C311.169 335.691 312.023 334.614 312.649 333.225C313.298 331.836 313.623 330.206 313.623 328.335V321.872L314.669 319.406L316.365 319.789V328.463C316.365 330.759 315.932 332.814 315.066 334.628C314.2 336.47 313.022 337.916 311.53 338.965C310.039 340.042 308.331 340.58 306.407 340.58ZM306.335 328.633C307.754 328.633 309.005 328.264 310.087 327.527C311.194 326.762 312.059 325.713 312.685 324.381C313.31 323.049 313.623 321.518 313.623 319.789C313.623 318.06 313.31 316.529 312.685 315.197C312.059 313.836 311.194 312.787 310.087 312.05C309.005 311.285 307.754 310.902 306.335 310.902C304.916 310.902 303.653 311.285 302.546 312.05C301.44 312.787 300.574 313.836 299.949 315.197C299.323 316.529 299.01 318.06 299.01 319.789C299.01 321.518 299.323 323.049 299.949 324.381C300.574 325.713 301.44 326.762 302.546 327.527C303.653 328.264 304.916 328.633 306.335 328.633Z" fill="#30310F"/>
<path d="M330.355 331.652C328.648 331.652 327.12 331.241 325.773 330.418C324.426 329.568 323.356 328.335 322.562 326.719C321.792 325.104 321.408 323.134 321.408 320.809V309.754C321.408 309.301 321.54 308.918 321.804 308.606C322.069 308.294 322.394 308.139 322.779 308.139C323.187 308.139 323.524 308.294 323.789 308.606C324.053 308.918 324.186 309.301 324.186 309.754V320.809C324.186 322.567 324.462 324.012 325.016 325.146C325.593 326.28 326.363 327.13 327.325 327.697C328.311 328.264 329.417 328.548 330.644 328.548C331.823 328.548 332.881 328.278 333.819 327.74C334.781 327.201 335.539 326.464 336.092 325.529C336.645 324.593 336.922 323.53 336.922 322.34H338.906C338.834 324.126 338.413 325.727 337.644 327.145C336.898 328.533 335.888 329.639 334.613 330.461C333.338 331.255 331.919 331.652 330.355 331.652ZM338.293 331.396C337.884 331.396 337.547 331.255 337.283 330.971C337.042 330.659 336.922 330.248 336.922 329.738V309.754C336.922 309.272 337.042 308.89 337.283 308.606C337.547 308.294 337.884 308.139 338.293 308.139C338.702 308.139 339.039 308.294 339.303 308.606C339.568 308.89 339.7 309.272 339.7 309.754V329.738C339.7 330.248 339.568 330.659 339.303 330.971C339.039 331.255 338.702 331.396 338.293 331.396Z" fill="#30310F"/>
<path d="M352.428 331.779C351.393 331.779 350.383 331.623 349.397 331.311C348.411 330.971 347.521 330.518 346.727 329.951C345.933 329.356 345.308 328.704 344.851 327.995C344.61 327.626 344.514 327.23 344.562 326.804C344.634 326.379 344.851 326.039 345.212 325.784C345.476 325.585 345.789 325.543 346.15 325.656C346.535 325.741 346.847 325.94 347.088 326.252C347.689 326.989 348.447 327.598 349.361 328.08C350.275 328.562 351.285 328.803 352.392 328.803C353.835 328.803 355.001 328.448 355.891 327.74C356.805 327.031 357.262 326.025 357.262 324.721C357.262 323.587 356.902 322.638 356.18 321.872C355.483 321.107 354.605 320.696 353.546 320.639H351.706C351.249 320.639 350.876 320.512 350.588 320.256C350.299 319.973 350.155 319.633 350.155 319.236C350.155 318.839 350.299 318.513 350.588 318.258C350.876 318.003 351.249 317.875 351.706 317.875H353.546C354.436 317.847 355.158 317.493 355.711 316.812C356.264 316.132 356.541 315.296 356.541 314.304C356.541 313.283 356.156 312.447 355.386 311.795C354.641 311.143 353.63 310.817 352.356 310.817C351.177 310.817 350.191 311.044 349.397 311.498C348.603 311.951 347.966 312.532 347.485 313.241C347.22 313.581 346.907 313.794 346.547 313.879C346.21 313.935 345.885 313.85 345.573 313.624C345.26 313.425 345.079 313.113 345.031 312.688C345.007 312.263 345.116 311.866 345.356 311.498C346.126 310.449 347.1 309.57 348.279 308.861C349.481 308.153 350.828 307.798 352.319 307.798C353.666 307.798 354.857 308.082 355.891 308.649C356.95 309.187 357.78 309.939 358.381 310.902C358.982 311.838 359.283 312.887 359.283 314.049C359.283 314.984 359.067 315.849 358.634 316.642C358.225 317.408 357.659 318.045 356.938 318.556C356.24 319.038 355.458 319.321 354.593 319.406V318.938C355.603 318.938 356.517 319.193 357.335 319.704C358.152 320.214 358.802 320.923 359.283 321.83C359.764 322.708 360.005 323.7 360.005 324.806C360.005 326.138 359.668 327.329 358.994 328.378C358.345 329.426 357.443 330.263 356.288 330.886C355.158 331.481 353.871 331.779 352.428 331.779Z" fill="#30310F"/>
<path d="M373.415 331.609C371.562 331.609 369.903 331.099 368.435 330.078C366.968 329.03 365.802 327.612 364.936 325.826C364.094 324.041 363.673 322.028 363.673 319.789C363.673 317.521 364.106 315.494 364.972 313.709C365.862 311.923 367.064 310.52 368.58 309.499C370.095 308.45 371.803 307.926 373.703 307.926C375.603 307.926 377.299 308.45 378.791 309.499C380.306 310.52 381.497 311.923 382.362 313.709C383.252 315.494 383.709 317.521 383.734 319.789L382.615 320.809C382.615 322.85 382.206 324.693 381.388 326.337C380.595 327.952 379.5 329.242 378.105 330.206C376.734 331.141 375.17 331.609 373.415 331.609ZM373.703 328.633C375.098 328.633 376.337 328.25 377.419 327.485C378.526 326.719 379.392 325.671 380.017 324.338C380.667 322.978 380.991 321.461 380.991 319.789C380.991 318.088 380.667 316.571 380.017 315.239C379.392 313.907 378.526 312.858 377.419 312.093C376.337 311.299 375.098 310.902 373.703 310.902C372.332 310.902 371.093 311.299 369.987 312.093C368.881 312.858 368.003 313.907 367.353 315.239C366.704 316.571 366.379 318.088 366.379 319.789C366.379 321.461 366.704 322.978 367.353 324.338C368.003 325.671 368.881 326.719 369.987 327.485C371.093 328.25 372.332 328.633 373.703 328.633ZM382.326 331.396C381.917 331.396 381.581 331.255 381.316 330.971C381.052 330.659 380.919 330.263 380.919 329.781V322.51L381.605 319.151L383.734 319.789V329.781C383.734 330.263 383.601 330.659 383.337 330.971C383.072 331.255 382.735 331.396 382.326 331.396Z" fill="#30310F"/>
<path d="M397.724 331.652C396.016 331.652 394.489 331.241 393.142 330.418C391.795 329.568 390.724 328.335 389.931 326.719C389.161 325.104 388.776 323.134 388.776 320.809V309.754C388.776 309.301 388.908 308.918 389.173 308.606C389.437 308.294 389.762 308.139 390.147 308.139C390.556 308.139 390.893 308.294 391.157 308.606C391.422 308.918 391.554 309.301 391.554 309.754V320.809C391.554 322.567 391.831 324.012 392.384 325.146C392.961 326.28 393.731 327.13 394.693 327.697C395.679 328.264 396.786 328.548 398.013 328.548C399.191 328.548 400.249 328.278 401.188 327.74C402.15 327.201 402.907 326.464 403.461 325.529C404.014 324.593 404.29 323.53 404.29 322.34H406.275C406.203 324.126 405.782 325.727 405.012 327.145C404.266 328.533 403.256 329.639 401.981 330.461C400.706 331.255 399.287 331.652 397.724 331.652ZM405.662 331.396C405.253 331.396 404.916 331.255 404.651 330.971C404.411 330.659 404.29 330.248 404.29 329.738V309.754C404.29 309.272 404.411 308.89 404.651 308.606C404.916 308.294 405.253 308.139 405.662 308.139C406.07 308.139 406.407 308.294 406.672 308.606C406.936 308.89 407.069 309.272 407.069 309.754V329.738C407.069 330.248 406.936 330.659 406.672 330.971C406.407 331.255 406.07 331.396 405.662 331.396ZM398.121 305.12C396.942 305.12 395.884 304.893 394.946 304.439C394.008 303.958 393.262 303.306 392.709 302.484C392.18 301.662 391.915 300.74 391.915 299.72C391.915 299.266 392.035 298.884 392.276 298.572C392.54 298.26 392.853 298.104 393.214 298.104C393.599 298.104 393.911 298.26 394.152 298.572C394.392 298.884 394.513 299.309 394.513 299.847C394.513 300.641 394.862 301.279 395.559 301.761C396.257 302.243 397.111 302.484 398.121 302.484C399.155 302.484 400.009 302.243 400.682 301.761C401.38 301.279 401.729 300.641 401.729 299.847C401.729 299.309 401.849 298.884 402.09 298.572C402.354 298.26 402.667 298.104 403.028 298.104C403.413 298.104 403.725 298.26 403.966 298.572C404.206 298.884 404.327 299.266 404.327 299.72C404.327 300.74 404.05 301.662 403.497 302.484C402.968 303.306 402.234 303.958 401.296 304.439C400.358 304.893 399.299 305.12 398.121 305.12Z" fill="#30310F"/>
<path d="M430.44 331.396C430.031 331.396 429.694 331.255 429.43 330.971C429.165 330.659 429.033 330.248 429.033 329.738V309.797C429.033 309.287 429.165 308.89 429.43 308.606C429.694 308.294 430.031 308.139 430.44 308.139C430.849 308.139 431.174 308.294 431.414 308.606C431.655 308.89 431.775 309.287 431.775 309.797V329.738C431.775 330.248 431.655 330.659 431.414 330.971C431.174 331.255 430.849 331.396 430.44 331.396ZM414.925 331.396C414.516 331.396 414.18 331.255 413.915 330.971C413.675 330.659 413.554 330.248 413.554 329.738V309.797C413.554 309.287 413.675 308.89 413.915 308.606C414.18 308.294 414.516 308.139 414.925 308.139C415.334 308.139 415.659 308.294 415.9 308.606C416.164 308.89 416.296 309.287 416.296 309.797V329.738C416.296 330.248 416.164 330.659 415.9 330.971C415.659 331.255 415.334 331.396 414.925 331.396ZM415.827 321.149V318.216H430.007V321.149H415.827Z" fill="#30310F"/>
<path d="M447.202 331.609C445.253 331.609 443.521 331.113 442.006 330.121C440.515 329.1 439.336 327.697 438.47 325.911C437.628 324.126 437.207 322.085 437.207 319.789C437.207 317.464 437.604 315.423 438.398 313.666C439.216 311.88 440.334 310.477 441.754 309.457C443.173 308.436 444.808 307.926 446.66 307.926C448.488 307.926 450.076 308.422 451.423 309.414C452.794 310.378 453.852 311.724 454.598 313.453C455.344 315.183 455.717 317.153 455.717 319.364C455.717 319.817 455.596 320.186 455.356 320.469C455.115 320.724 454.803 320.852 454.418 320.852H439.084V318.131H454.706L453.155 319.449C453.179 317.805 452.926 316.331 452.397 315.027C451.868 313.723 451.11 312.702 450.124 311.965C449.162 311.228 448.007 310.86 446.66 310.86C445.289 310.86 444.087 311.242 443.052 312.008C442.018 312.773 441.212 313.836 440.635 315.197C440.082 316.529 439.805 318.06 439.805 319.789C439.805 321.518 440.118 323.049 440.743 324.381C441.393 325.713 442.271 326.762 443.377 327.527C444.484 328.293 445.758 328.675 447.202 328.675C448.068 328.675 448.933 328.505 449.799 328.165C450.689 327.796 451.399 327.343 451.928 326.804C452.193 326.549 452.493 326.422 452.83 326.422C453.167 326.393 453.456 326.493 453.696 326.719C454.009 327.059 454.165 327.428 454.165 327.825C454.189 328.222 454.057 328.562 453.768 328.845C452.974 329.639 451.964 330.305 450.737 330.844C449.511 331.354 448.332 331.609 447.202 331.609Z" fill="#30310F"/>
<path d="M461.823 341.346C461.39 341.346 461.042 341.19 460.777 340.878C460.537 340.595 460.416 340.198 460.416 339.688V319.619C460.44 317.408 460.885 315.423 461.751 313.666C462.641 311.88 463.832 310.477 465.323 309.457C466.839 308.436 468.534 307.926 470.41 307.926C472.335 307.926 474.055 308.45 475.57 309.499C477.085 310.52 478.276 311.923 479.142 313.709C480.032 315.494 480.477 317.521 480.477 319.789C480.477 322.028 480.044 324.041 479.178 325.826C478.336 327.612 477.182 329.03 475.714 330.078C474.247 331.099 472.587 331.609 470.735 331.609C469.124 331.609 467.656 331.212 466.333 330.418C465.035 329.596 463.988 328.519 463.194 327.187V339.688C463.194 340.198 463.062 340.595 462.798 340.878C462.557 341.19 462.232 341.346 461.823 341.346ZM470.41 328.633C471.806 328.633 473.056 328.25 474.163 327.485C475.269 326.719 476.135 325.671 476.761 324.338C477.41 322.978 477.735 321.461 477.735 319.789C477.735 318.088 477.41 316.571 476.761 315.239C476.135 313.907 475.269 312.858 474.163 312.093C473.056 311.299 471.806 310.902 470.41 310.902C469.039 310.902 467.801 311.299 466.694 312.093C465.588 312.858 464.722 313.907 464.096 315.239C463.471 316.571 463.158 318.088 463.158 319.789C463.158 321.461 463.471 322.978 464.096 324.338C464.722 325.671 465.588 326.719 466.694 327.485C467.801 328.25 469.039 328.633 470.41 328.633Z" fill="#30310F"/>
</svg>
